<?xml version="1.0" encoding="UTF-8"?><svg version="1.1" xmlns="http://www.w3.org/2000/svg" xmlns:xlink="http://www.w3.org/1999/xlink" viewBox="0 0 1200 800" width="1200" height="800" x="0px" y="0px">
    
    
    <!-- ITEM 0 -->
    <g>
        <defs>
            <clipPath id="clip-path-id-viewbox-item-0">
                <rect x="0.0" y="0.0" width="1920.0" height="1080.0"/>
            </clipPath>
        </defs>
        <g transform="translate(161.0 147.0) rotate(0.0 430.0 242.5) scale(0.4479166666666667 0.44907407407407407)">
            <g clip-path="url(#clip-path-id-viewbox-item-0)" transform="translate(-0.0 -0.0)">
                
  <title>Abstarct_backgrounds</title>
  <g>
    <rect width="1920" height="1080" fill="#f6e049"/>
    <path d="M224,160a4,4,0,0,0-4,4V916a4,4,0,0,0,4,4H1697a4,4,0,0,0,4-4V164a4,4,0,0,0-4-4Zm1231.833,10h112.584V285H1455.833Zm112.584,240H1455.833V295h112.584Zm0,125H1455.833V420h112.584Zm0,125H1455.833V545h112.584Zm0,125H1455.833V670h112.584ZM352.583,670H465.167V785H352.583Zm0-125H465.167V660H352.583Zm0-125H465.167V535H352.583Zm0-125H465.167V410H352.583Zm1093.25,115H1333.25V295h112.583Zm0,125H1333.25V420h112.583Zm0,125H1333.25V545h112.583ZM475.167,545H587.75V660H475.167Zm0-125H587.75V535H475.167ZM1323.25,535H1210.667V420H1323.25Zm-122.583,0H1088.083V420h112.584Zm-122.584,0H965.5V420h112.583ZM955.5,535H842.917V420H955.5Zm-122.583,0H720.333V420H832.917Zm-122.584,0H597.75V420H710.333ZM597.75,545H710.333V660H597.75Zm122.583,0H832.917V660H720.333Zm122.584,0H955.5V660H842.917ZM965.5,545h112.583V660H965.5Zm122.583,0h112.584V660H1088.083Zm122.584,0H1323.25V660H1210.667ZM1323.25,410H1210.667V295H1323.25Zm-122.583,0H1088.083V295h112.584Zm-122.584,0H965.5V295h112.583ZM955.5,410H842.917V295H955.5Zm-122.583,0H720.333V295H832.917Zm-122.584,0H597.75V295H710.333ZM587.75,410H475.167V295H587.75ZM475.167,670H587.75V785H475.167Zm122.583,0H710.333V785H597.75Zm122.583,0H832.917V785H720.333Zm122.584,0H955.5V785H842.917ZM965.5,670h112.583V785H965.5Zm122.583,0h112.584V785H1088.083Zm122.584,0H1323.25V785H1210.667Zm122.583,0h112.583V785H1333.25Zm0-500h112.583V285H1333.25Zm-122.583,0H1323.25V285H1210.667Zm-122.584,0h112.584V285H1088.083ZM965.5,170h112.583V285H965.5Zm-122.583,0H955.5V285H842.917Zm-122.584,0H832.917V285H720.333ZM597.75,170H710.333V285H597.75Zm-122.583,0H587.75V285H475.167Zm-122.584,0H465.167V285H352.583ZM230,170H342.583V285H230Zm0,125H342.583V410H230Zm0,125H342.583V535H230Zm0,125H342.583V660H230Zm0,125H342.583V785H230ZM342.583,910H230V795H342.583Zm122.584,0H352.583V795H465.167Zm122.583,0H475.167V795H587.75Zm122.583,0H597.75V795H710.333Zm122.584,0H720.333V795H832.917ZM955.5,910H842.917V795H955.5Zm122.583,0H965.5V795h112.583Zm122.584,0H1088.083V795h112.584Zm122.583,0H1210.667V795H1323.25Zm122.583,0H1333.25V795h112.583Zm122.584,0H1455.833V795h112.584ZM1691,910H1578.417V795H1691Zm0-125H1578.417V670H1691Zm0-125H1578.417V545H1691Zm0-125H1578.417V420H1691Zm0-125H1578.417V295H1691ZM1578.417,285V170H1691V285Z" fill="#e3c049"/>
  </g>

            </g>
        </g>
    </g>
    
    <!-- ITEM 1 -->
    <g>
        <defs>
            <clipPath id="clip-path-id-viewbox-item-1">
                <rect x="0.0" y="0.0" width="1547.902" height="752.0"/>
            </clipPath>
        </defs>
        <g transform="translate(324.0 336.0) rotate(0.0 240.5 117.0) scale(0.3107431865841636 0.31117021276595747)">
            <g clip-path="url(#clip-path-id-viewbox-item-1)" transform="translate(-0.0 -0.0)">
                
<g>
	<g>
		<path style="fill:#F3F6E7;" d="M1542.052,98.213l-72.186,496.52l-9.603,66.063H427.424l9.603-66.063l75.594-519.972    C518.446,34.712,552.783,5,593.267,5h868.148C1511.083,5,1549.198,49.061,1542.052,98.213z"/>
		<path style="fill:#383A47;" d="M1460.263,665.796H427.424c-1.452,0-2.832-0.631-3.781-1.729c-0.95-1.098-1.375-2.554-1.167-3.991    l85.198-586.035c2.99-20.559,13.29-39.368,29.002-52.96C552.39,7.487,572.487,0,593.267,0h868.148    c25.125,0,48.964,10.899,65.403,29.901c16.441,19.004,23.797,44.165,20.182,69.031l-72.187,496.52l-9.603,66.063    C1464.854,663.973,1462.746,665.796,1460.263,665.796z M433.204,655.796h1022.733l81.167-558.302l4.948,0.719l-4.948-0.719    c3.197-21.991-3.309-44.243-17.849-61.05C1504.717,19.638,1483.634,10,1461.415,10H593.267c-37.725,0-70.268,28.15-75.697,65.48    L433.204,655.796z"/>
	</g>
	<g>
		<path style="fill:#383A47;" d="M91.204,747h1282.589c47.609,0,86.204-38.595,86.204-86.204v0H5v0C5,708.405,43.595,747,91.204,747    z"/>
		<path style="fill:#383A47;" d="M1373.792,752H91.204C40.914,752,0,711.086,0,660.796c0-2.761,2.239-5,5-5h1454.997    c2.761,0,5,2.239,5,5C1464.997,711.086,1424.083,752,1373.792,752z M10.152,665.796C12.742,708.254,48.106,742,91.204,742    h1282.588c43.098,0,78.462-33.746,81.052-76.204H10.152z"/>
	</g>
	<g>
		<polygon style="fill:#F6E258;" points="1469.866,594.733 1460.263,660.796 427.424,660.796 437.028,594.733   "/>
		<path style="fill:#383A47;" d="M1460.263,665.796H427.424c-1.452,0-2.832-0.631-3.781-1.729c-0.95-1.098-1.375-2.554-1.167-3.991    l9.604-66.063c0.357-2.458,2.464-4.281,4.948-4.281h1032.838c1.452,0,2.832,0.631,3.781,1.729c0.95,1.098,1.375,2.554,1.167,3.991    l-9.603,66.063C1464.854,663.973,1462.746,665.796,1460.263,665.796z M433.204,655.796h1022.733l8.149-56.063H441.354    L433.204,655.796z"/>
	</g>
	<g>
		<path style="fill:#383A47;" d="M1317.398,5h-29.438h-53.213H805.812h-51.191h-31.46c20.469,0,28.57,11.749,32.43,21.161    c5.909,24.973,28.33,44.097,55.76,44.097h417.638c26.153,0,48.635-17.644,55.292-42.334C1287.849,18.289,1295.627,5,1317.398,5z"/>
		<path style="fill:#383A47;" d="M1228.989,75.258H811.352c-28.878,0-53.71-19.531-60.53-47.545    C745.746,15.631,736.946,10,723.161,10c-2.761,0-5-2.239-5-5s2.239-5,5-5h594.237c2.761,0,5,2.239,5,5s-2.239,5-5,5    c-18.803,0-25.199,11.039-28.351,19.454C1281.662,56.436,1257,75.258,1228.989,75.258z M750.851,10    c3.867,3.724,6.995,8.482,9.366,14.263c0.099,0.242,0.179,0.492,0.24,0.746c5.606,23.698,26.535,40.248,50.895,40.248h417.638    c23.579,0,44.331-15.887,50.465-38.636c0.04-0.147,0.086-0.292,0.139-0.434c2.465-6.658,5.853-12.059,10.144-16.188H750.851z"/>
	</g>
</g>

            </g>
        </g>
    </g>
    
    <!-- ITEM 2 -->
    <g>
        <defs>
            <clipPath id="clip-path-id-viewbox-item-2">
                <rect x="0.0" y="0.0" width="581.4" height="384.8"/>
            </clipPath>
        </defs>
        <g transform="translate(340.0 225.0) rotate(0.0 110.5 73.0) scale(0.3801169590643275 0.3794178794178794)">
            <g clip-path="url(#clip-path-id-viewbox-item-2)" transform="translate(-0.0 -0.0)">
                

<g>
	<g>
		<path d="M533.5,132.6c-18.7-8.1-38.1-12.8-58.4-12.7c-14.5,0-71.3,0.5-142.5,1.1c-21.1-18.7-91.3-80.2-109.5-96.1    c-2.9-2.5-6-4.7-9.4-6.5L200,11c-7.7-4.2-16.4-6.2-25.1-6.1l-12.1,0.2c-6.3,0.1-10,7.2-6.4,12.5c17.9,26.2,59.3,86.9,72,104.2    c-66.5,0.6-122.5,1-132.2,1.1c-6.5,0-12.1-2.1-16.2-7.3c-1.9-2.5-3.6-5.1-5.2-7.8c-5.8-10-11.4-20.2-17.2-30.2    c-4.2-7.3-8.7-14.5-12.7-21.9c-1.9-3.5-4.1-6.6-7.2-8.9c-6.4-4.9-13.5-7.9-21.7-7.4C9,39.9,4.8,44.6,4.9,51.6    c0,2.3,0.2,4.5,0.3,6.7c0.6,20.7,1.4,76,2,114c0.3,21.4,17.6,38.7,39,38.9c69.3,1,206,0.8,206,0.8s-96.8,143.3-103,152.6    c-1.9,2.9-3.6,6-4.8,9.3c-1.4,3.7,0.3,5.8,4.3,5.9c6.5,0.1,13,0.4,19.5,0.3c3.2,0,6.4-0.3,9.5-1.1c13.4-3.3,25-10,35.3-19.2    c34.6-31.1,169.4-149.2,169.4-149.2l167.5,1.1c22.3,0,31.5-30.3,23.2-44.1C565.2,154.7,552.9,141,533.5,132.6z" style="fill:#F3F6E6;"/>
		<path d="M165.5,384.8c-4.2,0-8.3-0.1-12.4-0.2c-1.6,0-3.2-0.1-4.7-0.1c-4.7-0.1-7.1-2.2-8.2-3.9    c-0.9-1.4-2.2-4.3-0.6-8.7c1.3-3.4,3.1-6.8,5.4-10.3c5.3-8,77.5-114.8,97.8-144.8c-32.2,0-138.6,0-196.7-0.8    c-24.3-0.3-43.6-19.6-43.9-43.9c-0.6-40.8-1.5-93.6-2-113.9c0-1-0.1-1.9-0.1-2.9C0,54,0,52.7,0,51.4c-0.2-9.7,6.2-16.6,15.8-17.3    c8.6-0.6,16.8,2.2,25.1,8.4c3.4,2.5,6.1,5.9,8.6,10.6c2.4,4.5,5.1,9,7.7,13.4c1.6,2.8,3.3,5.6,5,8.5c2.8,4.9,5.6,9.9,8.4,14.9    c2.9,5.1,5.8,10.2,8.7,15.4c1.7,3,3.2,5.3,4.8,7.2c2.8,3.6,6.8,5.4,12.1,5.4h0.1c9.6,0,65.7-0.5,122.6-1    c-16.6-23.5-51-73.9-66.4-96.4c-2.7-3.9-3-9-0.8-13.3c2.2-4.2,6.5-6.9,11.3-7L175.1,0c9.6-0.2,19.1,2.1,27.6,6.7l13.7,7.4    c3.7,2,7.1,4.4,10.3,7.1c8.7,7.6,83.9,73.5,108.1,94.8l48-0.4c47.4-0.4,81.7-0.7,92.6-0.7c0.1,0,0.3,0,0.4,0    c20.1,0,39.7,4.3,60.1,13.1l0,0c17.5,7.6,31.5,20,41.7,36.8c5.6,9.3,4.9,23.9-1.7,35.5c-5.8,10.3-15.2,16.1-25.8,16.1l-165.6-1.1    c-14.6,12.8-135.7,118.9-168,147.9c-11.5,10.3-23.8,17-37.4,20.3c-3.2,0.8-6.6,1.2-10.6,1.2C167.2,384.8,166.3,384.8,165.5,384.8z     M149.2,374.6c1.4,0,2.7,0.1,4.1,0.1c4.8,0.1,9.8,0.2,14.6,0.2c3.2,0,5.9-0.3,8.3-0.9c12-2.9,22.8-8.8,33.1-18.1    c34.3-30.7,168.1-148,169.5-149.2c0.9-0.8,2.1-1.2,3.3-1.2l0,0l167.5,1.1c9.4,0,14.7-6.9,17.1-11.1c4.7-8.4,5.5-19.3,1.8-25.5    c-9-15-21.5-26.1-37.1-32.8l0,0c-19.1-8.3-37.4-12.3-56.1-12.3c-0.1,0-0.2,0-0.3,0c-10.9,0-45.1,0.3-92.5,0.7l-49.9,0.4    c-1.2,0-2.4-0.4-3.3-1.3c-22.5-19.8-100.6-88.3-109.5-96.1c-2.6-2.3-5.4-4.2-8.5-5.9l-13.7-7.4c-6.9-3.7-14.8-5.6-22.6-5.5    L162.9,10c-1.6,0-2.4,1.1-2.6,1.6c-0.2,0.5-0.7,1.7,0.2,3.1c17.4,25.5,59.2,86.8,71.9,104c1.1,1.5,1.3,3.5,0.4,5.2    c-0.8,1.7-2.6,2.7-4.4,2.8c-60,0.5-122.1,1-132.3,1.1c-0.1,0-0.1,0-0.2,0c-8.4,0-15.2-3.1-19.9-9.2c-1.8-2.3-3.6-5-5.5-8.4    c-2.9-5.1-5.8-10.3-8.7-15.4c-2.8-4.9-5.6-9.9-8.4-14.8c-1.6-2.8-3.3-5.6-4.9-8.3c-2.6-4.5-5.4-9.1-7.9-13.7    c-1.8-3.4-3.6-5.7-5.9-7.3c-6.3-4.8-12.1-6.8-18.4-6.4c-5.4,0.4-6.5,4.1-6.4,7.1c0,1.2,0.1,2.4,0.1,3.6c0,1,0.1,2.1,0.1,3.1    c0.5,20.3,1.4,73.2,2,114c0.3,18.8,15.3,33.8,34.1,34c68.5,0.9,204.6,0.8,205.9,0.8l0,0c1.8,0,3.5,1,4.4,2.7    c0.9,1.6,0.8,3.6-0.3,5.1c-1,1.4-96.9,143.4-103,152.6C151.5,369.7,150.2,372.1,149.2,374.6z" style="fill:#383A48;"/>
	</g>
	<g>
		<path d="M500.9,122.3l1.5,16.2c1.8,20.4,19.1,35.9,39.6,35.5l29.9-0.6C571.9,173.5,569.6,140.5,500.9,122.3z" style="fill:#AAC6FC;"/>
		<path d="M541.3,179.1c-22.6,0-41.8-17.5-43.9-40.1l-1.5-16.2c-0.1-1.6,0.5-3.2,1.8-4.3c1.2-1.1,2.9-1.4,4.5-1    c71.3,18.9,74.6,54.2,74.7,55.7c0.1,1.4-0.4,2.7-1.3,3.7s-2.2,1.6-3.6,1.6l-29.9,0.6C541.8,179.1,541.5,179.1,541.3,179.1z     M506.5,129.1l0.8,9c1.6,17.7,16.7,31.3,34.5,31l23.4-0.4C561.3,159.8,548.4,141.6,506.5,129.1z" style="fill:#383A48;"/>
	</g>
	<g>
		<circle cx="417.1" cy="176.5" r="14.5" style="fill:#AAC6FC;"/>
		<path d="M417.1,196c-2.6,0-5.2-0.5-7.6-1.6c-4.8-2-8.5-5.8-10.4-10.7c-1.9-4.8-1.9-10.1,0.2-14.9    c4.2-9.9,15.7-14.5,25.6-10.3c4.8,2,8.5,5.8,10.4,10.7c1.9,4.8,1.9,10.1-0.2,14.9l0,0c-2,4.8-5.8,8.5-10.7,10.4    C422,195.6,419.5,196,417.1,196z M417.1,167c-3.7,0-7.2,2.2-8.7,5.8c-1,2.3-1,4.9-0.1,7.3s2.8,4.2,5.1,5.2s4.9,1,7.3,0.1    c2.4-0.9,4.2-2.8,5.2-5.1l0,0c1-2.3,1-4.9,0.1-7.3s-2.8-4.2-5.1-5.2C419.6,167.3,418.3,167,417.1,167z" style="fill:#383A48;"/>
	</g>
	<g>
		<circle cx="359.1" cy="176.3" r="14.5" style="fill:#AAC6FC;"/>
		<path d="M359.1,195.8c-2.6,0-5.2-0.5-7.6-1.6c-4.8-2-8.5-5.8-10.4-10.7c-1.9-4.8-1.9-10.1,0.2-14.9s5.8-8.5,10.7-10.4    c4.8-1.9,10.1-1.9,14.9,0.2c9.9,4.2,14.5,15.7,10.3,25.6c-2,4.8-5.8,8.5-10.7,10.4C364,195.3,361.6,195.8,359.1,195.8z     M359.1,166.8c-1.2,0-2.4,0.2-3.5,0.7c-2.4,0.9-4.2,2.8-5.2,5.1c-1,2.3-1,4.9-0.1,7.3s2.8,4.2,5.1,5.2s4.9,1,7.3,0.1    c2.4-0.9,4.2-2.8,5.2-5.1l0,0c2.1-4.8-0.2-10.4-5-12.5C361.6,167,360.4,166.8,359.1,166.8z" style="fill:#383A48;"/>
	</g>
	<g>
		<circle cx="301.2" cy="176" r="14.5" style="fill:#AAC6FC;"/>
		<path d="M301.1,195.5c-2.5,0-5.1-0.5-7.6-1.6c-9.9-4.2-14.5-15.7-10.3-25.6c2-4.8,5.8-8.5,10.7-10.4    c4.8-1.9,10.1-1.9,14.9,0.2c9.9,4.2,14.5,15.7,10.3,25.6l0,0C315.9,191.1,308.7,195.5,301.1,195.5z M301.2,166.5    c-1.2,0-2.4,0.2-3.5,0.7c-2.4,0.9-4.2,2.8-5.2,5.1c-2.1,4.8,0.2,10.4,5,12.5s10.4-0.2,12.5-5l0,0c2.1-4.8-0.2-10.4-5-12.5    C303.7,166.8,302.4,166.5,301.2,166.5z M314.5,181.7L314.5,181.7L314.5,181.7z" style="fill:#383A48;"/>
	</g>
	<g>
		<circle cx="243.2" cy="175.8" r="14.5" style="fill:#AAC6FC;"/>
		<path d="M243.2,195.3c-2.5,0-5.1-0.5-7.6-1.6c-9.9-4.2-14.5-15.7-10.3-25.6c2-4.8,5.8-8.5,10.7-10.4    c4.8-1.9,10.1-1.9,14.9,0.2c4.8,2,8.5,5.8,10.4,10.7c1.9,4.8,1.9,10.1-0.2,14.9l0,0C258,190.8,250.8,195.3,243.2,195.3z     M243.2,166.3c-1.2,0-2.4,0.2-3.5,0.7c-2.4,0.9-4.2,2.8-5.2,5.1c-2.1,4.8,0.2,10.4,5,12.5s10.4-0.2,12.5-5l0,0    c1-2.3,1-4.9,0.1-7.3s-2.8-4.2-5.1-5.2C245.7,166.5,244.5,166.3,243.2,166.3z" style="fill:#383A48;"/>
	</g>
	<g>
		<circle cx="185.3" cy="175.5" r="14.5" style="fill:#AAC6FC;"/>
		<path d="M185.2,195c-2.6,0-5.2-0.5-7.6-1.6c-4.8-2-8.5-5.8-10.4-10.7c-1.9-4.8-1.9-10.1,0.2-14.9    c2-4.8,5.8-8.5,10.7-10.4c4.8-1.9,10.1-1.9,14.9,0.2c4.8,2,8.5,5.8,10.4,10.7c1.9,4.8,1.9,10.1-0.2,14.9l0,0    c-2,4.8-5.8,8.5-10.7,10.4C190.2,194.6,187.7,195,185.2,195z M185.3,166c-1.2,0-2.4,0.2-3.5,0.7c-2.4,0.9-4.2,2.8-5.2,5.1    c-1,2.3-1,4.9-0.1,7.3s2.8,4.2,5.1,5.2s4.9,1,7.3,0.1s4.2-2.8,5.2-5.1l0,0c1-2.3,1-4.9,0.1-7.3s-2.8-4.2-5.1-5.2    C187.8,166.3,186.5,166,185.3,166z" style="fill:#383A48;"/>
	</g>
	<g>
		<line x1="228.2" y1="121.8" x2="332.5" y2="121" style="fill:none;"/>
		
			<rect x="228.2" y="116.4" transform="matrix(1 -8.202573e-03 8.202573e-03 1 -0.9865 2.304)" width="104.3" height="10" style="fill:#383A48;"/>
	</g>
</g>

            </g>
        </g>
    </g>
    
    <!-- ITEM 3 -->
    <g>
        <defs>
            <clipPath id="clip-path-id-viewbox-item-3">
                <rect x="0.0" y="0.0" width="854.06" height="674.106"/>
            </clipPath>
        </defs>
        <g transform="translate(641.0 191.0) rotate(0.0 157.0 124.0) scale(0.36765566822003143 0.36789466345055527)">
            <g clip-path="url(#clip-path-id-viewbox-item-3)" transform="translate(-0.0 -0.0)">
                <path d="M731.03,337.006a286.275,286.275,0,0,1-286.5,286.6c-158.3,0-286.6-128.3-286.6-286.6s128.3-286.6,286.6-286.6c106,0,198.6,57.6,248.2,143.2a284.718,284.718,0,0,1,33.3,89.4A299.6,299.6,0,0,1,731.03,337.006Z" fill="#aac6fc"/><path d="M444.43,628.606a291.611,291.611,0,0,1-206.2-497.8,291.7,291.7,0,0,1,354-45.2,293.274,293.274,0,0,1,104.7,105.5,288.734,288.734,0,0,1,33.9,90.9,297.074,297.074,0,0,1,5.2,55,292.179,292.179,0,0,1-8.9,71.7c-19.2,76.1-69.5,142.2-137.8,181.4A291.4,291.4,0,0,1,444.43,628.606Zm0-573.2a281.57,281.57,0,0,0-199.1,480.7,281.71,281.71,0,0,0,339.1,45.3c66-37.9,114.5-101.7,133.1-175.2a282.318,282.318,0,0,0,8.6-69.3,285.971,285.971,0,0,0-5-53.1,278.838,278.838,0,0,0-32.7-87.8,280.995,280.995,0,0,0-244-140.6Z" fill="#383a48"/><path d="M722.53,406.106a287.462,287.462,0,0,1-25.5,66.3l-52.4-25.7a56.874,56.874,0,0,0-59.7,6l-110.2,84.9a52.661,52.661,0,0,1-44.9,9.4,56.254,56.254,0,0,1-9-3.1,52.751,52.751,0,0,1-26.4-69.8l70-155a54.077,54.077,0,0,1,62.3-30.3,56.027,56.027,0,0,1,10.8,3.9,54.177,54.177,0,0,0,72.8-25.5l1.6-3.4a54.225,54.225,0,0,1,75.3-24.2l32.5,18.1a285.777,285.777,0,0,1,10.8,94.8A279.039,279.039,0,0,1,722.53,406.106Z" fill="#f6e049"/><path d="M442.73,553.506a60.256,60.256,0,0,1-14-1.7,54.042,54.042,0,0,1-9.8-3.4,57.685,57.685,0,0,1-28.9-76.4l70-155a59.04,59.04,0,0,1,68.1-33.1,57.687,57.687,0,0,1,11.8,4.3,49.251,49.251,0,0,0,66.1-23.2l1.6-3.4a59.067,59.067,0,0,1,82.3-26.4l32.5,18.1a4.832,4.832,0,0,1,2.4,3,288.218,288.218,0,0,1,11,96.4,297.608,297.608,0,0,1-8.2,54.6h0a295.273,295.273,0,0,1-25.9,67.5,4.954,4.954,0,0,1-6.6,2.1l-52.4-25.7a52.381,52.381,0,0,0-54.5,5.4l-110.3,84.9A57.625,57.625,0,0,1,442.73,553.506Zm71.1-261.4a49.181,49.181,0,0,0-44.8,29l-70,155a47.824,47.824,0,0,0,23.8,63.3,45.617,45.617,0,0,0,8.1,2.8,47.928,47.928,0,0,0,40.7-8.5l110.2-84.9a62.162,62.162,0,0,1,65-6.5l48,23.6a282.328,282.328,0,0,0,22.8-60.9,281.69,281.69,0,0,0-2.1-143.8l-30.7-17.1a49.041,49.041,0,0,0-68.3,21.9l-1.6,3.4a59.1,59.1,0,0,1-79.5,27.9,60.9,60.9,0,0,0-9.8-3.6A39.968,39.968,0,0,0,513.83,292.106Z" fill="#383a48"/><path d="M269.53,109.906a286.6,286.6,0,0,0-109.1,266c23.9-42.6,107.6-57.1,135.5-108.9s-28.3-116.1,19.6-186.1A293.19,293.19,0,0,0,269.53,109.906Z" fill="#f6e049"/><path d="M160.43,381.006a2.769,2.769,0,0,1-.9-.1,4.993,4.993,0,0,1-4-4.2,291.54,291.54,0,0,1,111-270.7h0a288.29,288.29,0,0,1,46.7-29.4,5.06,5.06,0,0,1,6,1.2,4.964,4.964,0,0,1,.4,6.1c-25.7,37.6-20.1,73.2-14.7,107.7,4.4,27.7,8.5,53.8-4.6,78-15.4,28.6-46,45.7-75.6,62.3-25.4,14.2-49.3,27.7-59.9,46.6A5.481,5.481,0,0,1,160.43,381.006Zm141.6-287a292.939,292.939,0,0,0-29.5,19.9h0a281.433,281.433,0,0,0-108.6,248.6c13.4-15.5,34.2-27.1,55.9-39.3,28.4-15.9,57.7-32.4,71.7-58.4,11.4-21.2,7.6-45.8,3.5-71.7C290.23,162.806,284.93,129.206,302.03,94.006Z" fill="#383a48"/><circle cx="677.83" cy="497.206" r="5" fill="#383a48"/><circle cx="653.13" cy="497.206" r="5" fill="#383a48"/><circle cx="653.13" cy="521.806" r="5" fill="#383a48"/><circle cx="628.43" cy="521.806" r="5" fill="#383a48"/><circle cx="628.43" cy="546.506" r="5" fill="#383a48"/><circle cx="603.83" cy="521.806" r="5" fill="#383a48"/><circle cx="603.83" cy="546.506" r="5" fill="#383a48"/><circle cx="603.83" cy="571.206" r="5" fill="#383a48"/><circle cx="579.13" cy="521.806" r="5" fill="#383a48"/><circle cx="579.13" cy="546.506" r="5" fill="#383a48"/><circle cx="579.13" cy="571.206" r="5" fill="#383a48"/><circle cx="554.43" cy="521.806" r="5" fill="#383a48"/><circle cx="554.43" cy="546.506" r="5" fill="#383a48"/><circle cx="554.43" cy="571.206" r="5" fill="#383a48"/><circle cx="554.43" cy="595.806" r="5" fill="#383a48"/><circle cx="529.83" cy="521.806" r="5" fill="#383a48"/><circle cx="529.83" cy="546.506" r="5" fill="#383a48"/><circle cx="529.83" cy="571.206" r="5" fill="#383a48"/><circle cx="529.83" cy="595.806" r="5" fill="#383a48"/><circle cx="505.13" cy="521.806" r="5" fill="#383a48"/><circle cx="505.13" cy="546.506" r="5" fill="#383a48"/><circle cx="505.13" cy="571.206" r="5" fill="#383a48"/><circle cx="505.13" cy="595.806" r="5" fill="#383a48"/><circle cx="480.43" cy="521.806" r="5" fill="#383a48"/><circle cx="480.43" cy="546.506" r="5" fill="#383a48"/><circle cx="480.43" cy="571.206" r="5" fill="#383a48"/><circle cx="480.43" cy="595.806" r="5" fill="#383a48"/><circle cx="455.83" cy="497.206" r="5" fill="#383a48"/><circle cx="455.83" cy="521.806" r="5" fill="#383a48"/><circle cx="455.83" cy="546.506" r="5" fill="#383a48"/><circle cx="455.83" cy="571.206" r="5" fill="#383a48"/><circle cx="455.83" cy="595.806" r="5" fill="#383a48"/><circle cx="455.83" cy="620.506" r="5" fill="#383a48"/><circle cx="431.13" cy="497.206" r="5" fill="#383a48"/><circle cx="431.13" cy="521.806" r="5" fill="#383a48"/><circle cx="431.13" cy="546.506" r="5" fill="#383a48"/><circle cx="431.13" cy="571.206" r="5" fill="#383a48"/><circle cx="431.13" cy="595.806" r="5" fill="#383a48"/><circle cx="431.13" cy="620.506" r="5" fill="#383a48"/><circle cx="406.43" cy="497.206" r="5" fill="#383a48"/><circle cx="406.43" cy="521.806" r="5" fill="#383a48"/><circle cx="406.43" cy="546.506" r="5" fill="#383a48"/><circle cx="406.43" cy="571.206" r="5" fill="#383a48"/><circle cx="406.43" cy="595.806" r="5" fill="#383a48"/><circle cx="406.43" cy="620.506" r="5" fill="#383a48"/><circle cx="381.83" cy="472.506" r="5" fill="#383a48"/><circle cx="381.83" cy="497.206" r="5" fill="#383a48"/><circle cx="381.83" cy="521.806" r="5" fill="#383a48"/><circle cx="381.83" cy="546.506" r="5" fill="#383a48"/><circle cx="381.83" cy="571.206" r="5" fill="#383a48"/><circle cx="381.83" cy="595.806" r="5" fill="#383a48"/><circle cx="357.13" cy="447.806" r="5" fill="#383a48"/><circle cx="357.13" cy="472.506" r="5" fill="#383a48"/><circle cx="357.13" cy="497.206" r="5" fill="#383a48"/><circle cx="357.13" cy="521.806" r="5" fill="#383a48"/><circle cx="357.13" cy="546.506" r="5" fill="#383a48"/><circle cx="357.13" cy="571.206" r="5" fill="#383a48"/><circle cx="357.13" cy="595.806" r="5" fill="#383a48"/><circle cx="332.43" cy="423.206" r="5" fill="#383a48"/><circle cx="332.43" cy="447.806" r="5" fill="#383a48"/><circle cx="332.43" cy="472.506" r="5" fill="#383a48"/><circle cx="332.43" cy="497.206" r="5" fill="#383a48"/><circle cx="332.43" cy="521.806" r="5" fill="#383a48"/><circle cx="332.43" cy="546.506" r="5" fill="#383a48"/><circle cx="332.43" cy="571.206" r="5" fill="#383a48"/><circle cx="332.43" cy="595.806" r="5" fill="#383a48"/><circle cx="307.83" cy="398.506" r="5" fill="#383a48"/><circle cx="307.83" cy="423.206" r="5" fill="#383a48"/><circle cx="307.83" cy="447.806" r="5" fill="#383a48"/><circle cx="307.83" cy="472.506" r="5" fill="#383a48"/><circle cx="307.83" cy="497.206" r="5" fill="#383a48"/><circle cx="307.83" cy="521.806" r="5" fill="#383a48"/><circle cx="307.83" cy="546.506" r="5" fill="#383a48"/><circle cx="307.83" cy="571.206" r="5" fill="#383a48"/><circle cx="283.13" cy="102.506" r="5" fill="#383a48"/><circle cx="283.13" cy="349.206" r="5" fill="#383a48"/><circle cx="283.13" cy="373.806" r="5" fill="#383a48"/><circle cx="283.13" cy="398.506" r="5" fill="#383a48"/><circle cx="283.13" cy="423.206" r="5" fill="#383a48"/><circle cx="283.13" cy="447.806" r="5" fill="#383a48"/><circle cx="283.13" cy="472.506" r="5" fill="#383a48"/><circle cx="283.13" cy="497.206" r="5" fill="#383a48"/><circle cx="283.13" cy="521.806" r="5" fill="#383a48"/><circle cx="283.13" cy="546.506" r="5" fill="#383a48"/><circle cx="283.13" cy="571.206" r="5" fill="#383a48"/><circle cx="258.43" cy="127.206" r="5" fill="#383a48"/><circle cx="258.43" cy="151.806" r="5" fill="#383a48"/><circle cx="258.43" cy="176.506" r="5" fill="#383a48"/><circle cx="258.43" cy="201.206" r="5" fill="#383a48"/><circle cx="258.43" cy="225.806" r="5" fill="#383a48"/><circle cx="258.43" cy="250.506" r="5" fill="#383a48"/><circle cx="258.43" cy="275.206" r="5" fill="#383a48"/><circle cx="258.43" cy="299.806" r="5" fill="#383a48"/><circle cx="258.43" cy="324.506" r="5" fill="#383a48"/><circle cx="258.43" cy="349.206" r="5" fill="#383a48"/><circle cx="258.43" cy="373.806" r="5" fill="#383a48"/><circle cx="258.43" cy="398.506" r="5" fill="#383a48"/><circle cx="258.43" cy="423.206" r="5" fill="#383a48"/><circle cx="258.43" cy="447.806" r="5" fill="#383a48"/><circle cx="258.43" cy="472.506" r="5" fill="#383a48"/><circle cx="258.43" cy="497.206" r="5" fill="#383a48"/><circle cx="258.43" cy="521.806" r="5" fill="#383a48"/><circle cx="258.43" cy="546.506" r="5" fill="#383a48"/><circle cx="233.83" cy="151.806" r="5" fill="#383a48"/><circle cx="233.83" cy="176.506" r="5" fill="#383a48"/><circle cx="233.83" cy="201.206" r="5" fill="#383a48"/><circle cx="233.83" cy="225.806" r="5" fill="#383a48"/><circle cx="233.83" cy="250.506" r="5" fill="#383a48"/><circle cx="233.83" cy="275.206" r="5" fill="#383a48"/><circle cx="233.83" cy="299.806" r="5" fill="#383a48"/><circle cx="233.83" cy="324.506" r="5" fill="#383a48"/><circle cx="233.83" cy="349.206" r="5" fill="#383a48"/><circle cx="233.83" cy="373.806" r="5" fill="#383a48"/><circle cx="233.83" cy="398.506" r="5" fill="#383a48"/><circle cx="233.83" cy="423.206" r="5" fill="#383a48"/><circle cx="233.83" cy="447.806" r="5" fill="#383a48"/><circle cx="233.83" cy="472.506" r="5" fill="#383a48"/><circle cx="233.83" cy="497.206" r="5" fill="#383a48"/><circle cx="233.83" cy="521.806" r="5" fill="#383a48"/><circle cx="209.13" cy="176.506" r="5" fill="#383a48"/><circle cx="209.13" cy="201.206" r="5" fill="#383a48"/><circle cx="209.13" cy="225.806" r="5" fill="#383a48"/><circle cx="209.13" cy="250.506" r="5" fill="#383a48"/><circle cx="209.13" cy="275.206" r="5" fill="#383a48"/><circle cx="209.13" cy="299.806" r="5" fill="#383a48"/><circle cx="209.13" cy="324.506" r="5" fill="#383a48"/><circle cx="209.13" cy="349.206" r="5" fill="#383a48"/><circle cx="209.13" cy="373.806" r="5" fill="#383a48"/><circle cx="209.13" cy="398.506" r="5" fill="#383a48"/><circle cx="209.13" cy="423.206" r="5" fill="#383a48"/><circle cx="209.13" cy="447.806" r="5" fill="#383a48"/><circle cx="209.13" cy="472.506" r="5" fill="#383a48"/><circle cx="209.13" cy="497.206" r="5" fill="#383a48"/><circle cx="184.43" cy="225.806" r="5" fill="#383a48"/><circle cx="184.43" cy="250.506" r="5" fill="#383a48"/><circle cx="184.43" cy="275.206" r="5" fill="#383a48"/><circle cx="184.43" cy="299.806" r="5" fill="#383a48"/><circle cx="184.43" cy="324.506" r="5" fill="#383a48"/><circle cx="184.43" cy="349.206" r="5" fill="#383a48"/><circle cx="184.43" cy="373.806" r="5" fill="#383a48"/><circle cx="184.43" cy="398.506" r="5" fill="#383a48"/><circle cx="184.43" cy="423.206" r="5" fill="#383a48"/><circle cx="184.43" cy="447.806" r="5" fill="#383a48"/><circle cx="159.83" cy="299.806" r="5" fill="#383a48"/><circle cx="159.83" cy="324.506" r="5" fill="#383a48"/><circle cx="159.83" cy="349.206" r="5" fill="#383a48"/><circle cx="159.83" cy="373.806" r="5" fill="#383a48"/><path d="M167.53,674.106c-19.1,0-34.1-5.1-44.6-15.6-27.2-27.2-18.5-86.4,24.7-166.6,42.2-78.5,112.4-168.7,197.7-254s175.5-155.5,254-197.7c80.2-43.1,139.4-51.9,166.6-24.7,32.7,32.7,13.5,110.6-52.6,214l-8.4-5.4c62.4-97.6,82.6-172.9,54-201.5-23.5-23.5-79.9-13.9-154.8,26.4-77.7,41.8-167.1,111.4-251.7,196s-154.2,174-196,251.7c-40.3,74.9-49.9,131.3-26.4,154.8,28.6,28.6,103.9,8.4,201.5-54l5.4,8.4C266.63,650.806,208.03,674.106,167.53,674.106Z" fill="#383a48"/><path d="M71.53,627.306a5.017,5.017,0,0,1-.6-10c3.7-.4,7.5-1,11.5-1.7a4.982,4.982,0,0,1,1.8,9.8q-6.3,1.2-12.3,1.8C71.83,627.306,71.73,627.306,71.53,627.306Zm-29.8-1.2a3.75,3.75,0,0,1-1.1-.1,60.445,60.445,0,0,1-12.4-4.3,5.009,5.009,0,0,1,4.4-9,46.227,46.227,0,0,0,10.3,3.5,4.894,4.894,0,0,1,3.7,6A5.084,5.084,0,0,1,41.73,626.106Zm-32-24.8a4.925,4.925,0,0,1-4.5-2.9,66.79,66.79,0,0,1-4.1-12.4,5.022,5.022,0,1,1,9.8-2.2,51.854,51.854,0,0,0,3.4,10.3,4.9,4.9,0,0,1-2.4,6.6A4.559,4.559,0,0,1,9.73,601.306Zm-4.7-41.2h-.6a5.025,5.025,0,0,1-4.4-5.5c.4-3.9,1.1-8,1.9-12.2a4.982,4.982,0,1,1,9.8,1.8c-.8,3.9-1.3,7.8-1.7,11.5A5.065,5.065,0,0,1,5.03,560.106Zm9.6-40.9a4.529,4.529,0,0,1-1.6-.3,5.091,5.091,0,0,1-3.2-6.3c1.2-3.7,2.6-7.6,4.1-11.5a4.968,4.968,0,1,1,9.3,3.5c-1.4,3.8-2.8,7.5-4,11.1A4.686,4.686,0,0,1,14.63,519.206Zm15.7-38.9a5.374,5.374,0,0,1-2.1-.5,4.927,4.927,0,0,1-2.4-6.6c1.7-3.6,3.4-7.3,5.3-10.9a5.009,5.009,0,0,1,9,4.4c-1.8,3.6-3.5,7.2-5.2,10.7A5,5,0,0,1,30.33,480.306Zm19.2-37.3a5.025,5.025,0,0,1-2.4-.6,4.966,4.966,0,0,1-1.9-6.8q2.85-5.1,6-10.5a4.974,4.974,0,0,1,8.6,5c-2,3.5-4,7-5.9,10.3A4.891,4.891,0,0,1,49.53,443.006Zm21.7-36a5.3,5.3,0,0,1-2.7-.8,5.008,5.008,0,0,1-1.5-6.9c1-1.6,2.1-3.3,3.2-4.9a4.993,4.993,0,0,1,8.4,5.4c-1,1.6-2.1,3.2-3.1,4.8A5.222,5.222,0,0,1,71.23,407.006Z" fill="#383a48"/><path d="M779.83,248.406a5.3,5.3,0,0,1-2.7-.8,5.008,5.008,0,0,1-1.5-6.9c1-1.6,2.1-3.2,3.1-4.8a4.993,4.993,0,1,1,8.4,5.4c-1,1.6-2.1,3.3-3.1,4.9A5.218,5.218,0,0,1,779.83,248.406Zm18.8-30.4a4.514,4.514,0,0,1-2.5-.7,4.957,4.957,0,0,1-1.8-6.8c2-3.5,4-6.9,5.9-10.3a4.992,4.992,0,0,1,8.7,4.9c-1.9,3.4-4,7-6,10.5A5.074,5.074,0,0,1,798.63,218.006Zm20-36.9a5.852,5.852,0,0,1-2.2-.5,5,5,0,0,1-2.3-6.7c1.8-3.6,3.5-7.2,5.2-10.7a4.966,4.966,0,0,1,9,4.2c-1.7,3.6-3.4,7.3-5.3,10.9A4.969,4.969,0,0,1,818.63,181.106Zm16.9-38.5a5.663,5.663,0,0,1-1.8-.3,4.952,4.952,0,0,1-2.9-6.4c1.4-3.8,2.8-7.5,4-11.1a5,5,0,0,1,9.5,3.1c-1.2,3.7-2.6,7.6-4.1,11.5A5.063,5.063,0,0,1,835.53,142.606Zm11.8-40.2a2.769,2.769,0,0,1-.9-.1,4.989,4.989,0,0,1-4-5.8c.8-3.9,1.3-7.8,1.7-11.5a4.98,4.98,0,0,1,9.9,1.1c-.4,3.9-1.1,8-1.9,12.2A4.915,4.915,0,0,1,847.33,102.406Zm.8-41.7a5.024,5.024,0,0,1-4.9-3.9,51.854,51.854,0,0,0-3.4-10.3,4.966,4.966,0,0,1,9-4.2,66.79,66.79,0,0,1,4.1,12.4,5.032,5.032,0,0,1-3.8,6A3.334,3.334,0,0,0,848.13,60.706Zm-24.4-32.4a5.852,5.852,0,0,1-2.2-.5,46.227,46.227,0,0,0-10.3-3.5,4.984,4.984,0,1,1,2.3-9.7,60.445,60.445,0,0,1,12.4,4.3,5,5,0,0,1,2.3,6.7A4.915,4.915,0,0,1,823.73,28.306Zm-53-3.3a4.992,4.992,0,0,1-.9-9.9q6.3-1.2,12.3-1.8a4.98,4.98,0,1,1,1.1,9.9c-3.7.4-7.5,1-11.5,1.7A3.751,3.751,0,0,1,770.73,25.006Z" fill="#383a48"/><circle cx="554.618" cy="72.44" r="58.198" transform="translate(297.001 568.909) rotate(-70.017)" fill="#f3f6e6"/><path d="M554.63,135.506a63.2,63.2,0,1,1,63.2-63.2A63.27,63.27,0,0,1,554.63,135.506Zm0-116.3a53.2,53.2,0,1,0,53.2,53.2A53.24,53.24,0,0,0,554.63,19.206Z" fill="#383a48"/>
            </g>
        </g>
    </g>
    
    <!-- ITEM 4 -->
    <g>
        <defs>
            <clipPath id="clip-path-id-viewbox-item-4">
                <rect x="0.0" y="0.0" width="660.2" height="363.9"/>
            </clipPath>
        </defs>
        <g transform="translate(438.0 400.0) rotate(0.0 76.5 42.5) scale(0.23174795516510147 0.23358065402583128)">
            <g clip-path="url(#clip-path-id-viewbox-item-4)" transform="translate(-0.0 -0.0)">
                

<g>
	<g>
		<path d="M601.2,5H59C29.2,5,5.1,29.2,5.1,59v245.9c0,29.8,24.2,54,54,54h542c29.8,0,54-24.2,54-54V59    C655.1,29.2,631.1,5,601.2,5z" style="fill:#f6e049;"/>
		<path d="M601.2,0H59C26.5,0,0,26.5,0,59v245.9c0.1,32.5,26.5,59,59,59h271h271.2c32.5,0,58.9-26.5,59-59V59    C660.2,26.5,633.8,0,601.2,0z M650.2,304.9c0,27-22,49-49,49H59c-27,0-49-22-49-49V59c0-27,22-49,49-49h542.2c27,0,49,22,49,49    V304.9z" style="fill:#383A48;"/>
	</g>
	<g>
		<g>
			<path d="M453.9,173.8c-28.1,0-50.9-22.8-50.9-50.9S425.8,72,453.9,72s50.9,22.8,50.9,50.9S482,173.8,453.9,173.8z      M453.9,82.1c-22.5,0-40.9,18.3-40.9,40.9s18.3,40.9,40.9,40.9s40.9-18.3,40.9-40.9S476.4,82.1,453.9,82.1z" style="fill:#383A48;"/>
		</g>
		<g>
			<path d="M518.6,173.8c-28.1,0-50.9-22.8-50.9-50.9S490.5,72,518.6,72s50.9,22.8,50.9,50.9S546.6,173.8,518.6,173.8z      M518.6,82.1c-22.5,0-40.9,18.3-40.9,40.9s18.3,40.9,40.9,40.9s40.9-18.3,40.9-40.9S541.1,82.1,518.6,82.1z" style="fill:#383A48;"/>
		</g>
	</g>
	<g>
		<g>
			<path d="M164.1,234.4h-62.7c-13.8,0-25.1-11.3-25.1-25.1v-62.7c0-13.8,11.3-25.1,25.1-25.1h62.7     c13.8,0,25.1,11.3,25.1,25.1v62.7C189.2,223.1,178,234.4,164.1,234.4z M101.5,131.5c-8.3,0-15.1,6.8-15.1,15.1v62.7     c0,8.3,6.8,15.1,15.1,15.1h62.7c8.3,0,15.1-6.8,15.1-15.1v-62.7c0-8.3-6.8-15.1-15.1-15.1H101.5z" style="fill:#383A48;"/>
		</g>
		<g>
			<path d="M184.2,201.9H81.4c-2.8,0-5-2.2-5-5s2.2-5,5-5h102.9c2.8,0,5,2.2,5,5S187,201.9,184.2,201.9z" style="fill:#383A48;"/>
		</g>
		<g>
			<path d="M107.3,201.9c-2.8,0-5-2.2-5-5v-70.4c0-2.8,2.2-5,5-5s5,2.2,5,5v70.4C112.3,199.6,110.1,201.9,107.3,201.9z" style="fill:#383A48;"/>
		</g>
		<g>
			<path d="M158.3,201.9c-2.8,0-5-2.2-5-5v-70.4c0-2.8,2.2-5,5-5s5,2.2,5,5v70.4C163.3,199.6,161.1,201.9,158.3,201.9z" style="fill:#383A48;"/>
		</g>
		<g>
			<path d="M107.3,157.4h-26c-2.8,0-5-2.2-5-5s2.2-5,5-5h26c2.8,0,5,2.2,5,5S110.1,157.4,107.3,157.4z" style="fill:#383A48;"/>
		</g>
		<g>
			<path d="M107.3,180.1h-26c-2.8,0-5-2.2-5-5s2.2-5,5-5h26c2.8,0,5,2.2,5,5S110.1,180.1,107.3,180.1z" style="fill:#383A48;"/>
		</g>
		<g>
			<path d="M184.2,157.4h-26c-2.8,0-5-2.2-5-5s2.2-5,5-5h26c2.8,0,5,2.2,5,5S187,157.4,184.2,157.4z" style="fill:#383A48;"/>
		</g>
		<g>
			<path d="M184.2,180.1h-26c-2.8,0-5-2.2-5-5s2.2-5,5-5h26c2.8,0,5,2.2,5,5S187,180.1,184.2,180.1z" style="fill:#383A48;"/>
		</g>
	</g>
	<g>
		<g>
			<path d="M177.9,299.9h-75.4c-2.8,0-5.1-2.3-5.1-5.1v-0.3c0-2.8,2.3-5.1,5.1-5.1h75.4c2.8,0,5.1,2.3,5.1,5.1v0.3     C183,297.6,180.7,299.9,177.9,299.9z" style="fill:#383A48;"/>
			<path d="M177.9,304.9h-75.4c-5.6,0-10.1-4.5-10.1-10.1v-0.3c0-5.6,4.5-10.1,10.1-10.1h75.4c5.6,0,10.1,4.5,10.1,10.1     v0.3C188,300.4,183.5,304.9,177.9,304.9z M102.4,294.4C102.3,294.4,102.3,294.4,102.4,294.4l-0.1,0.4c0,0.1,0,0.1,0.1,0.1h75.5     c0.1,0,0.1,0,0.1-0.1v-0.3c0-0.1,0-0.1-0.1-0.1L102.4,294.4L102.4,294.4z" style="fill:#383A48;"/>
		</g>
		<g>
			<path d="M304.4,299.9h-75.5c-2.8,0-5.1-2.3-5.1-5.1v-0.3c0-2.8,2.3-5.1,5.1-5.1h75.4c2.8,0,5.1,2.3,5.1,5.1v0.3     C309.5,297.6,307.2,299.9,304.4,299.9z" style="fill:#383A48;"/>
			<path d="M304.4,304.9h-75.5c-5.6,0-10.1-4.5-10.1-10.1v-0.3c0-5.6,4.5-10.1,10.1-10.1h75.4c5.6,0,10.1,4.5,10.1,10.1     v0.3C314.5,300.4,310,304.9,304.4,304.9z M228.9,294.4C228.8,294.4,228.8,294.4,228.9,294.4l-0.1,0.4c0,0.1,0,0.1,0.1,0.1h75.4     c0.1,0,0.1,0,0.1-0.1v-0.3c0-0.1,0-0.1-0.1-0.1L228.9,294.4L228.9,294.4z" style="fill:#383A48;"/>
		</g>
		<g>
			<path d="M430.9,299.9h-75.4c-2.8,0-5.1-2.3-5.1-5.1v-0.3c0-2.8,2.3-5.1,5.1-5.1h75.4c2.8,0,5.1,2.3,5.1,5.1v0.3     C436,297.6,433.8,299.9,430.9,299.9z" style="fill:#383A48;"/>
			<path d="M430.9,304.9h-75.4c-5.6,0-10.1-4.5-10.1-10.1v-0.3c0-5.6,4.5-10.1,10.1-10.1h75.4c5.6,0,10.1,4.5,10.1,10.1     v0.3C441,300.4,436.5,304.9,430.9,304.9z M355.4,294.4C355.3,294.4,355.3,294.4,355.4,294.4l-0.1,0.4c0,0.1,0,0.1,0.1,0.1h75.4     c0.1,0,0.1,0,0.1-0.1v-0.3c0-0.1,0-0.1-0.1-0.1L355.4,294.4L355.4,294.4z" style="fill:#383A48;"/>
		</g>
		<g>
			<path d="M557.4,299.9h-75.5c-2.8,0-5.1-2.3-5.1-5.1v-0.3c0-2.8,2.3-5.1,5.1-5.1h75.4c2.8,0,5.1,2.3,5.1,5.1v0.3     C562.5,297.6,560.2,299.9,557.4,299.9z" style="fill:#383A48;"/>
			<path d="M557.4,304.9h-75.5c-5.6,0-10.1-4.5-10.1-10.1v-0.3c0-5.6,4.5-10.1,10.1-10.1h75.4c5.6,0,10.1,4.5,10.1,10.1     v0.3C567.5,300.4,563,304.9,557.4,304.9z M481.9,294.4C481.8,294.4,481.8,294.4,481.9,294.4l-0.1,0.4c0,0.1,0,0.1,0.1,0.1h75.4     c0.1,0,0.1,0,0.1-0.1v-0.3c0-0.1,0-0.1-0.1-0.1L481.9,294.4L481.9,294.4z" style="fill:#383A48;"/>
		</g>
	</g>
</g>

            </g>
        </g>
    </g>
    
</svg>