<svg xmlns="http://www.w3.org/2000/svg" xmlns:xlink="http://www.w3.org/1999/xlink" version="1.1" viewBox="0 0 1500 1500" width="1500" height="1500">
<!--ITEM 1--><g><defs><clipPath id="clip-path-id-viewbox-item-1"><rect x="0.0" y="0.0" width="100.2" height="100.2"/></clipPath></defs><g transform="translate(242.0 256.0) rotate(8.640174672824301 513.0 513.0) scale(10.239520958083832 10.239520958083832)"><g clip-path="url(#clip-path-id-viewbox-item-1)" transform="translate(-0.0 -0.0)"><path d="M45.8,100c-27.6-2.4-48-26.7-45.6-54.3c0.2-2.1,0.5-4.1,0.9-6.2C2.7,31,7.4,23.9,7.4,23.9  c4.8-7.7,11.6-14,19.6-18.3C38.4,0,47.2-0.6,57.9,0.5C76.2,3.4,92,18.1,97.5,33.6C104.5,53.6,89.6,103.6,45.8,100z" style="fill:#00AEE0;"/>
<title>earth</title>
<path d="M97.5,33.7c9,26.3-5.1,54.8-31.3,63.8c-5.2,1.8-10.6,2.7-16.1,2.7c-1.5,0-2.9-0.1-4.3-0.2  c-3.6-4.6-3.5-17.1,6-19.4c8.6-2.2,11.1-12.5,8.6-19.8c-4.1-11.8,13.8-17.3,15-3.5c1.2,13.6,23.4,5,14.5-6.9  C83.7,42.1,97.5,33.7,97.5,33.7z" style="fill:#FFB400;"/>
<path d="M72.9,23.2c4.1,8.2,3.6,22.3-8.5,17.6c-6.2-2.4-4.2-8.8,0-8.9c3.7-0.2,4.5-5.4,0.9-7.9  C61.5,21.2,68.9,15,72.9,23.2z" style="fill:#FFB400;"/>
<path d="M50.1,0c2.6,0,5.3,0.1,7.8,0.5c-4,18.5-24.8,16.3-31,5.2C34,1.9,42,0,50.1,0z" style="fill:#FFB400;"/>
<path d="M35.6,32.9c13.3-6.1,17.3,11,7.2,12.7c-4.9,0.8-7.5,4-5.9,16.6c1.8,14.2-10.6,18.6-19.2,13.3  c-5-3.1-7.1-10.9,0-18.8c5.9-6.5-7.2-18.7-16.6-17.1C2.4,33,4.2,29,7.3,24.1C7.4,24.1,23.5,38.5,35.6,32.9z" style="fill:#FFB400;"/>
</g></g></g><!--ITEM 2--><g><defs><clipPath id="clip-path-id-viewbox-item-2"><rect x="0.0" y="0.0" width="329.9" height="201.0"/></clipPath></defs><g transform="translate(529.0 553.0) rotate(-90.00000000000001 324.0 197.5) scale(1.9642315853288876 1.9651741293532339)"><g clip-path="url(#clip-path-id-viewbox-item-2)" transform="translate(-0.0 -0.0)"><circle cx="301.6" cy="28.3" r="23.3" fill="#ffffff"/><path d="M301.6,56.6a28.3,28.3,0,1,1,28.3-28.3A28.338,28.338,0,0,1,301.6,56.6Zm0-46.6a18.3,18.3,0,1,0,18.3,18.3A18.309,18.309,0,0,0,301.6,10Z" fill="#04294f"/><path d="M28.3,177.7a4.834,4.834,0,0,1-4.5-2.8,5.088,5.088,0,0,1,2.3-6.7c3.7-1.8,7.5-3.5,11.2-5a4.977,4.977,0,0,1,3.8,9.2c-3.6,1.5-7.2,3.1-10.7,4.8A4.99,4.99,0,0,1,28.3,177.7Zm39.4-14.4a4.925,4.925,0,0,1-4.8-3.7,4.979,4.979,0,0,1,3.6-6.1q5.85-1.5,12-2.7a5,5,0,1,1,2,9.8c-3.8.8-7.7,1.7-11.4,2.6A7.6,7.6,0,0,1,67.7,163.3Zm41.3-6.8a5.008,5.008,0,0,1-.4-10c3.8-.3,7.8-.6,12.1-.8a4.876,4.876,0,0,1,5.2,4.7,5.1,5.1,0,0,1-4.7,5.3c-4.2.2-8.1.5-11.8.8Zm42-1.8a5,5,0,0,1-.2-10c4.6-.2,8.4-.4,11.8-.6a5.006,5.006,0,0,1,5.3,4.6,4.946,4.946,0,0,1-4.6,5.3c-3.5.3-7.4.4-12.1.6A.31.31,0,0,1,151,154.7Zm41.4-5.8a4.83,4.83,0,0,1-4.7-3.4,5.007,5.007,0,0,1,3.2-6.3,62.462,62.462,0,0,0,10.2-4.3,5.032,5.032,0,0,1,4.7,8.9,73.365,73.365,0,0,1-11.8,5A8.6,8.6,0,0,1,192.4,148.9Zm34-23.6a4.6,4.6,0,0,1-3.3-1.3,5.043,5.043,0,0,1-.4-7.1q3.6-4.05,7.5-9a4.99,4.99,0,0,1,7.9,6.1c-2.7,3.5-5.3,6.6-7.9,9.5A4.926,4.926,0,0,1,226.4,125.3Zm24.9-33.9a5.3,5.3,0,0,1-2.7-.8,4.9,4.9,0,0,1-1.4-6.9c1.6-2.5,3.2-4.9,4.8-7.3l1.8-2.7a4.993,4.993,0,1,1,8.4,5.4l-1.8,2.7c-1.6,2.4-3.2,4.9-4.8,7.4A5.262,5.262,0,0,1,251.3,91.4Zm23.6-34.8a4.719,4.719,0,0,1-3-1,4.96,4.96,0,0,1-.9-7c2.8-3.6,5.4-6.8,8-9.6a5.025,5.025,0,0,1,7.4,6.8c-2.4,2.6-4.8,5.5-7.4,8.9A5.3,5.3,0,0,1,274.9,56.6Z" fill="#04294f"/><circle cx="28.3" cy="172.7" r="23.3" fill="#00aee0"/><path d="M28.3,201a28.3,28.3,0,1,1,28.3-28.3A28.338,28.338,0,0,1,28.3,201Zm0-46.6a18.3,18.3,0,1,0,18.3,18.3A18.309,18.309,0,0,0,28.3,154.4Z" fill="#04294f"/></g></g></g><!--ITEM 3--><g><defs><clipPath id="clip-path-id-viewbox-item-3"><rect x="0.0" y="0.0" width="1218.09" height="775.931"/></clipPath></defs><g transform="translate(251.0 129.0) rotate(-24.523856995107224 346.0 220.0) scale(0.568102521160177 0.5670607309155067)"><g clip-path="url(#clip-path-id-viewbox-item-3)" transform="translate(-0.0 -0.0)"><g id="&#1057;&#1083;&#1086;&#1081;_114-i3">
	<g id="&#1057;&#1083;&#1086;&#1081;_137-i3">
	</g>
	<g id="&#1057;&#1083;&#1086;&#1081;_127-i3">
	</g>
	<g id="&#1057;&#1083;&#1086;&#1081;_128-i3">
	</g>
	<g id="&#1057;&#1083;&#1086;&#1081;_198-i3">
		<g id="&#1057;&#1083;&#1086;&#1081;_196-i3">
		</g>
		<g id="&#1057;&#1083;&#1086;&#1081;_255-i3">
		</g>
		<g id="&#1057;&#1083;&#1086;&#1081;_256-i3">
		</g>
		<g id="&#1057;&#1083;&#1086;&#1081;_259-i3">
		</g>
		<g id="&#1057;&#1083;&#1086;&#1081;_257-i3">
		</g>
		<g id="&#1057;&#1083;&#1086;&#1081;_139-i3">
		</g>
		<g id="&#1057;&#1083;&#1086;&#1081;_101-i3">
		</g>
		<g id="&#1057;&#1083;&#1086;&#1081;_106-i3">
		</g>
		<g id="&#1057;&#1083;&#1086;&#1081;_141-i3">
		</g>
	</g>
</g>
<g id="&#1057;&#1083;&#1086;&#1081;_199-i3">
	<g id="&#1057;&#1083;&#1086;&#1081;_230-i3">
	</g>
	<g id="&#1057;&#1083;&#1086;&#1081;_200-i3">
	</g>
	<g id="&#1057;&#1083;&#1086;&#1081;_201-i3">
	</g>
	<g id="&#1057;&#1083;&#1086;&#1081;_108-i3">
	</g>
	<g id="&#1057;&#1083;&#1086;&#1081;_220-i3">
		<g id="&#1057;&#1083;&#1086;&#1081;_221-i3">
		</g>
	</g>
	<g id="&#1057;&#1083;&#1086;&#1081;_222-i3">
	</g>
	<g id="&#1057;&#1083;&#1086;&#1081;_208-i3" style="display:none;">
	</g>
	<g id="&#1057;&#1083;&#1086;&#1081;_203-i3">
		<g id="&#1057;&#1083;&#1086;&#1081;_207-i3">
		</g>
		<g id="&#1057;&#1083;&#1086;&#1081;_211-i3">
		</g>
		<g id="&#1057;&#1083;&#1086;&#1081;_100-i3">
		</g>
	</g>
	<g id="&#1057;&#1083;&#1086;&#1081;_209-i3">
	</g>
	<g id="&#1057;&#1083;&#1086;&#1081;_210-i3">
	</g>
	<g id="&#1057;&#1083;&#1086;&#1081;_212-i3">
		<g id="&#1057;&#1083;&#1086;&#1081;_219-i3">
		</g>
	</g>
</g>
<g id="&#1057;&#1083;&#1086;&#1081;_149-i3">
	<g id="&#1057;&#1083;&#1086;&#1081;_170-i3">
	</g>
	<g id="&#1057;&#1083;&#1086;&#1081;_171-i3">
	</g>
	<g id="&#1057;&#1083;&#1086;&#1081;_225-i3">
	</g>
	<g id="&#1057;&#1083;&#1086;&#1081;_158-i3">
		<g id="&#1057;&#1083;&#1086;&#1081;_159-i3">
		</g>
		<g id="&#1057;&#1083;&#1086;&#1081;_229-i3">
		</g>
	</g>
	<g id="&#1057;&#1083;&#1086;&#1081;_228-i3">
	</g>
	<g id="&#1057;&#1083;&#1086;&#1081;_224-i3">
	</g>
	<g id="&#1057;&#1083;&#1086;&#1081;_155-i3">
	</g>
	<g id="&#1057;&#1083;&#1086;&#1081;_164-i3">
		<g id="&#1057;&#1083;&#1086;&#1081;_165-i3">
		</g>
		<g id="&#1057;&#1083;&#1086;&#1081;_166-i3">
		</g>
		<g id="&#1057;&#1083;&#1086;&#1081;_167-i3">
		</g>
		<g id="&#1057;&#1083;&#1086;&#1081;_168-i3">
		</g>
	</g>
	<g id="&#1057;&#1083;&#1086;&#1081;_226-i3">
	</g>
</g>
<g id="&#1057;&#1083;&#1086;&#1081;_172-i3">
	<g id="&#1057;&#1083;&#1086;&#1081;_190-i3">
	</g>
	<g id="&#1057;&#1083;&#1086;&#1081;_111-i3">
	</g>
	<g id="&#1057;&#1083;&#1086;&#1081;_192-i3">
		<g id="&#1057;&#1083;&#1086;&#1081;_112-i3">
		</g>
	</g>
	<g id="&#1057;&#1083;&#1086;&#1081;_174-i3">
		<g id="&#1057;&#1083;&#1086;&#1081;_180-i3">
		</g>
	</g>
	<g id="&#1057;&#1083;&#1086;&#1081;_194-i3">
	</g>
	<g id="&#1057;&#1083;&#1086;&#1081;_184-i3">
	</g>
	<g id="&#1057;&#1083;&#1086;&#1081;_186-i3">
	</g>
</g>
<g id="&#1057;&#1083;&#1086;&#1081;_175-i3">
	<g id="&#1057;&#1083;&#1086;&#1081;_98-i3">
		<g id="&#1057;&#1083;&#1086;&#1081;_99-i3">
		</g>
		<g id="&#1057;&#1083;&#1086;&#1081;_102-i3">
		</g>
		<g id="&#1057;&#1083;&#1086;&#1081;_103-i3">
		</g>
		<g id="&#1057;&#1083;&#1086;&#1081;_104-i3">
		</g>
	</g>
	<g id="&#1057;&#1083;&#1086;&#1081;_89-i3">
		<g id="&#1057;&#1083;&#1086;&#1081;_95-i3">
		</g>
		<g id="&#1057;&#1083;&#1086;&#1081;_92-i3">
			<g id="&#1057;&#1083;&#1086;&#1081;_93-i3">
			</g>
			<g id="&#1057;&#1083;&#1086;&#1081;_94-i3">
			</g>
		</g>
		<g id="&#1057;&#1083;&#1086;&#1081;_96-i3">
		</g>
		<g id="&#1057;&#1083;&#1086;&#1081;_97-i3">
		</g>
	</g>
</g>
<g id="&#1057;&#1083;&#1086;&#1081;_77-i3">
	<g id="&#1057;&#1083;&#1086;&#1081;_79-i3">
	</g>
	<g id="&#1057;&#1083;&#1086;&#1081;_81-i3">
	</g>
	<g id="&#1057;&#1083;&#1086;&#1081;_86-i3">
	</g>
	<g id="&#1057;&#1083;&#1086;&#1081;_82-i3">
	</g>
	<g id="&#1057;&#1083;&#1086;&#1081;_88-i3">
	</g>
</g>
<g id="&#1057;&#1083;&#1086;&#1081;_53-i3">
	<g id="&#1057;&#1083;&#1086;&#1081;_58-i3">
	</g>
	<g id="&#1057;&#1083;&#1086;&#1081;_61-i3">
	</g>
	<g id="&#1057;&#1083;&#1086;&#1081;_62-i3">
	</g>
	<g id="&#1057;&#1083;&#1086;&#1081;_65-i3">
	</g>
	<g id="&#1057;&#1083;&#1086;&#1081;_68-i3">
	</g>
</g>
<g id="&#1057;&#1083;&#1086;&#1081;_69-i3">
	<g id="&#1057;&#1083;&#1086;&#1081;_75-i3">
	</g>
	<g id="&#1057;&#1083;&#1086;&#1081;_76-i3">
	</g>
</g>
<g id="&#1057;&#1083;&#1086;&#1081;_85-i3">
	<g id="&#1057;&#1083;&#1086;&#1081;_87-i3">
	</g>
</g>
<g id="&#1057;&#1083;&#1086;&#1081;_90-i3">
	<g id="&#1057;&#1083;&#1086;&#1081;_91-i3">
	</g>
</g>
<g id="&#1057;&#1083;&#1086;&#1081;_105-i3">
	<g id="&#1057;&#1083;&#1086;&#1081;_107-i3">
	</g>
</g>
<g id="&#1057;&#1083;&#1086;&#1081;_109-i3">
	<g id="&#1057;&#1083;&#1086;&#1081;_110-i3">
	</g>
</g>
<g id="&#1057;&#1083;&#1086;&#1081;_113-i3">
	<g id="&#1057;&#1083;&#1086;&#1081;_115-i3">
	</g>
</g>
<g id="&#1057;&#1083;&#1086;&#1081;_116-i3">
	<g id="&#1057;&#1083;&#1086;&#1081;_117-i3">
	</g>
</g>
<g id="&#1057;&#1083;&#1086;&#1081;_118-i3">
	<g id="&#1057;&#1083;&#1086;&#1081;_119-i3">
	</g>
</g>
<g id="&#1057;&#1083;&#1086;&#1081;_120-i3">
	<g id="&#1057;&#1083;&#1086;&#1081;_121-i3">
	</g>
</g>
<g id="&#1057;&#1083;&#1086;&#1081;_122-i3">
	<g id="&#1057;&#1083;&#1086;&#1081;_123-i3">
		<g id="&#1057;&#1083;&#1086;&#1081;_124-i3">
			<g id="&#1057;&#1083;&#1086;&#1081;_125-i3">
			</g>
		</g>
		<g id="&#1057;&#1083;&#1086;&#1081;_126-i3">
		</g>
		<g id="&#1057;&#1083;&#1086;&#1081;_129-i3">
		</g>
	</g>
</g>
<g id="&#1057;&#1083;&#1086;&#1081;_130-i3">
	<g id="&#1057;&#1083;&#1086;&#1081;_131-i3">
	</g>
</g>
<g id="&#1057;&#1083;&#1086;&#1081;_132-i3">
	<g id="&#1057;&#1083;&#1086;&#1081;_133-i3">
	</g>
</g>
<g id="&#1057;&#1083;&#1086;&#1081;_134-i3">
	<g id="&#1057;&#1083;&#1086;&#1081;_135-i3">
	</g>
</g>
<g id="&#1057;&#1083;&#1086;&#1081;_136-i3">
	<g id="&#1057;&#1083;&#1086;&#1081;_138-i3">
	</g>
</g>
<g id="&#1057;&#1083;&#1086;&#1081;_140-i3">
	<g id="&#1057;&#1083;&#1086;&#1081;_142-i3">
	</g>
</g>
<g id="&#1057;&#1083;&#1086;&#1081;_143-i3">
	<g id="&#1057;&#1083;&#1086;&#1081;_144-i3">
	</g>
</g>
<g id="&#1057;&#1083;&#1086;&#1081;_145-i3">
	<g id="&#1057;&#1083;&#1086;&#1081;_146-i3">
	</g>
</g>
<g id="&#1057;&#1083;&#1086;&#1081;_147-i3">
	<g id="&#1057;&#1083;&#1086;&#1081;_148-i3">
	</g>
</g>
<g id="&#1057;&#1083;&#1086;&#1081;_150-i3">
	<g id="&#1057;&#1083;&#1086;&#1081;_151-i3">
		<g>
			<path d="M35.813,509.546c5.575,18.956,17.841,54.638,64.673,71.364s80.284-5.575,103.7-28.991     c40.886-40.886-49.062-167.258-49.062-167.258l-66.903-5.575c0,0-51.293,51.293-52.408,59.098s0,60.213,0,60.213" style="fill:#04294F;"/>
			<path d="M600.031,711.371l-4.46-1.115c0,0,25.646,46.832,69.133,60.213c30.759,9.464,86.974,13.381,113.736-46.832     c30.808-69.319-72.479-191.789-72.479-191.789l-81.399,14.496c0,0-52.408,40.142-51.292,46.832     c1.115,6.69,4.46,72.479,7.805,72.479s12.266,41.257,12.266,41.257" style="fill:#04294F;"/>
			
				<ellipse transform="matrix(0.9521 -0.3058 0.3058 0.9521 -172.406 241.4788)" cx="684.568" cy="671.039" rx="46.698" ry="57.311" style="fill:#00AEE0;"/>
			
				<ellipse transform="matrix(0.9891 -0.1475 0.1475 0.9891 -71.6044 22.4389)" cx="115.539" cy="494.163" rx="40.7" ry="49.949" style="fill:#00AEE0;"/>
			<path d="M953.503,298.801c5.575-3.345,17.841-24.531,27.876-41.257c10.036-16.726,22.301-18.956,36.797-18.956     c14.496,0,16.726,20.071,16.726,28.991s-2.23,23.416-31.222,31.222s-41.257,15.611-43.487,15.611     S953.503,298.801,953.503,298.801z" style="fill:#04294F;"/>
			<path d="M138.398,56.834c24.637-13.043,44.602-20.071,103.7-34.567c76.038-18.651,224.126-39.027,359.048,0     s254.233,107.045,318.906,202.94s35.498,86.614,119.311,118.196c76.939,28.991,111.649,52.622,144.957,102.585     c28.991,43.487,39.027,85.859,31.221,117.081c-7.805,31.222-54.77,91.537-140.497,126.001     c-139.105,55.924-267.557,42.514-297.72,41.257c-8.614-0.359-14.687-0.487-18.961-0.495c-5.244-0.01-4.858-4.312-4.455-9.54     c1.899-24.607,7.82-86.108-33.452-111.505c-43.487-26.761-93.665-15.611-108.16,22.301c-8.842,23.125-10.036,49.062,2.23,84.744     c3.625,10.545-216.321-57.983-264.268-75.824c-41.008-15.259-144.005-54.171-172.96-65.115     c-4.221-1.595-6.493-6.179-5.187-10.498c4.232-13.995,11.862-44.774,6.428-70.459c-12.266-57.983-37.912-74.709-76.939-68.018     c-39.027,6.69-50.648,34.687-55.753,60.213c-1.426,7.129-1.636,12.637-1.408,16.611c0.212,3.69-3.651,6.224-6.983,4.625     c-10.522-5.051-27.918-16.697-33.981-40.192c-8.92-34.567,1.115-123.771,10.035-152.763s8.92-113.736,39.027-173.949     C81.176,83.188,119.442,66.869,138.398,56.834z" style="fill:#e84e27;"/>
			<path d="M521.977,204.021c-3.315-14.588,50.177-47.947,119.311-69.133s102.183-13.381,127.116-13.381     c12.266,0,73.594,37.912,103.7,70.248c27.205,29.221,64.673,86.974,72.479,110.39c7.805,23.416,2.23,41.257-83.629,72.479     c-87.23,31.72-206.285,50.177-224.126,44.602c-17.841-5.575-33.972-53.394-66.903-110.39     C540.933,258.659,527.552,228.552,521.977,204.021z" style="fill:#04294F;"/>
			<path d="M237.638,143.808c-5.185,11.925-22.301,61.328-24.531,102.585c-2.228,41.212,0,60.213,74.709,91.434     c44.192,18.468,197.365,65.788,224.126,50.177c26.761-15.611,3.345-84.744-13.381-130.461     c-16.726-45.717-36.797-81.399-156.108-118.196C272.16,117.669,248.788,118.162,237.638,143.808z" style="fill:#04294F;"/>
			<path d="M128.362,107.011c-10.006,0.77-21.186-3.345-25.646,16.726s-18.956,88.089-20.071,94.78     c-1.115,6.69-2.23,12.266,12.266,21.186c14.496,8.92,41.257,23.416,47.947,25.646c6.69,2.23,16.726,7.805,22.301-14.496     s26.761-107.045,27.876-114.851c1.115-7.805,0-12.266-12.266-16.726C168.504,114.816,142.858,105.896,128.362,107.011z" style="fill:#04294F;"/>
			<path d="M562.199,398.214c-12.431-5.197-29.187-23.386-43.158-23.335c-13.972,0.052-40.854-1.807-47.138,7.471     c-6.284,9.278-14.399,28.975,0.845,35.95s54.825,1.755,65.854,0.113c11.029-1.643,23.118-5.247,25.08-4.186     C565.644,415.287,572.538,402.536,562.199,398.214z" style="fill:#04294F;"/>
			<ellipse cx="138.955" cy="316.641" rx="23.974" ry="26.761" style="fill:#04294F;"/>
			<path d="M300.882,390.957l-49.369-15.659c-3.376-1.071-5.263-4.71-4.192-8.086l1.5-4.728     c1.071-3.376,4.71-5.263,8.086-4.192l49.369,15.659c3.376,1.071,5.263,4.71,4.192,8.086l-1.5,4.728     C307.897,390.141,304.259,392.027,300.882,390.957z" style="fill:#04294F;"/>
			<path d="M816.433,523.876c21.942-10.565,59.098,36.797,72.479,54.638s8.92,18.956-13.381,26.761     c-22.301,7.805-27.876,10.035-47.947-14.496S786.327,538.372,816.433,523.876z" style="fill:#FFB400;"/>
			<path d="M1116.095,420.342c11.28-12.147,52.408,47.947,59.098,57.983s-1.115,16.726-11.151,23.416     c-10.036,6.69-14.496-1.115-32.337-27.876C1113.865,447.103,1101.599,435.952,1116.095,420.342z" style="fill:#FFB400;"/>
			<g>
				<path d="M976.983,507.735c0.876-0.029,1.8-0.003,2.651-0.234c0.764-0.207,1.507-0.563,2.267-0.8      c1.454-0.454,2.925-0.855,4.346-1.403c2.938-1.133,5.84-2.361,8.781-3.488c5.894-2.259,11.807-4.461,17.782-6.495      c-1.9-2.472-3.801-4.944-5.701-7.416c-1.965,3.895-3.786,7.788-5.417,11.846c-1.54,3.831-2.858,7.737-4.032,11.696      c-1.15,3.88-2.154,7.803-3.009,11.758c-0.427,1.977-0.833,3.963-1.166,5.958c-0.389,2.333-0.928,4.814-0.915,7.175      c0.011,2.162,1.572,4.434,3.754,4.931c2.025,0.461,4.865-0.243,5.775-2.35c0.157-0.363,0.325-0.706,0.514-1.052      c0.558-1.018-0.604,0.641,0.178-0.213c0.523-0.572,1.048-1.131,1.626-1.649c0.289-0.259,0.589-0.505,0.888-0.753      c-0.511,0.423-0.324,0.245,0.092-0.052c0.587-0.42,1.191-0.817,1.808-1.192c2.829-1.722,5.893-3.06,8.918-4.393      c0.808-0.356,1.619-0.705,2.43-1.053c-0.806,0.346,0.592-0.247,0.608-0.254c0.445-0.185,0.891-0.368,1.337-0.549      c1.711-0.697,3.438-1.352,5.158-2.025c1.95-0.763,3.953-1.446,5.864-2.304c0.863-0.387,1.731-0.781,2.582-1.194      c0.854-0.415,1.593-0.994,2.43-1.437c-1.866-1.435-3.733-2.87-5.599-4.304c-0.526,2.097-1.451,4.076-2.183,6.11      c-0.683,1.898-1.328,3.814-1.958,5.731c-1.287,3.917-2.368,7.902-3.235,11.933c-0.893,4.15-1.597,8.331-2.093,12.547      c-0.475,4.037-1.114,8.748,0.371,12.614c0.511,1.331,2.801,2.154,3.518,0.46c0.476-1.124,0.878-2.083,1.038-3.305      c0.122-0.933,0.263-1.864,0.379-2.797c0.251-2.012,0.454-4.03,0.688-6.045c0.462-3.973,1.156-7.934,2.079-11.826      c0.933-3.937,2.071-7.825,3.407-11.644c1.274-3.642,2.692-7.696,4.955-10.841c1.579-2.194-0.504-6.099-3.291-5.735      c-2.203,0.288-4.345,0.426-6.516,0.992c-1.848,0.481-3.683,1.167-5.475,1.824c-3.937,1.444-7.817,3.064-11.658,4.743      c-3.08,1.346-6.187,2.703-9.058,4.463c-1.575,0.966-3.089,2.076-4.477,3.295c-0.629,0.552-1.223,1.144-1.769,1.778      c-0.349,0.404-0.671,0.829-0.997,1.251c-0.488,0.635-0.517,0.67-0.087,0.105c-0.172,0.188-0.34,0.38-0.502,0.576      c2.849,1.658,5.698,3.317,8.546,4.975c0.575-1.913,0.796-3.972,1.174-5.935c0.368-1.91,0.745-3.817,1.169-5.716      c0.866-3.873,1.874-7.714,3.025-11.512c1.128-3.723,2.405-7.4,3.737-11.055c0.692-1.898,1.42-3.783,2.183-5.654      c0.176-0.432,0.355-0.862,0.534-1.292c-0.44,1.06,0.159-0.365,0.2-0.46c0.292-0.685,0.629-1.401,0.838-2.127      c0.213-0.551,0.205-0.581-0.023-0.087c0.124-0.286,0.249-0.572,0.375-0.858c0.843-1.92,0.963-3.85-0.395-5.607      c-1.122-1.453-3.456-2.552-5.306-1.809c-6.177,2.48-12.327,5.058-18.355,7.882c-2.853,1.337-5.713,2.676-8.516,4.115      c-1.441,0.74-2.779,1.644-4.138,2.522c-1.499,0.968-2.823,1.762-3.999,3.134C973.717,504.867,974.546,507.816,976.983,507.735      L976.983,507.735z" style="fill:#FFB400;"/>
			</g>
			<g>
				<path d="M874.373,631.653c10.106,1.734,20.555,2.143,30.801,2.076c10.167-0.067,20.358-0.433,30.482-1.365      c20.602-1.897,41.032-5.298,61.108-10.297c19.694-4.904,39.033-11.234,57.816-18.922c9.732-3.984,19.312-8.357,28.713-13.068      c9.12-4.57,17.943-9.61,26.661-14.904c8.639-5.246,17.148-10.749,25.258-16.786c4.282-3.188,8.529-6.391,12.447-10.024      c3.713-3.443,7.711-6.584,11.428-10.031c1.861-1.726,3.705-3.471,5.533-5.232c1.06-1.02,1.133-2.78,0.233-3.911      c-0.837-1.051-2.639-1.671-3.842-0.767c-4.042,3.038-8.136,6.012-12.253,8.946c-1.99,1.418-3.966,2.919-6.057,4.183      c-2.17,1.311-4.319,2.647-6.409,4.081c-8.315,5.706-16.791,11.231-25.404,16.477c-8.578,5.224-17.387,9.97-26.283,14.624      c-8.957,4.685-18.084,9.045-27.357,13.07c-1.095,0.476-2.193,0.945-3.292,1.413c-0.212,0.09-1.005,0.418,0.034-0.014      c-0.294,0.122-0.587,0.246-0.881,0.369c-0.588,0.246-1.175,0.493-1.763,0.738c-2.352,0.981-4.713,1.941-7.082,2.879      c-4.739,1.876-9.511,3.667-14.314,5.37c-9.455,3.353-19.029,6.37-28.698,9.04c-9.742,2.691-19.582,5.031-29.493,7.012      c-4.913,0.982-9.832,1.925-14.772,2.761c-2.508,0.424-5.019,0.826-7.535,1.204c-1.179,0.177-2.358,0.349-3.539,0.516      c-0.551,0.078-1.102,0.155-1.653,0.23c-0.315,0.043-0.63,0.087-0.945,0.129c0.977-0.131-0.118,0.014-0.307,0.039      c-10.027,1.312-20.112,2.371-30.203,3.04c-10.019,0.664-20.044,0.943-30.073,1.366c-2.555,0.108-5.09,0.217-7.637,0.407      c-1.348,0.1-2.509,0.959-2.676,2.363C872.275,629.893,873.02,631.42,874.373,631.653L874.373,631.653z" style="fill:#04294F;"/>
			</g>
			<g>
				<path d="M742.97,575.058c7.818,5.153,14.609,11.592,21.043,18.357c1.655,1.741,3.258,3.531,4.808,5.366      c0.69,0.817,1.37,1.643,2.039,2.478c0.167,0.209,0.334,0.418,0.5,0.628c0.797,1.009-0.267-0.371,0.182,0.246      c0.352,0.483,0.703,0.966,1.049,1.452c2.796,3.922,5.611,7.788,8.109,11.913c2.425,4.006,4.635,8.14,6.632,12.376      c0.484,1.028,0.973,2.053,1.443,3.088c0.249,0.547,0.494,1.096,0.735,1.646c0.107,0.245,0.214,0.489,0.32,0.735      c0.025,0.057,0.526,1.262,0.187,0.434c1.021,2.489,1.998,4.993,2.892,7.531c1.812,5.143,3.335,10.386,4.584,15.693      c1.236,5.249,2.07,10.548,2.982,15.857c0.13,0.755,0.261,1.509,0.384,2.265c0.049,0.302,0.095,0.605,0.145,0.907      c0.183,1.092-0.032-0.42,0.082,0.59c0.174,1.533,0.345,3.065,0.488,4.602c0.285,3.072,0.491,6.151,0.622,9.233      c0.13,3.079,0.225,6.165,0.262,9.247c0.017,1.463,0.018,2.925,0.002,4.388c-0.019,1.786,0.328,3.521,0.592,5.282      c0.217,1.446,1.912,2.489,3.269,2.489c1.496,0,2.861-1.055,3.269-2.489c1.573-5.532,1.575-11.566,1.537-17.299      c-0.037-5.553-0.398-11.07-0.859-16.601c-0.95-11.388-3.326-22.616-6.904-33.469c-6.409-19.444-16.838-37.286-31.303-51.833      c-1.927-1.937-3.918-3.81-5.973-5.611c-2.282-2.001-4.301-3.33-6.762-5.147c-4.364-3.222-9.149-5.945-13.958-8.46      C742.648,569.531,740.417,573.375,742.97,575.058L742.97,575.058z" style="fill:#04294F;"/>
			</g>
			<g>
				<path d="M503.026,400.193c-2.272,55.355-5.24,110.727-9.569,165.961c-1.332,16.997-2.797,33.993-4.762,50.93      c-0.852,7.342-1.583,14.265-6.343,20.277c-6.013,7.595-15.458,11.14-24.963,11.155c-11.718,0.018-23.751-4.461-34.773-8.027      c-13.926-4.506-27.695-9.499-41.407-14.616c-51.711-19.298-102.287-41.326-153.617-61.557c-0.672-0.265-1.437-0.714-2.153-0.833      c-2.253-0.374,1.416,0.974,0.886,1.388c0.435-0.339,0.842-3.989,1.086-4.855c0.897-3.178,1.907-6.324,2.833-9.493      c6.122-20.942,9.292-42.862,6.938-64.668c-2.206-20.432-10.569-38.133-25.122-52.612c-1.383-1.376-2.786-2.746-4.242-4.046      c-1.481-1.323-0.804-0.562-1.283-1.29c-0.689-1.046-0.793-1.642-1.193-3.132c-1.023-3.806-1.278-7.818-1.475-11.736      c-1.439-28.65,2.368-57.872,5.754-86.263c3.177-26.631,6.746-53.327,11.782-79.68c0.546-2.858,1.09-5.727,1.829-8.542      c1.162-4.421-5.682-6.307-6.844-1.887c-2.094,7.969-3.267,16.239-4.606,24.358c-2.361,14.323-4.451,28.69-6.38,43.077      c-4.19,31.238-8.121,62.795-8.773,94.34c-0.196,9.488-0.753,20.231,2.207,29.399c1.509,4.673,4.773,7.008,8.205,10.422      c6.872,6.837,12.767,14.539,16.753,23.422c9.905,22.078,8.464,49.022,3.426,72.159c-1.714,7.872-4.099,15.53-6.353,23.255      c-0.969,3.32-3.143,8.775-0.231,11.732c1.196,1.214,3.493,1.71,5.069,2.331c3.065,1.208,6.109,2.469,9.156,3.721      c10.698,4.395,21.38,8.827,32.075,13.227c31.063,12.78,62.191,25.416,93.546,37.467c26.299,10.107,52.931,20.877,80.341,27.644      c16.446,4.06,34.987,3.202,46.548-10.84c9.744-11.835,9.006-29.633,10.409-44.161c6.227-64.477,9.394-129.312,12.174-194.019      c0.057-1.335,0.115-2.671,0.169-4.006C510.31,395.626,503.213,395.634,503.026,400.193L503.026,400.193z" style="fill:#04294F;"/>
			</g>
			<ellipse cx="115.474" cy="491.727" rx="17.923" ry="23.044" style="fill:#04294F;"/>
			
				<ellipse transform="matrix(0.9891 -0.1475 0.1475 0.9891 -91.0228 108.1846)" cx="684.151" cy="668.005" rx="21.047" ry="27.061" style="fill:#04294F;"/>
			<g>
				<path d="M817.636,534.503c3.155,2.656,6.766,3.971,10.334,5.983c3.959,2.233,7.547,5.003,11.145,7.763      c6.955,5.336,11.649,12.956,18.31,18.406c1.55,1.268,4.355,0.58,4.259-1.764c-0.385-9.465-7.979-18.448-14.752-24.403      c-6.56-5.768-17.881-12.808-26.964-11.616C817.483,529.197,815.181,532.436,817.636,534.503L817.636,534.503z" style="fill:#FFFFFF;"/>
			</g>
			<g>
				<path d="M1126.119,432.891c-0.377,2.958,2.156,5.039,3.836,7.237c2.427,3.177,5.343,5.915,7.763,9.104      c2.25,2.965,4.257,6.091,6.251,9.23c2.122,3.341,4.708,6.345,6.57,9.828c2.068,3.869,7.845,1.158,6.891-2.905      c-1.168-4.978-1.99-9.458-4.532-13.974c-2.422-4.304-5.587-8.255-8.981-11.827      C1141.972,437.537,1127.175,424.612,1126.119,432.891L1126.119,432.891z" style="fill:#FFFFFF;"/>
			</g>
			<g>
				<path d="M478.03,385.607c5.409,1.229,11.985-0.734,17.595-0.735c6.42-0.001,12.56,1.856,18.895,2.127      c2.39,0.102,3.058-3.172,1.175-4.34c-5.694-3.533-13.517-4.138-20.071-4.181c-5.701-0.037-13.957,0.329-18.317,4.395      C476.43,383.693,476.845,385.337,478.03,385.607L478.03,385.607z" style="fill:#FFFFFF;"/>
			</g>
			<g>
				<path d="M988.954,263.872c3.8-0.469,6.548-3.946,9.468-6.279c3.026-2.418,6.735-4.144,9.56-6.752      c1.601-1.478,0.192-3.662-1.607-3.881c-4.197-0.51-9.014,1.707-12.524,3.809c-3.323,1.99-8.168,5.679-8.113,9.887      C985.758,262.235,987.203,264.088,988.954,263.872L988.954,263.872z" style="fill:#FFFFFF;"/>
			</g>
			<g>
				<path d="M720.318,590.878c15.38,9.528,28.225,22.893,37.659,38.279c4.595,7.495,8.338,15.427,11.252,23.716      c3.061,8.71,4.54,17.358,6.36,26.374c0.445,2.203,3.358,1.383,3.594-0.486c2.332-18.493-4.465-39.082-13.967-54.715      c-10.056-16.546-24.517-29.822-41.847-38.385C719.903,583.947,716.98,588.81,720.318,590.878L720.318,590.878z" style="fill:#FFFFFF;"/>
			</g>
			<g>
				<path d="M149.451,413.537c5.755,4.53,12.08,7.955,17.508,12.975c5.366,4.962,9.485,10.845,12.82,17.317      c3.8,7.375,6.449,15.093,8.19,23.194c1.968,9.154,2.189,18.132,2.945,27.407c0.401,4.92,7.238,4.921,7.652,0      c1.542-18.354-0.676-40.362-9.904-56.68c-7.128-12.604-21.966-29.038-38.015-27.099      C149.4,410.801,148.155,412.517,149.451,413.537L149.451,413.537z" style="fill:#FFFFFF;"/>
			</g>
			<g>
				<path d="M1015.061,350.303c10.872,6.661,24.055,9.925,36.047,14.234c12.54,4.505,24.942,9.538,36.93,15.367      c21.266,10.341,42.011,23.385,59.394,39.5c1.506,1.396,4.194-0.427,2.961-2.285c-13.851-20.868-33.558-35.638-56.019-46.384      c-12.28-5.875-25.01-10.566-37.965-14.712c-12.895-4.127-26.787-9.034-40.354-9.388      C1014.054,346.583,1013.442,349.311,1015.061,350.303L1015.061,350.303z" style="fill:#FFFFFF;"/>
			</g>
			<g>
				<path d="M153.464,79.005c10.295,2.292,21.192,2.151,31.682,3.128c10.673,0.994,21.363,2,32.005,3.307      c21.678,2.664,43.24,6.626,64.519,11.539c42.426,9.795,83.747,23.991,123.305,42.157c22.214,10.201,43.872,21.382,65.585,32.605      c3.467,1.792,6.002-2.874,2.994-5.123c-35.451-26.5-76.228-45.248-117.766-60.043C314.125,91.736,270.84,81.99,226.897,77.101      c-12.35-1.374-24.867-2.695-37.298-2.889c-11.834-0.184-24.517-1.15-36.135,1.37C151.767,75.951,151.777,78.629,153.464,79.005      L153.464,79.005z" style="fill:#FFFFFF;"/>
			</g>
			<g>
				<path d="M523.8,274.884c7.581,17.327,15.09,34.718,22.216,52.238c3.515,8.643,6.749,17.386,9.915,26.162      c3.023,8.382,5.455,17.153,9.588,25.073c1.127,2.16,4.789,1.198,4.65-1.259c-0.54-9.509-3.616-18.857-6.426-27.898      c-2.759-8.877-5.953-17.665-9.418-26.29c-7.14-17.773-15.73-34.534-26.31-50.49C526.242,269.75,522.56,272.049,523.8,274.884      L523.8,274.884z" style="fill:#FFFFFF;"/>
			</g>
			<g>
				<path d="M765.686,140.589c26.784,15.95,53.038,32.537,76.623,53.061c11.891,10.347,23.185,21.463,33.698,33.208      c10.415,11.635,19.484,24.136,28.863,36.581c10.69,14.184,18.916,29.737,28.117,44.864c1.578,2.595,6.116,0.933,5.067-2.136      c-5.185-15.166-13.344-29.305-21.473-43.044c-8.155-13.784-17.642-26.577-28.062-38.756      c-20.994-24.537-45.46-46.017-72.658-63.435c-15.24-9.76-31.484-18.144-48.615-24.042      C765.037,136.13,763.754,139.439,765.686,140.589L765.686,140.589z" style="fill:#FFFFFF;"/>
			</g>
			<g>
				<path d="M138.897,285.328c6.175,2.832,12.256,3.706,17.501,8.543c5.269,4.86,8.113,10.995,9.779,17.846      c0.718,2.951,4.583,1.939,4.901-0.663c1.066-8.719-3.607-17.239-10.224-22.636c-5.542-4.521-14.894-8.99-21.957-5.435      C138.034,283.416,137.984,284.91,138.897,285.328L138.897,285.328z" style="fill:#FFFFFF;"/>
			</g>
			<g>
				<path d="M649.54,442.159c3.962,3.478,9.152,5.007,13.937,7.009c5.231,2.189,10.371,4.629,15.421,7.208      c10.052,5.134,19.927,10.726,29.238,17.115c18.492,12.689,35.279,28.57,50.524,44.935c2.952,3.169,8.164-0.91,5.965-4.603      c-12.422-20.859-29.339-37.281-49.418-50.833c-9.844-6.644-20.15-12.421-31.103-17.013c-5.43-2.276-10.942-4.292-16.564-6.043      c-5.393-1.68-11.022-3.556-16.716-2.642C648.691,437.636,647.994,440.802,649.54,442.159L649.54,442.159z" style="fill:#FFFFFF;"/>
			</g>
			<g>
				<path d="M464.326,11.198c5.027,3.53,13.673,2.251,19.573,2.854c7.672,0.784,15.377,1.631,22.981,2.932      c14.758,2.526,29.253,7.006,44.032,9.213c2.142,0.32,3.487-2.302,1.517-3.598c-13.032-8.57-29.726-12.568-44.944-14.815      c-7.846-1.159-15.653-1.955-23.585-1.995c-6.11-0.031-14.839-1.226-19.91,2.797C463.08,9.307,463.547,10.651,464.326,11.198      L464.326,11.198z" style="fill:#FFFFFF;"/>
			</g>
		</g>
	</g>
</g>
<g id="&#1057;&#1083;&#1086;&#1081;_152-i3">
	<g id="&#1057;&#1083;&#1086;&#1081;_153-i3">
	</g>
</g>
<g id="&#1057;&#1083;&#1086;&#1081;_154-i3">
	<g id="&#1057;&#1083;&#1086;&#1081;_156-i3">
	</g>
</g>
</g></g></g><!--ITEM 4--><g><defs><clipPath id="clip-path-id-viewbox-item-4"><rect x="0.0" y="0.0" width="189.506" height="250.0"/></clipPath></defs><g transform="translate(409.0 159.0) rotate(-95.72420647059255 51.5 68.5) scale(0.5435184110265638 0.548)"><g clip-path="url(#clip-path-id-viewbox-item-4)" transform="translate(-0.0 -0.0)"><title>ellipse_2 copy 3</title><g id="Layer_2-i4" data-name="Layer 2"><g id="ellipse_2_copy_3-i4" data-name="ellipse_2 copy 3"><path d="M189.506,136c0,69.036-42.309,114-94.5,114S6.083,195.639.506,125c-6-76,42.309-125,94.5-125S189.506,66.964,189.506,136Z" fill="#e84e27"/></g></g></g></g></g><!--ITEM 5--><g><defs><clipPath id="clip-path-id-viewbox-item-5"><rect x="0.0" y="0.0" width="189.506" height="250.0"/></clipPath></defs><g transform="translate(324.0 236.0) rotate(-95.72420647059255 29.5 38.5) scale(0.31133578884045887 0.308)"><g clip-path="url(#clip-path-id-viewbox-item-5)" transform="translate(-0.0 -0.0)"><title>ellipse_2 copy 3</title><g id="Layer_2-i5" data-name="Layer 2"><g id="ellipse_2_copy_3-i5" data-name="ellipse_2 copy 3"><path d="M189.506,136c0,69.036-42.309,114-94.5,114S6.083,195.639.506,125c-6-76,42.309-125,94.5-125S189.506,66.964,189.506,136Z" fill="#e84e27"/></g></g></g></g></g><!--ITEM 6--><g><defs><clipPath id="clip-path-id-crop-item-6"><rect transform="scale(2.6318592057761734 2.630901960784314)" x="-0.19683813166483333" y="0.0" width="277.0" height="253.0"/></clipPath><clipPath id="clip-path-id-viewbox-item-6"><rect x="0.0" y="0.0" width="729.025" height="1207.584"/></clipPath></defs><g clip-path="url(#clip-path-id-crop-item-6)" transform="translate(559.0 80.0) rotate(-12.607551052457616 -138.5 229.5) scale(-0.37995953499537055 0.38009778201764843)"><g clip-path="url(#clip-path-id-viewbox-item-6)" transform="translate(-0.0 -0.0)"><g id="&#1057;&#1083;&#1086;&#1081;_1-i6">
</g>
<g id="&#1057;&#1083;&#1086;&#1081;_11-i6">
</g>
<g id="&#1057;&#1083;&#1086;&#1081;_9-i6">
</g>
<g id="&#1057;&#1083;&#1086;&#1081;_3-i6">
	<g>
		<g>
			<path fill="#F9B71B" d="M176.57,88.739c-0.04,0.321-0.072,0.63-0.109,0.945C176.492,89.369,176.529,89.054,176.57,88.739z"/>
			<path fill="#F9B71B" d="M190.615,164.197c11.692,5.479,19.523,6.012,26.593,2.785c6-2.739,10.001-13.386,13.75-25.282     c4.312,0.265,8.728-0.042,12.628-0.539c0.982-0.125,1.942-0.326,2.891-0.559c1.436-1.194,2.729-2.548,3.828-4.044     c0.743-1.012,1.46-2.03,2.164-3.051c0.869-1.259,1.711-2.523,2.536-3.788c0.406-0.623,0.81-1.245,1.209-1.867     c1.213-1.895,2.4-3.787,3.583-5.669c3.609-5.741,7.215-11.367,11.646-16.542c0.006,0.002,0.012,0.004,0.017,0.006     c2.712-3.164,5.732-6.16,9.252-8.912c4.153-3.247,9.063-6.864,9.295-12.13c0.2-4.533-3.488-8.538-7.762-10.064     c-5.399-1.927-15.582,3.31-20.754,6.05l0.011-0.039c6.313-15.462,8.679-32.091,9.789-48.433     c0.381-5.603,0.597-11.385-1.228-16.414c-1.825-5.029-6.202-9.147-11.399-8.725c-4.468,0.363-8.49,3.969-10.97,8.276     c-0.015-0.145-0.026-0.292-0.041-0.437c-0.404-3.971-1.545-8.632-4.381-11.68c-1.071-1.151-2.375-2.08-3.984-2.643     c-3.531-1.211-7.508-0.163-10.176,2.683c-2.12,2.312-3.126,5.34-3.998,8.362c-0.085,0.292-0.169,0.584-0.251,0.875l-0.177,0.623     c-0.124-0.269-0.256-0.533-0.392-0.794c-1.434-2.75-3.558-5.037-6.715-5.944c-3.598-1.008-7.521,0.26-10.04,3.245     c-1.702,2.064-2.567,4.6-3.226,7.198c-0.19,0.746-0.365,1.497-0.535,2.244l-0.235,1.032c-0.183-0.065-0.359-0.138-0.55-0.193     c-0.393-0.11-0.79-0.182-1.189-0.238c-3.25-0.461-6.608,0.824-8.852,3.482c-2.191,2.657-2.998,6.096-3.761,9.442l-8.404,36.87     l-3.325,14.586c-0.35,1.535-0.678,3.138-0.89,4.759c0,0.004-0.001,0.007-0.001,0.011c-0.04,0.321-0.072,0.63-0.109,0.945     c-1.154,9.91-0.593,17.101,3.983,23.718c-2.544,7.473-7.191,20.328-9.695,26.886     C166.133,152.381,182.076,160.197,190.615,164.197z"/>
			<polygon fill="#F9B71B" points="176.571,88.729 176.572,88.728 176.57,88.739    "/>
			<path fill="#04294f" d="M224.402,100.492c1.292-0.246,2.595-0.409,3.901-0.489c3.109-0.2,6.197,0.276,9.063,1.397     c0.2,0.077,0.393,0.17,0.59,0.251c0.997,0.41,1.976,0.862,2.922,1.38c1.987,1.068,3.293,1.92,3.837,1.477     c0.257-0.211,0.276-0.725,0.02-1.472c-0.395-1.014-0.969-1.939-1.693-2.73c-1.056-1.199-2.299-2.207-3.682-2.988     c-0.418-0.239-0.845-0.457-1.28-0.657c-3.154-1.449-6.718-1.847-10.203-1.113c-1.585,0.323-3.12,0.904-4.547,1.719     c-0.966,0.531-1.838,1.233-2.575,2.073c-0.508,0.628-0.673,1.119-0.506,1.396C220.605,101.318,222.142,100.904,224.402,100.492z"/>
			<path fill="#04294f" d="M227.572,88.563c0.164-0.001,0.335-0.25,0.513-0.717c0.224-0.667,0.414-1.343,0.569-2.028     c0.026-0.115,0.056-0.243,0.084-0.365c0.184-0.798,0.399-1.731,0.645-2.801c0.298-1.225,0.63-2.612,1.05-4.129     c0.899-3.297,2.022-6.533,3.342-9.692c0.094-0.225,0.181-0.454,0.277-0.678c0.825-1.889,1.762-3.836,2.831-5.799     c1.061-1.984,2.275-3.873,3.628-6.028c1.441-2.189,2.585-4.563,3.395-7.053c0.664-2.355,1.007-4.782,1.018-7.208     c0.041-2.232-0.085-4.268-0.183-6.13c-0.105-1.862-0.18-3.534-0.158-5.065c-0.014-2.387,0.285-4.778,0.888-7.109     c0.448-1.652,0.832-2.605,0.554-2.81c-0.125-0.097-0.448,0.036-0.879,0.423c-0.381,0.34-0.846,0.875-1.346,1.645     c-0.626,1.005-1.133,2.08-1.509,3.201c-0.495,1.466-0.848,2.972-1.053,4.499c-0.245,1.799-0.391,3.607-0.434,5.415     c-0.07,1.901-0.097,3.888-0.249,5.895c-0.012,0.21-0.038,0.42-0.056,0.63c-0.151,1.798-0.484,3.583-1.017,5.32     c-0.282,0.779-0.61,1.539-0.962,2.288c-0.577,1.232-1.234,2.426-1.988,3.56c-1.339,2.065-2.58,4.193-3.717,6.377     c-1.011,1.986-1.905,4.029-2.689,6.112c-0.035,0.093-0.077,0.182-0.111,0.275c-1.36,3.68-2.322,7.489-2.866,11.355     c-0.228,1.644-0.34,3.137-0.395,4.444c-0.002,0.063,0,0.126-0.002,0.189c-0.032,1.057-0.015,2.112,0.06,3.162     c0.008,0.147,0.031,0.291,0.044,0.437c0.053,0.561,0.136,1.118,0.273,1.662C227.26,88.319,227.408,88.565,227.572,88.563z"/>
			<path fill="#04294f" d="M206.886,85.516c0.342-0.063,0.48-1.114,0.637-2.938c0.065-0.91,0.161-2.018,0.282-3.29     c0.134-1.272,0.286-2.713,0.556-4.288c0.145-0.92,0.315-1.836,0.507-2.748c0.512-2.427,1.206-4.816,2.047-7.159     c0.102-0.285,0.192-0.574,0.299-0.857c0.772-2.04,1.675-4.029,2.701-5.955c0.142-0.271,0.301-0.543,0.452-0.815     c0.962-1.725,2.095-3.477,3.256-5.422c1.421-2.264,2.553-4.699,3.365-7.243c0.671-2.377,1.072-4.816,1.194-7.267     c0.145-2.265,0.145-4.345,0.176-6.257c0.025-1.908,0.085-3.634,0.23-5.203c0.187-2.459,0.685-4.896,1.483-7.247     c0.589-1.666,1.043-2.618,0.778-2.841c-0.14-0.124-0.572,0.054-1.169,0.597c-0.356,0.325-0.772,0.78-1.221,1.38     c-1.577,2.32-2.663,4.942-3.185,7.688c-0.392,1.832-0.675,3.682-0.847,5.541c-0.199,1.924-0.349,3.945-0.59,5.989     c-0.004,0.037-0.007,0.073-0.012,0.11c-0.215,2.104-0.639,4.188-1.264,6.22c-0.43,1.222-0.948,2.409-1.531,3.565     c-0.342,0.677-0.711,1.341-1.104,1.991c-0.111,0.183-0.213,0.371-0.328,0.552c-1.253,2.107-2.646,4.266-3.771,6.547     c-1.083,2.164-1.995,4.408-2.728,6.71c-0.678,2.107-1.179,4.258-1.531,6.429c-0.295,1.821-0.489,3.656-0.549,5.496     c-0.055,1.537-0.011,3.071,0.132,4.594c0.101,1.146,0.277,2.281,0.529,3.397C206.097,84.63,206.58,85.575,206.886,85.516z"/>
			<path fill="#04294f" d="M192.491,82.189c0.331-0.031,0.607-0.882,0.862-2.367c0.083-0.404,0.155-0.863,0.231-1.356     c0.064-0.417,0.129-0.855,0.21-1.332c0.164-1.038,0.349-2.219,0.554-3.525c0.428-2.604,1.011-5.686,1.757-9.105     c0.736-3.42,1.656-7.179,2.616-11.156c1.954-7.97,3.497-15.276,4.37-20.6c0.878-5.328,1.103-8.695,0.468-8.836     c-0.291-0.065-0.739,0.56-1.301,1.743c-0.666,1.4-1.492,3.583-2.419,6.371c-1.707,5.15-3.758,12.307-5.723,20.324     c-0.97,4.022-1.786,7.91-2.31,11.498c-0.494,3.186-0.763,6.396-0.803,9.603c0.001,0.893,0.025,1.706,0.064,2.481     c0.021,0.417,0.039,0.839,0.074,1.219c0.067,0.87,0.182,1.733,0.335,2.587c0.011,0.059,0.018,0.119,0.029,0.179     C191.819,81.42,192.168,82.219,192.491,82.189z"/>
			<path fill="#04294f" d="M252.726,52.228c-0.821-0.66-1.096-1.451-0.845-2.074c0.37-0.667,1.006-1.14,1.731-1.289     c1.826-0.514,3.724-0.614,5.559-0.293c0.728,0.072,1.373,0.478,1.758,1.105c0.222,0.803-0.103,1.683-0.799,2.16     C257.947,53.617,254.947,53.774,252.726,52.228z"/>
			<path fill="#04294f" d="M224.676,48.948c1.311,0.846,2.821,1.219,4.327,1.144c1.557-0.077,3.108-0.635,4.429-1.671     c0.95-0.842,1.26-1.732,0.967-2.309c-0.49-0.623-1.247-0.962-2.043-0.914c-1.124-0.052-2.251-0.044-3.376,0.024     c-1.118,0.067-2.236,0.194-3.347,0.38c-0.949,0.208-1.726,0.526-2.005,1.157C223.356,47.371,223.697,48.222,224.676,48.948z"/>
			<path fill="#04294f" d="M208.521,44.44c-1.643,0.34-3.145-0.454-3.354-1.775c-0.209-1.321,0.953-2.667,2.597-3.007     c1.643-0.341,3.144,0.454,3.354,1.775C211.326,42.753,210.164,44.099,208.521,44.44z"/>
			<path fill="#04294f" d="M189.051,120.245c0.524,0.416,1.089,0.773,1.688,1.067c1.607,0.802,3.368,1.256,5.177,1.336     c1.105,0.063,2.218-0.009,3.318-0.213c1.663-0.37,1.103-0.212,1.23-0.206c-0.002,0.025-0.01,0.049-0.022,0.071     c-0.032-0.075,0.068,0.192,0.134,0.366c0.07,0.186,0.137,0.375,0.221,0.556c0.162,0.365,0.325,0.733,0.489,1.103     c0.609,1.29,1.319,2.524,2.121,3.691c0.743,1.084,1.562,2.109,2.454,3.066c0.811,0.854,1.678,1.651,2.595,2.383     c0.263,0.208,0.537,0.4,0.808,0.596c0.554,0.399,1.118,0.782,1.706,1.128c0.409,0.221,0.797,0.431,1.164,0.631     c0.383,0.169,0.744,0.327,1.081,0.476c0.527,0.213,1.069,0.384,1.622,0.524c0.061,0.015,0.122,0.036,0.183,0.051     c0.166,0.032,0.304,0.046,0.449,0.065c0.761,0.098,1.24,0.03,1.361-0.228c0.145-0.309-0.199-0.841-0.901-1.527     c-0.335-0.373-0.778-0.756-1.263-1.229c-0.246-0.229-0.507-0.474-0.784-0.734c-0.269-0.265-0.553-0.544-0.852-0.837     c-0.588-0.591-1.219-1.24-1.865-1.962c-0.647-0.72-1.298-1.519-1.96-2.372c-1.401-1.862-2.617-3.868-3.629-5.989     c-0.141-0.313-0.281-0.623-0.421-0.931c-0.074-0.152-0.132-0.311-0.195-0.466l-0.261-0.657c-0.263-0.674-0.474-1.389-0.707-2.057     c-0.227-0.671-0.452-1.336-0.675-1.993c-1.031,0.486-2.043,0.961-3.046,1.407c-0.372,0.179-0.755,0.327-1.146,0.452     c-0.018,0.006-0.035,0.016-0.054,0.022c-0.204,0.077-0.411,0.144-0.621,0.198c-0.801,0.237-1.618,0.397-2.442,0.48     c-1.419,0.15-2.843,0.11-4.237-0.118c-0.607-0.085-1.153-0.204-1.637-0.315c-0.497-0.112-0.923-0.208-1.271-0.287     c-0.291-0.071-0.588-0.111-0.889-0.123c-0.233,0.004-0.401,0.061-0.489,0.178c-0.089,0.117-0.093,0.29-0.013,0.52     c0.119,0.309,0.288,0.593,0.501,0.84C188.296,119.594,188.657,119.942,189.051,120.245z"/>
			<path fill="#04294f" d="M288.222,88.008c-0.256,0.893-0.64,1.739-1.142,2.512c-0.513,0.779-1.347,1.285-2.291,1.391     c-1.253,0.014-2.4-0.814-2.796-2.019c-0.78-2.411,1.641-4.477,3.671-5.079c0.84-0.351,1.835-0.154,2.523,0.499     C288.788,86.066,288.52,87.13,288.222,88.008z"/>
			<path fill="#04294f" d="M267.083,112.262c-0.467,0.468-1.396,0.406-2.439-0.33c-0.849-0.682-1.517-1.53-2.023-2.465     c-1.048-1.932-1.348-4.272-0.709-6.532c0.436-1.263,1.149-1.91,1.782-1.834c0.655,0.077,1.136,0.788,1.56,1.731     c0.071,0.182,0.123,0.371,0.192,0.554c0.795,2.106,1.457,4.268,1.945,6.482C267.565,110.899,267.568,111.78,267.083,112.262z"/>
			<path fill="#04294f" d="M259.06,116.235c-0.803-0.513-1.242-1.349-1.291-2.229c-0.035-0.636,0.127-1.295,0.532-1.875     c0.095-0.135,0.201-0.264,0.316-0.384c0.509-0.482,1.247-0.646,1.895-0.425c0.574,0.212,1.081,0.558,1.478,1.008     c0.011,0.008,0.018,0.019,0.029,0.028c0.723,0.602,0.822,1.669,0.214,2.434c-0.299,0.542-0.726,1.011-1.244,1.366     C260.4,116.542,259.65,116.573,259.06,116.235z"/>
		</g>
		<path fill="#002953" d="M242.627,148.786c0.15-0.228,0.27-0.466,0.362-0.716c0.076-0.173,0.143-0.349,0.193-0.531c0,0,0,0,0,0    c0.887-3.223-2.483-7.264-8.652-11.199c-3.144-2.006-7.015-3.984-11.422-5.812c-0.071-0.03-0.144-0.058-0.215-0.087    c-3.553-1.464-7.449-2.83-11.588-4.035c-0.828-0.241-1.662-0.478-2.509-0.706c-1.183-0.318-2.357-0.613-3.521-0.89    c-0.311-0.074-0.619-0.145-0.928-0.216c-2.533-0.583-5.01-1.068-7.407-1.457c-4.925-0.8-9.503-1.193-13.507-1.191    c-0.904,0.001-1.778,0.021-2.621,0.062c-7.145,0.346-11.983,2.134-12.856,5.307c-0.025,0.089-0.034,0.181-0.052,0.271    c-0.017,0.084-0.02,0.17-0.031,0.254c-5.605,8.63-68.415,108.036-60.364,216.558c5.501,74.156,22.726,127.108,100.183,250.242    c6.287-65.762,39.554-101.567,39.554-101.567c-13.135-14.082-40.644-52.609-58.114-134.309    C171.725,277.361,216.522,205.248,242.627,148.786"/>
		<path fill="#F9B71B" d="M221.945,130.348l0.144-0.47c-0.112,0.129-0.239,0.255-0.354,0.384    C221.805,130.291,221.877,130.319,221.945,130.348z"/>
		<path fill="#00abe2" d="M221.822,163.402c-0.664-0.695-1.381-1.338-2.143-1.924c-0.982-0.796-2.004-1.541-3.061-2.233    c-1.168-0.778-2.47-1.599-3.921-2.385c-0.91-0.527-1.889-1.026-2.909-1.525c-0.585-0.286-1.18-0.573-1.792-0.864    c-0.841-0.398-1.725-0.749-2.622-1.13c-0.895-0.386-1.82-0.746-2.776-1.079c-1.895-0.716-3.903-1.321-5.963-1.927    c-2.079-0.537-4.113-1.049-6.107-1.405c-0.993-0.205-1.971-0.371-2.937-0.499c-0.965-0.133-1.904-0.285-2.83-0.375    c-1.852-0.175-3.607-0.338-5.261-0.361c-0.757-0.032-1.485-0.037-2.193-0.032c-0.834,0.007-1.638,0.03-2.396,0.067    c-1.263,0.051-2.522,0.166-3.773,0.346c-0.955,0.112-1.9,0.297-2.827,0.552c-1.543,0.423-2.375,0.881-2.362,1.355    c0.013,0.474,0.866,0.919,2.369,1.319c0.752,0.193,1.667,0.385,2.723,0.613c1.051,0.195,2.248,0.417,3.571,0.663    c1.317,0.237,2.755,0.475,4.288,0.781c1.539,0.259,3.166,0.62,4.88,0.95c0.857,0.167,1.727,0.386,2.62,0.573    c0.895,0.183,1.802,0.393,2.721,0.628c1.849,0.419,3.739,0.945,5.685,1.446c1.927,0.569,3.819,1.087,5.622,1.676    c0.91,0.27,1.796,0.555,2.658,0.857c0.863,0.297,1.722,0.556,2.543,0.851c1.641,0.597,3.223,1.122,4.676,1.688    c1.474,0.524,2.829,1.058,4.082,1.53c1.261,0.468,2.402,0.891,3.405,1.263c1.023,0.346,1.907,0.65,2.652,0.87    c1.495,0.429,2.456,0.484,2.711,0.083C223.408,165.377,222.93,164.557,221.822,163.402z"/>
		<path fill="#002953" d="M208.456,588.245c-1.189,10.083-4.117,33.402-4.68,45.842c-0.225,4.987-0.842,8.879-1.142,14.252    c-1.934,34.639-6.119,83.093-4.867,146.362l1.835,40.901c0.617,8.222,1.391,16.124,2.351,23.577    c5.488,12.696,7.048,13.196,14.581,18.273c36.03,22.62,157.621,28.901,237.949,19.966c10.186-1.133,18.505-8.612,20.683-18.627    c24.186-111.231,44.222-304.396,53.11-344.006c-19.016-16.004-51.59-25.443-144.676-37.212    c-58.994-6.188-106.469-9.953-136.351-4.499C247.246,493.072,207.902,515.862,208.456,588.245z"/>
		<path fill="#002953" d="M202.481,575.923c-0.07,0.578-0.138,1.161-0.207,1.742l0,0    C202.338,577.078,202.411,576.502,202.481,575.923z"/>
		<path fill="#0daddd" d="M201.653,911.194c-11.011,38.63,84.573,77.93,119.041,42.139    c123.684,53.512,161.828-56.753,156.772-101.872c-13.157-23.627-57.57-44.643-57.57-44.643l-115.378,22.989c0,0,6.285,3.113,0,0    c-6.668-3.303-64.3-3.766-78.07,0.543c-10.431,3.264,20.931,14.148,20.931,14.148L201.653,911.194z"/>
		<g>
			<path fill-rule="evenodd" clip-rule="evenodd" fill="#00AEE0" d="M117.197,1100.69c0.561,21.736,4.88,28.345,4.57,50.08     c-0.288,20.236-2.881,32.488,11.833,48.747c4.766,5.267,11.848,8.958,18.869,7.879c5.223-0.803,9.702-4.058,13.836-7.35     c11.538-9.188,21.3-19.537,25.101-34.091c1.542-5.903,2.892-11.863,4.337-17.79c4.791-19.649,4.977-14.21,9.768-33.859     l4.46-18.293c2.633-10.801-1.608-22.114-10.694-28.522l-47.17-33.272L117.197,1100.69z"/>
			<path fill="#00abe2" d="M154.852,1115.78c0.634,0.43,0.833,1.413,0.627,2.855c-0.125,0.843-0.339,1.671-0.64,2.468     c-0.361,1.031-0.796,2.034-1.299,3.003c-1.293,2.497-2.839,4.855-4.614,7.035c-1.01,1.215-2.082,2.494-3.307,3.705     c-1.194,1.244-2.524,2.436-3.906,3.631c-1.418,1.154-2.823,2.256-4.256,3.216c-1.405,0.995-2.851,1.828-4.223,2.612     c-2.456,1.369-5.047,2.482-7.731,3.321c-1.042,0.328-2.106,0.581-3.184,0.757c-0.838,0.158-1.69,0.225-2.542,0.201     c-1.457-0.047-2.39-0.415-2.703-1.113c-0.313-0.698,0.018-1.661,0.848-2.784c0.495-0.639,1.026-1.25,1.589-1.831     c0.634-0.664,1.39-1.335,2.204-2.096c1.657-1.471,3.627-3.143,5.818-4.935c2.168-1.796,4.551-3.77,7.052-5.843     c2.476-2.103,4.834-4.106,6.98-5.928c2.146-1.847,4.135-3.496,5.871-4.872c0.891-0.669,1.683-1.297,2.447-1.807     c0.67-0.453,1.364-0.869,2.079-1.246C153.214,1115.509,154.219,1115.35,154.852,1115.78z"/>
		</g>
		<g>
			<path fill="#0daddd" d="M169.652,1039.418c-63.024-78.645-94.307-162.741-80.905-177.616     c17.388-19.299,130.655,69.25,152.336,83.258c18.438-20.393,43.636-23.695,73.136-54.532     c-91.656-60.747-218.578-170.045-291.861-84.121c-48.06,51.693-19.285,167.864,92.574,296.755     C134.191,1118.577,188.505,1057.28,169.652,1039.418z"/>
		</g>
		<g>
			<path fill-rule="evenodd" clip-rule="evenodd" fill="#00AEE0" d="M212.388,1017.231c-0.722,21.731,3.199,28.583,1.608,50.263     c-1.481,20.184-4.792,32.262,8.938,49.36c4.447,5.539,11.299,9.641,18.371,8.978c5.262-0.493,9.924-3.479,14.246-6.521     c12.06-8.491,22.415-18.247,27.068-32.552c1.887-5.802,3.587-11.672,5.379-17.503c5.941-19.332,5.807-13.892,11.748-33.224     l5.531-17.998c3.266-10.627-0.301-22.171-8.993-29.103l-45.126-35.996L212.388,1017.231z"/>
			<path fill="#00abe2" d="M249.088,1034.516c0.607,0.466,0.748,1.459,0.457,2.887c-0.174,0.834-0.437,1.648-0.784,2.426     c-0.421,1.008-0.914,1.984-1.474,2.921c-1.438,2.417-3.12,4.679-5.021,6.751c-1.08,1.153-2.225,2.367-3.519,3.504     c-1.266,1.172-2.663,2.283-4.114,3.395c-1.484,1.068-2.951,2.085-4.438,2.959c-1.462,0.911-2.954,1.657-4.37,2.358     c-2.533,1.222-5.184,2.18-7.913,2.859c-1.059,0.266-2.136,0.456-3.223,0.568c-0.845,0.108-1.7,0.125-2.549,0.051     c-1.451-0.133-2.361-0.555-2.633-1.271c-0.271-0.715,0.116-1.656,1.01-2.729c0.532-0.609,1.098-1.188,1.694-1.734     c0.672-0.625,1.466-1.25,2.324-1.962c1.74-1.37,3.806-2.923,6.099-4.583c2.27-1.665,4.765-3.495,7.384-5.417     c2.596-1.953,5.068-3.814,7.318-5.506c2.251-1.717,4.334-3.246,6.148-4.517c0.929-0.616,1.757-1.196,2.549-1.659     c0.695-0.413,1.413-0.787,2.149-1.121C247.469,1034.149,248.481,1034.049,249.088,1034.516z"/>
		</g>
		<path fill="#0daddd" d="M155.209,696.363c-52.229,39.184-45.213,100.262-25.987,163.369c1.934,6.348,4.056,12.72,6.36,19.091    c1.687,4.664,3.471,9.327,5.342,13.978c1.836,4.563,3.756,9.116,5.756,13.648c21.062,47.724,47.084,97.207,61.23,107.601    c14.146,10.394,73.414-29.403,60.207-57.488c-37.741-80.256-79.523-170.208-63.093-182.611    c21.14-15.958,113.42,68.258,162.4,108.403c13.329,2.333,80.333,10.199,59.069-72.141    C295.694,699.405,221.01,652.312,155.209,696.363z"/>
		<path fill="#0daddd" d="M670.367,226.495c0.428,0.203,0.492,1.062,0.215,2.486c-0.129,0.717-0.358,1.566-0.739,2.499    c-0.371,0.938-0.781,2.03-1.411,3.133c-0.309,0.559-0.632,1.144-0.969,1.754c-0.349,0.605-0.773,1.189-1.19,1.815    c-0.817,1.269-1.85,2.496-2.936,3.8c-0.546,0.649-1.171,1.251-1.783,1.894c-0.311,0.317-0.626,0.637-0.944,0.96    c-0.338,0.301-0.68,0.605-1.024,0.911c-1.356,1.258-2.894,2.397-4.476,3.553c-1.642,1.068-3.253,2.103-4.909,2.925    c-0.409,0.214-0.814,0.425-1.215,0.635c-0.415,0.182-0.826,0.363-1.232,0.542c-0.819,0.344-1.603,0.715-2.403,0.996    c-1.604,0.553-3.118,1.084-4.594,1.398c-0.733,0.168-1.43,0.357-2.119,0.469c-0.689,0.099-1.352,0.194-1.983,0.285    c-1.254,0.198-2.421,0.195-3.429,0.209c-1.008,0.025-1.882-0.061-2.599-0.195c-1.429-0.246-2.21-0.61-2.248-1.083    c-0.038-0.473,0.663-1.01,1.914-1.57c0.621-0.256,1.379-0.57,2.26-0.933c0.871-0.361,1.87-0.671,2.937-1.143    c0.536-0.211,1.098-0.432,1.683-0.663c0.583-0.227,1.171-0.521,1.79-0.781c1.247-0.498,2.52-1.166,3.876-1.801    c0.677-0.322,1.338-0.721,2.033-1.08c0.346-0.182,0.696-0.367,1.049-0.553c0.342-0.207,0.688-0.415,1.036-0.626    c1.42-0.796,2.806-1.749,4.253-2.683c1.386-1.022,2.769-1.98,4.017-3.026c0.32-0.251,0.638-0.5,0.952-0.747    c0.299-0.264,0.596-0.526,0.889-0.785c0.582-0.523,1.19-1,1.731-1.518c1.075-1.043,2.151-1.996,3.058-2.985    c0.462-0.486,0.946-0.932,1.365-1.397c0.423-0.465,0.829-0.912,1.217-1.339c0.819-0.83,1.464-1.655,2.11-2.341    c0.652-0.694,1.214-1.292,1.674-1.782C669.187,226.758,669.939,226.292,670.367,226.495z"/>
		<path fill="#002953" d="M501.291,630.865c0,0,191.914-38.733,223.369-199.149c15.319-78.128-10.512-176.235-64.326-237.432    l-56.665,50.646c36.757,41.125,57.468,144.12,36.296,187.552c-43.687,89.617-111.691,87.319-135.562,92.044l0,0.007    c-7.087,2.238-20.387,24.389-20.387,51.934C484.016,601.029,493.544,630.901,501.291,630.865"/>
		<path fill="#0daddd" d="M660.334,194.284c-1.414-1.582-3.164-2.767-5.166-3.584c-4.18-1.706-9.473-1.783-15.19-0.364    c-3.894,0.967-7.983,2.633-12.048,4.939c-3.655,2.073-7.29,4.664-10.746,7.753c-5.728,5.12-10.149,10.877-13.076,16.57    c-3.449,6.71-4.814,13.329-3.688,18.704c0.066,0.316,0.167,0.615,0.25,0.923c0.58,2.144,1.55,4.084,2.999,5.705    c4.321,4.833,11.749,6.009,20.098,3.997c1.131-0.273,2.281-0.614,3.44-1c0.27-0.09,0.537-0.167,0.808-0.264    c6.251-2.231,12.798-6.109,18.805-11.478c6.679-5.969,11.585-12.806,14.405-19.397c0.063-0.146,0.139-0.294,0.199-0.44    c0.241-0.581,0.471-1.161,0.679-1.737C665,206.574,664.638,199.1,660.334,194.284z"/>
		<path fill="#0daddd" d="M207.476,616.695c-0.473-0.028-0.872-0.826-1.186-2.255c-0.32-1.429-0.522-3.489-0.587-6.03    c-0.07-2.541,0.031-5.561,0.314-8.901c0.158-1.667,0.331-3.419,0.595-5.223c0.241-1.807,0.563-3.668,0.912-5.57    c0.376-1.896,0.763-3.744,1.205-5.514c0.419-1.774,0.904-3.466,1.371-5.075c0.968-3.209,1.986-6.054,2.988-8.39    c0.997-2.338,1.944-4.179,2.768-5.389c0.819-1.213,1.483-1.807,1.934-1.659c0.45,0.148,0.646,1.023,0.615,2.468    c-0.036,1.443-0.264,3.466-0.647,5.921c-0.388,2.454-0.9,5.35-1.507,8.547c-0.608,3.191-1.277,6.699-1.979,10.381    c-0.704,3.682-1.375,7.189-1.986,10.38c-0.614,3.195-1.206,6.076-1.749,8.5c-0.548,2.424-1.082,4.388-1.58,5.743    C208.453,615.982,207.949,616.724,207.476,616.695z"/>
		<path fill="#0daddd" d="M524.581,623.613c0.15,0.45-0.297,1.065-1.258,1.798c-0.479,0.371-1.087,0.764-1.821,1.151    c-0.732,0.39-1.575,0.823-2.537,1.206c-1.913,0.813-4.267,1.568-6.936,2.201c-1.338,0.29-2.748,0.599-4.227,0.797    c-1.475,0.234-3.015,0.376-4.593,0.504c-1.581,0.083-3.126,0.146-4.619,0.11c-1.492,0-2.931-0.119-4.295-0.229    c-2.729-0.273-5.163-0.71-7.167-1.262c-1.005-0.252-1.897-0.569-2.675-0.859c-0.778-0.286-1.434-0.595-1.957-0.899    c-1.049-0.6-1.574-1.15-1.485-1.616s0.781-0.804,1.932-1.021c0.575-0.104,1.267-0.185,2.062-0.266    c0.795-0.077,1.686-0.104,2.669-0.167c1.943-0.068,4.254-0.149,6.821-0.238c1.274-0.067,2.608-0.084,3.988-0.174    c1.379-0.076,2.806-0.154,4.268-0.235c1.46-0.114,2.885-0.226,4.261-0.333c1.38-0.094,2.704-0.254,3.976-0.357    c2.556-0.252,4.858-0.478,6.792-0.668c0.984-0.068,1.87-0.159,2.668-0.188c0.799-0.025,1.495-0.037,2.079-0.01    C523.7,622.92,524.431,623.163,524.581,623.613z"/>
		<path fill="#0daddd" d="M632.529,260.213c-0.064-0.47,0.614-1.043,1.851-1.67c0.621-0.304,1.379-0.636,2.246-1.045    c0.868-0.4,1.868-0.762,2.935-1.272c0.537-0.232,1.1-0.476,1.687-0.73c0.585-0.25,1.176-0.56,1.797-0.842    c1.252-0.543,2.534-1.242,3.9-1.916c0.682-0.34,1.351-0.751,2.053-1.125c0.35-0.19,0.703-0.382,1.06-0.576    c0.346-0.212,0.697-0.426,1.05-0.642c1.436-0.822,2.848-1.789,4.32-2.739c1.417-1.03,2.827-1.999,4.112-3.041    c0.329-0.251,0.655-0.501,0.978-0.748c0.31-0.263,0.616-0.523,0.92-0.78c0.603-0.52,1.227-0.996,1.79-1.509    c1.121-1.032,2.235-1.976,3.193-2.947c0.487-0.478,0.989-0.917,1.433-1.373c0.448-0.456,0.878-0.893,1.289-1.31    c0.861-0.812,1.559-1.614,2.244-2.279c0.694-0.661,1.278-1.248,1.785-1.718c1.031-0.928,1.81-1.354,2.225-1.125    s0.425,1.098,0.062,2.51c-0.173,0.711-0.452,1.548-0.879,2.467c-0.418,0.923-0.888,1.993-1.563,3.075    c-0.333,0.547-0.681,1.12-1.045,1.717c-0.374,0.592-0.817,1.165-1.257,1.778c-0.865,1.24-1.931,2.446-3.054,3.723    c-0.564,0.636-1.2,1.229-1.827,1.861c-0.318,0.311-0.64,0.626-0.965,0.944c-0.343,0.297-0.69,0.597-1.039,0.9    c-1.378,1.239-2.927,2.372-4.519,3.522c-1.647,1.07-3.262,2.106-4.915,2.944c-0.408,0.217-0.813,0.432-1.214,0.645    c-0.413,0.188-0.823,0.375-1.228,0.559c-0.816,0.357-1.598,0.736-2.395,1.033c-1.596,0.587-3.105,1.147-4.574,1.506    c-0.73,0.189-1.425,0.396-2.111,0.531c-0.688,0.124-1.348,0.242-1.978,0.355c-1.252,0.24-2.419,0.292-3.431,0.349    c-1.01,0.067-1.892,0.025-2.618-0.07C633.401,261.005,632.594,260.683,632.529,260.213z"/>
		<path fill="#0DADDD" d="M126.608,862.195c-0.444,0.167-1.215-0.627-2.235-2.22c-1.014-1.594-2.256-3.996-3.561-7.057    c-0.674-1.524-1.312-3.228-2.007-5.058c-0.651-1.843-1.346-3.816-1.979-5.922c-0.66-2.099-1.268-4.327-1.863-6.646    c-0.59-2.321-1.129-4.741-1.633-7.23c-0.486-2.493-0.906-4.936-1.25-7.306c-0.332-2.371-0.618-4.663-0.81-6.855    c-0.221-2.188-0.329-4.278-0.426-6.23c-0.064-1.956-0.113-3.776-0.075-5.441c0.029-1.656,0.054-3.159,0.229-4.594    c0.172-1.416,0.497-2.682,0.963-3.653c0.455-0.975,1.019-1.635,1.486-1.976c0.467-0.346,0.822-0.4,1.002-0.26    c0.395,0.314,0.075,1.292,0.105,2.891c0.003,0.803,0.094,1.786,0.285,2.973c0.185,1.17,0.491,2.622,0.772,4.233    c0.55,3.196,1.206,7,1.933,11.225c0.375,2.103,0.769,4.31,1.177,6.597c0.422,2.284,0.876,4.644,1.347,7.061    c0.496,2.412,0.981,4.766,1.449,7.041c0.489,2.27,0.95,4.465,1.426,6.548c0.938,4.183,1.782,7.951,2.491,11.115    c0.691,3.183,1.218,5.784,1.451,7.636C127.128,860.918,127.052,862.028,126.608,862.195z"/>
		<path fill="#0DADDD" d="M272.085,962.574c-0.845,0.401-5.176-6.656-11.295-18.507c-3.063-5.923-6.551-13.054-10.275-21.041    c-1.848-4-3.781-8.202-5.712-12.591c-1.95-4.381-3.908-8.943-5.895-13.624c-1.963-4.691-3.862-9.279-5.635-13.734    c-1.793-4.447-3.45-8.766-5.023-12.882c-3.116-8.244-5.784-15.72-7.885-22.049c-4.209-12.656-6.236-20.685-5.358-21.009    c0.902-0.334,4.537,7.09,9.891,19.261c2.674,6.087,5.8,13.354,9.227,21.437c3.416,8.086,7.172,16.975,11.115,26.307    c3.926,9.339,7.666,18.235,11.067,26.327c3.393,8.098,6.41,15.41,8.9,21.575C270.178,954.376,272.953,962.162,272.085,962.574z"/>
		<path fill="#0DADDD" d="M279.013,865.258c-0.925,0.141-2.063-1.46-2.941-4.281c-0.442-1.408-0.795-3.117-1.023-5.035    c-0.1-0.959-0.196-1.969-0.217-3.018c-0.041-1.049-0.017-2.136,0.028-3.248c0.069-1.111,0.158-2.194,0.306-3.234    c0.128-1.041,0.328-2.037,0.525-2.98c0.425-1.884,0.951-3.548,1.536-4.903c1.163-2.716,2.46-4.191,3.365-3.956    c0.93,0.24,1.311,2.104,1.405,4.876c0.09,2.779-0.062,6.478-0.276,10.55c-0.206,4.072-0.435,7.767-0.81,10.522    C280.534,863.3,279.963,865.115,279.013,865.258z"/>
		<g>
			<g>
				<path fill="#0DADDD" d="M97.562,828.004c-0.006-0.943,0.68-1.818,1.889-2.379c1.2-0.559,2.932-0.781,4.772-0.4      c1.84,0.379,3.38,1.29,4.261,2.315c0.893,1.026,1.134,2.124,0.713,2.967c-0.426,0.854-1.378,1.328-2.504,1.55      c-1.134,0.215-2.457,0.188-3.865-0.103c-1.408-0.292-2.673-0.802-3.641-1.477C98.227,829.803,97.568,828.957,97.562,828.004z"/>
			</g>
			<g>
				<path fill="#0DADDD" d="M75.373,835.927c-0.603-0.726-0.622-1.839-0.045-3.036c0.57-1.193,1.749-2.444,3.343-3.328      c1.594-0.884,3.265-1.216,4.569-1.077c1.311,0.137,2.249,0.727,2.563,1.618c0.316,0.898-0.019,1.919-0.719,2.877      c-0.706,0.96-1.774,1.867-3.08,2.59c-1.306,0.724-2.627,1.143-3.805,1.239C77.025,836.901,75.982,836.66,75.373,835.927z"/>
			</g>
			<g>
				<path fill="#0DADDD" d="M64.194,856.668c-1.832-0.466-2.64-3.556-1.523-6.85c0.554-1.638,1.476-2.98,2.477-3.789      c1.001-0.813,2.068-1.091,2.934-0.708c0.869,0.385,1.385,1.333,1.569,2.533c0.182,1.203,0.036,2.667-0.473,4.17      C68.163,855.011,66.038,857.138,64.194,856.668z"/>
			</g>
			<g>
				<path fill="#0DADDD" d="M60.842,880.378c-1.893,0.006-3.427-2.823-3.14-6.273c0.281-3.447,2.229-5.972,4.098-5.683      c1.88,0.29,3.005,3.08,2.75,6.242C64.285,877.822,62.744,880.373,60.842,880.378z"/>
			</g>
			<g>
				<path fill="#0DADDD" d="M65.539,903.71c-1.75,0.732-4.149-1.272-5.351-4.478c-0.149-0.407-0.274-0.777-0.369-1.206      c-0.094-0.425-0.154-0.842-0.182-1.243c-0.057-0.803,0.012-1.542,0.18-2.176c0.337-1.27,1.061-2.105,1.99-2.284      c0.934-0.18,1.894,0.308,2.735,1.151c0.421,0.422,0.813,0.935,1.165,1.509c0.176,0.287,0.341,0.59,0.495,0.906      c0.152,0.312,0.332,0.693,0.468,1.063C67.798,899.953,67.29,902.978,65.539,903.71z"/>
			</g>
			<g>
				<path fill="#0DADDD" d="M76.003,925.298c-1.669,0.902-4.272-0.781-5.813-3.758c-1.541-2.978-1.407-6.067,0.298-6.899      c1.705-0.832,4.308,0.85,5.813,3.758C77.806,921.307,77.672,924.396,76.003,925.298z"/>
			</g>
			<g>
				<path fill="#0DADDD" d="M87.266,946.496c-1.687,0.874-4.282-0.817-5.809-3.747c-1.533-2.904-1.421-5.989,0.249-6.89      c1.67-0.901,4.289,0.767,5.85,3.725C89.092,942.534,88.948,945.625,87.266,946.496z"/>
			</g>
			<g>
				<path fill="#0DADDD" d="M98.325,967.801c-1.68,0.882-4.285-0.791-5.819-3.735s-1.412-6.039,0.273-6.911s4.29,0.8,5.819,3.735      S100.005,966.92,98.325,967.801z"/>
			</g>
			<g>
				<path fill="#0DADDD" d="M109.658,988.957c-1.661,0.917-4.293-0.711-5.879-3.635c-1.586-2.925-1.515-6.02,0.159-6.913      c1.674-0.893,4.306,0.735,5.879,3.635C111.39,984.945,111.318,988.04,109.658,988.957z"/>
			</g>
			<g>
				<path fill="#0DADDD" d="M121.577,1009.781c-1.626,0.977-4.31-0.566-5.992-3.446c-1.683-2.88-1.71-5.976-0.062-6.914      c1.649-0.939,4.332,0.604,5.992,3.446C123.176,1005.709,123.204,1008.804,121.577,1009.781z"/>
			</g>
			<g>
				<path fill="#0DADDD" d="M134.367,1030.086c-1.577,1.054-4.328-0.366-6.143-3.172c-1.815-2.806-1.982-5.897-0.374-6.904      s4.358,0.413,6.143,3.172C135.777,1025.941,135.945,1029.032,134.367,1030.086z"/>
			</g>
			<g>
				<path fill="#0DADDD" d="M148.188,1049.704c-1.518,1.138-4.34-0.134-6.303-2.841c-1.963-2.708-2.294-5.786-0.74-6.874      c1.554-1.089,4.376,0.183,6.303,2.841C149.375,1045.488,149.706,1048.566,148.188,1049.704z"/>
			</g>
		</g>
		<path fill="#0DADDD" d="M366.532,967.637c-0.219,0.923-4.399,0.815-10.981-0.106c-1.646-0.23-3.441-0.511-5.363-0.839    c-1.92-0.33-4.01-0.708-6.244-1.263c-1.117-0.281-2.268-0.604-3.444-1.002c-1.16-0.43-2.349-0.88-3.529-1.396    c-1.148-0.574-2.365-1.09-3.488-1.788c-0.572-0.335-1.147-0.672-1.727-1.011c-0.553-0.375-1.11-0.752-1.67-1.132    c-1.141-0.737-2.143-1.606-3.186-2.4c-0.986-0.85-1.966-1.685-2.868-2.555c-1.803-1.741-3.452-3.496-4.887-5.254    c-0.738-0.866-1.414-1.736-2.056-2.591c-0.658-0.845-1.251-1.692-1.821-2.512c-1.143-1.638-2.139-3.2-2.996-4.65    c-3.429-5.804-4.898-9.715-4.135-10.233c0.805-0.548,3.735,2.452,8.062,7.373c1.081,1.23,2.261,2.568,3.538,3.977    c0.637,0.705,1.288,1.44,1.983,2.166c0.683,0.739,1.387,1.494,2.132,2.237c1.458,1.524,3.054,3.027,4.733,4.53    c0.84,0.751,1.73,1.461,2.617,2.201c0.929,0.673,1.819,1.441,2.805,2.07c0.483,0.332,0.963,0.661,1.439,0.989    c0.492,0.297,0.981,0.592,1.467,0.884c0.953,0.625,1.968,1.075,2.925,1.61c0.983,0.474,1.966,0.899,2.927,1.327    c0.973,0.395,1.96,0.748,2.942,1.081c1.969,0.66,3.928,1.229,5.793,1.799c1.864,0.569,3.595,1.123,5.169,1.656    C362.967,964.935,366.751,966.714,366.532,967.637z"/>
		<g>
			<path fill-rule="evenodd" clip-rule="evenodd" fill="#F9B71B" d="M335.441,503.617l5.799-29.554     c-27.239-9.062-75.368-28.937-62.636-93.817c9.152-46.64,16.507-111.339,19.406-121.886     c18.008-75.832,281.685-69.519,148.483,171.537c-11.449,14.777-22.47,63.826-28.715,97.063     c-2.677,14.248-27.746,21.053-52.052,12.95C343.203,532.403,332.904,516.547,335.441,503.617z"/>
			<path fill="#04294f" d="M383.673,472.706c0.153,0.449-0.194,1.033-0.979,1.713c-0.465,0.4-0.968,0.753-1.503,1.053     c-0.682,0.406-1.391,0.766-2.122,1.077c-1.889,0.812-3.854,1.435-5.865,1.86c-1.135,0.225-2.334,0.465-3.59,0.59     c-1.254,0.162-2.561,0.229-3.9,0.278c-1.34,0.005-2.648-0.009-3.907-0.119c-1.26-0.074-2.467-0.265-3.611-0.443     c-2.027-0.343-4.015-0.886-5.936-1.62c-0.743-0.281-1.466-0.612-2.164-0.99c-0.547-0.278-1.065-0.61-1.545-0.991     c-0.811-0.647-1.181-1.217-1.047-1.671c0.134-0.455,0.756-0.754,1.738-0.912c0.49-0.075,1.073-0.121,1.739-0.163     c0.665-0.038,1.403-0.023,2.219-0.039c1.598,0.024,3.5,0.054,5.611,0.086c1.046-0.006,2.137,0.041,3.268,0.019     c1.129-0.008,2.298-0.016,3.495-0.025c1.197-0.04,2.365-0.08,3.493-0.118c1.132-0.023,2.219-0.115,3.265-0.152     c2.108-0.118,4.007-0.225,5.603-0.315c0.816-0.017,1.552-0.063,2.218-0.052c0.668,0.015,1.251,0.038,1.744,0.093     C382.887,471.983,383.521,472.257,383.673,472.706z"/>
		</g>
		<path fill="#FFFFFF" d="M335.931,501.123c-21.171,14.575-30.245,41.939-33.975,54.908c-0.854,2.971,2.077,5.616,4.946,4.466    c12.826-5.141,41.32-15.92,63.046-19.459c20.618,10.809,42.946,29.89,52.984,38.91c2.298,2.065,5.965,0.578,6.172-2.504    c0.803-11.991,0.401-37.142-8.314-65.821c-6.421,43.623-50.842,29.416-50.842,29.416S330.444,532.82,335.931,501.123z"/>
		<g>
			<path fill="#F9B71B" d="M636.168,155.275c0.116,0.302,0.221,0.594,0.333,0.891C636.395,155.868,636.283,155.571,636.168,155.275z     "/>
			<path fill="#F9B71B" d="M640.647,231.899c-10.036,8.125-17.509,10.523-25.147,9.087c-6.482-1.218-12.922-10.594-19.417-21.242     c-4.123,1.292-8.483,2.054-12.388,2.508c-0.983,0.114-1.963,0.15-2.94,0.151c-1.681-0.814-3.261-1.818-4.687-3.007     c-0.964-0.804-1.905-1.62-2.833-2.442c-1.146-1.013-2.266-2.038-3.371-3.068c-0.544-0.507-1.085-1.014-1.622-1.522     c-1.632-1.548-3.239-3.1-4.839-4.643c-4.882-4.707-9.733-9.302-15.276-13.263c-0.005,0.003-0.01,0.006-0.015,0.01     c-3.392-2.421-7.043-4.604-11.121-6.43c-4.811-2.155-10.446-4.487-11.935-9.544c-1.282-4.353,1.337-9.126,5.119-11.633     c4.779-3.167,15.921-0.527,21.599,0.892l-0.02-0.035c-9.84-13.495-16.128-29.069-21.128-44.668     c-1.715-5.348-3.313-10.909-2.748-16.229c0.565-5.32,3.825-10.369,8.971-11.206c4.425-0.72,9.195,1.815,12.636,5.401     c-0.021-0.144-0.045-0.29-0.065-0.434c-0.561-3.951-0.572-8.75,1.449-12.39c0.763-1.374,1.807-2.589,3.233-3.522     c3.137-2.023,7.249-1.96,10.522,0.162c2.613,1.736,4.317,4.433,5.888,7.158c0.152,0.263,0.304,0.526,0.454,0.789l0.322,0.563     c0.055-0.291,0.121-0.579,0.19-0.865c0.732-3.014,2.245-5.744,5.091-7.382c3.251-1.842,7.364-1.553,10.525,0.74     c2.147,1.595,3.596,3.85,4.86,6.213c0.363,0.679,0.713,1.366,1.058,2.05l0.476,0.945c0.162-0.107,0.315-0.22,0.488-0.319     c0.355-0.201,0.723-0.366,1.097-0.516c3.044-1.228,6.612-0.787,9.429,1.256c2.764,2.053,4.374,5.198,5.918,8.263l17.009,33.775     l6.729,13.361c0.708,1.406,1.411,2.883,2.007,4.406c0.001,0.003,0.003,0.007,0.004,0.01c0.116,0.302,0.221,0.594,0.333,0.891     c3.499,9.343,4.68,16.459,1.826,23.98c4.264,6.644,11.86,18.007,15.865,23.772C661.577,214.552,647.976,225.965,640.647,231.899z     "/>
			<polygon fill="#F9B71B" points="636.164,155.265 636.164,155.265 636.168,155.275    "/>
			<path fill="#04294f" d="M592.556,178.166c-1.313,0.071-2.617,0.225-3.904,0.462c-3.066,0.552-5.949,1.756-8.462,3.532     c-0.175,0.123-0.341,0.259-0.513,0.385c-0.869,0.637-1.711,1.311-2.505,2.041c-1.673,1.514-2.736,2.654-3.37,2.355     c-0.3-0.143-0.442-0.638-0.372-1.424c0.14-1.079,0.475-2.115,0.988-3.057c0.737-1.417,1.702-2.695,2.857-3.784     c0.348-0.333,0.711-0.647,1.085-0.945c2.713-2.164,6.078-3.406,9.638-3.53c1.616-0.067,3.246,0.128,4.826,0.578     c1.065,0.283,2.081,0.755,2.997,1.394c0.644,0.487,0.922,0.925,0.827,1.234C596.441,178.057,594.849,178.024,592.556,178.166z"/>
			<path fill="#04294f" d="M586.616,167.347c-0.159,0.038-0.385-0.162-0.67-0.573c-0.377-0.593-0.724-1.205-1.039-1.832     c-0.053-0.106-0.113-0.222-0.169-0.335c-0.37-0.731-0.803-1.584-1.299-2.564c-0.583-1.118-1.239-2.385-2.01-3.756     c-1.664-2.985-3.531-5.857-5.571-8.606c-0.146-0.196-0.285-0.397-0.431-0.592c-1.254-1.636-2.631-3.301-4.14-4.95     c-1.506-1.671-3.138-3.214-4.969-4.981c-1.925-1.779-3.604-3.809-4.989-6.032c-1.21-2.127-2.125-4.4-2.719-6.753     c-0.575-2.157-0.942-4.163-1.293-5.995c-0.345-1.833-0.673-3.474-1.063-4.955c-0.56-2.32-1.424-4.57-2.569-6.688     c-0.831-1.496-1.433-2.329-1.212-2.595c0.098-0.125,0.443-0.072,0.955,0.199c0.451,0.239,1.031,0.646,1.702,1.274     c0.849,0.825,1.599,1.747,2.234,2.746c0.832,1.304,1.537,2.682,2.102,4.114c0.67,1.687,1.245,3.408,1.721,5.153     c0.524,1.829,1.028,3.751,1.657,5.663c0.062,0.201,0.138,0.399,0.205,0.598c0.578,1.709,1.33,3.362,2.264,4.921     c0.46,0.688,0.962,1.348,1.483,1.991c0.856,1.057,1.78,2.059,2.785,2.979c1.796,1.683,3.511,3.451,5.139,5.298     c1.459,1.685,2.816,3.454,4.078,5.288c0.056,0.082,0.119,0.158,0.174,0.24c2.204,3.246,4.052,6.713,5.508,10.335     c0.616,1.541,1.083,2.963,1.45,4.22c0.017,0.06,0.03,0.122,0.047,0.183c0.285,1.018,0.522,2.047,0.701,3.084     c0.028,0.144,0.04,0.29,0.062,0.435c0.083,0.558,0.137,1.118,0.134,1.679C586.859,167.034,586.775,167.309,586.616,167.347z"/>
			<path fill="#04294f" d="M605.965,159.423c-0.347,0.021-0.734-0.966-1.323-2.699c-0.281-0.868-0.641-1.92-1.063-3.126     c-0.435-1.203-0.928-2.565-1.569-4.03c-0.362-0.858-0.746-1.707-1.152-2.546c-1.08-2.233-2.327-4.386-3.706-6.458     c-0.167-0.252-0.324-0.511-0.496-0.76c-1.239-1.795-2.593-3.509-4.051-5.133c-0.203-0.229-0.422-0.455-0.634-0.682     c-1.348-1.444-2.869-2.873-4.462-4.482c-1.923-1.857-3.606-3.949-5.005-6.223c-1.222-2.147-2.197-4.418-2.904-6.767     c-0.684-2.164-1.184-4.183-1.673-6.032c-0.483-1.846-0.955-3.507-1.472-4.996c-0.771-2.342-1.84-4.588-3.18-6.679     c-0.971-1.476-1.641-2.291-1.437-2.571c0.106-0.154,0.568-0.085,1.278,0.299c0.424,0.23,0.937,0.572,1.516,1.046     c2.087,1.874,3.771,4.159,4.938,6.699c0.821,1.684,1.539,3.413,2.152,5.176c0.655,1.82,1.285,3.746,2.011,5.673     c0.013,0.035,0.024,0.07,0.038,0.104c0.714,1.991,1.626,3.912,2.721,5.735c0.711,1.083,1.499,2.111,2.342,3.093     c0.495,0.575,1.012,1.131,1.549,1.668c0.151,0.152,0.296,0.309,0.451,0.457c1.723,1.745,3.593,3.506,5.232,5.451     c1.57,1.841,2.995,3.801,4.259,5.859c1.164,1.882,2.167,3.85,3.029,5.874c0.723,1.697,1.352,3.432,1.853,5.204     c0.422,1.478,0.748,2.979,0.975,4.491c0.177,1.137,0.279,2.281,0.302,3.425C606.519,158.374,606.276,159.407,605.965,159.423z"/>
			<path fill="#04294f" d="M619.14,152.738c-0.328,0.05-0.801-0.711-1.405-2.09c-0.178-0.372-0.358-0.8-0.55-1.261     c-0.162-0.389-0.33-0.799-0.524-1.243c-0.408-0.968-0.872-2.071-1.384-3.289c-1.041-2.425-2.347-5.277-3.891-8.417     c-1.536-3.144-3.331-6.572-5.217-10.202c-3.81-7.268-7.062-13.99-9.187-18.949c-2.131-4.962-3.158-8.176-2.575-8.465     c0.267-0.133,0.852,0.367,1.682,1.38c0.982,1.199,2.308,3.12,3.877,5.604c2.893,4.589,6.602,11.045,10.434,18.356     c1.907,3.672,3.633,7.25,5.002,10.607c1.245,2.974,2.276,6.026,3.085,9.13c0.214,0.867,0.385,1.662,0.534,2.423     c0.08,0.41,0.163,0.824,0.221,1.201c0.144,0.86,0.24,1.726,0.295,2.592c0.004,0.06,0.012,0.12,0.015,0.18     C619.608,151.831,619.462,152.69,619.14,152.738z"/>
			<path fill="#04294f" d="M553.475,138.112c0.639-0.838,0.716-1.672,0.322-2.216c-0.519-0.559-1.25-0.865-1.99-0.835     c-1.896-0.061-3.763,0.297-5.467,1.05c-0.69,0.245-1.219,0.793-1.441,1.495c-0.023,0.833,0.503,1.609,1.294,1.905     C548.74,140.713,551.69,140.146,553.475,138.112z"/>
			<path fill="#04294f" d="M579.917,128.195c-1.069,1.136-2.445,1.861-3.926,2.149c-1.53,0.299-3.17,0.13-4.7-0.559     c-1.125-0.589-1.639-1.379-1.493-2.009c0.326-0.723,0.98-1.233,1.764-1.377c1.078-0.321,2.174-0.583,3.283-0.787     c1.102-0.203,2.217-0.348,3.34-0.434c0.971-0.026,1.802,0.097,2.224,0.642C580.821,126.347,580.693,127.255,579.917,128.195z"/>
			<path fill="#04294f" d="M594.518,119.94c1.677-0.064,2.944-1.196,2.83-2.529c-0.114-1.332-1.565-2.36-3.242-2.296     c-1.676,0.064-2.943,1.196-2.83,2.528C591.39,118.976,592.841,120.004,594.518,119.94z"/>
			<path fill="#04294f" d="M631.615,188.856c-0.409,0.529-0.872,1.012-1.383,1.441c-1.367,1.164-2.968,2.028-4.705,2.539     c-1.057,0.326-2.156,0.524-3.272,0.59c-1.703,0.04-1.122,0.059-1.243,0.095c0.008,0.023,0.021,0.045,0.038,0.064     c0.013-0.081-0.02,0.203-0.042,0.388c-0.023,0.198-0.043,0.397-0.081,0.593c-0.069,0.393-0.139,0.79-0.21,1.188     c-0.282,1.398-0.674,2.767-1.174,4.092c-0.461,1.231-1.011,2.422-1.646,3.565c-0.582,1.024-1.233,2.005-1.947,2.937     c-0.205,0.265-0.425,0.517-0.641,0.772c-0.442,0.52-0.898,1.028-1.385,1.505c-0.344,0.313-0.67,0.61-0.979,0.892     c-0.331,0.256-0.644,0.496-0.936,0.722c-0.46,0.333-0.946,0.63-1.448,0.898c-0.056,0.03-0.109,0.064-0.166,0.093     c-0.154,0.071-0.284,0.118-0.42,0.171c-0.715,0.278-1.196,0.327-1.375,0.106c-0.215-0.265-0.009-0.864,0.508-1.699     c0.236-0.442,0.574-0.92,0.931-1.496c0.184-0.282,0.379-0.582,0.585-0.901c0.198-0.322,0.407-0.661,0.626-1.017     c0.429-0.715,0.886-1.497,1.339-2.352c0.455-0.854,0.895-1.786,1.333-2.773c0.913-2.144,1.612-4.383,2.085-6.685     c0.062-0.337,0.124-0.672,0.185-1.005c0.035-0.166,0.054-0.333,0.077-0.499l0.095-0.701c0.094-0.718,0.126-1.462,0.193-2.166     c0.059-0.706,0.119-1.405,0.177-2.097c1.118,0.225,2.214,0.443,3.294,0.635c0.404,0.084,0.812,0.136,1.221,0.164     c0.019,0.001,0.038,0.007,0.057,0.008c0.216,0.026,0.433,0.041,0.65,0.043c0.834,0.037,1.666-0.003,2.485-0.12     c1.413-0.195,2.786-0.575,4.084-1.131c0.569-0.228,1.071-0.475,1.514-0.698c0.455-0.228,0.846-0.424,1.164-0.584     c0.266-0.138,0.544-0.249,0.834-0.333c0.227-0.052,0.404-0.037,0.518,0.055c0.114,0.093,0.16,0.26,0.137,0.502     c-0.041,0.328-0.137,0.644-0.285,0.935C632.191,188.043,631.925,188.467,631.615,188.856z"/>
			<path fill="#04294f" d="M527.605,181.366c0.463,0.806,1.039,1.535,1.711,2.165c0.685,0.633,1.616,0.924,2.558,0.8     c1.22-0.287,2.134-1.367,2.229-2.631c0.178-2.528-2.668-3.952-4.783-4.049c-0.9-0.139-1.818,0.291-2.329,1.09     C526.589,179.617,527.105,180.585,527.605,181.366z"/>
			<path fill="#04294f" d="M553.948,199.837c0.566,0.343,1.452,0.059,2.289-0.906c0.66-0.866,1.105-1.849,1.373-2.879     c0.553-2.127,0.283-4.471-0.88-6.512c-0.727-1.121-1.574-1.579-2.17-1.353c-0.617,0.232-0.913,1.038-1.098,2.054     c-0.026,0.193-0.031,0.39-0.054,0.584c-0.267,2.236-0.39,4.493-0.332,6.759C553.153,198.629,553.362,199.485,553.948,199.837z"/>
			<path fill="#04294f" d="M562.69,201.768c0.657-0.691,0.882-1.608,0.718-2.474c-0.118-0.626-0.434-1.227-0.967-1.693     c-0.125-0.109-0.258-0.208-0.399-0.297c-0.61-0.345-1.365-0.328-1.942,0.042c-0.506,0.344-0.916,0.802-1.193,1.334     c-0.008,0.011-0.013,0.023-0.021,0.034c-0.558,0.758-0.398,1.817,0.377,2.414c0.42,0.454,0.947,0.807,1.535,1.027     C561.463,202.388,562.199,202.237,562.69,201.768z"/>
		</g>
	</g>
</g>
<g id="&#1057;&#1083;&#1086;&#1081;_8-i6">
</g>
<g id="&#1057;&#1083;&#1086;&#1081;_7-i6">
</g>
<g id="&#1057;&#1083;&#1086;&#1081;_10-i6">
</g>
<g id="&#1057;&#1083;&#1086;&#1081;_2-i6">
</g>
<g id="&#1057;&#1083;&#1086;&#1081;_5-i6">
</g>
<g id="&#1057;&#1083;&#1086;&#1081;_12-i6">
</g>
<g id="&#1057;&#1083;&#1086;&#1081;_4-i6">
</g>
<g id="&#1057;&#1083;&#1086;&#1081;_6-i6">
</g>
</g></g></g><!--ITEM 7--><g><defs><clipPath id="clip-path-id-viewbox-item-7"><rect x="0.0" y="0.0" width="28.845" height="20.069"/></clipPath></defs><g transform="translate(427.0 222.0) rotate(-18.393656924181727 -11.5 8.0) scale(-0.797365227942451 0.797249489262046)"><g clip-path="url(#clip-path-id-viewbox-item-7)" transform="translate(-0.0 -0.0)"><g id="&#1057;&#1083;&#1086;&#1081;_1-i7">
</g>
<g id="&#1057;&#1083;&#1086;&#1081;_11-i7">
</g>
<g id="&#1057;&#1083;&#1086;&#1081;_9-i7">
</g>
<g id="&#1057;&#1083;&#1086;&#1081;_3-i7">
</g>
<g id="&#1057;&#1083;&#1086;&#1081;_8-i7">
</g>
<g id="&#1057;&#1083;&#1086;&#1081;_7-i7">
</g>
<g id="&#1057;&#1083;&#1086;&#1081;_10-i7">
	<g>
		<path fill="#04294F" d="M13.085,19.993c7.926,0.786,14.979-4.581,15.7-12c0.549-5.417-2.759-6.241-7.677-6.516    c-0.185,1.783-0.473,3.555-0.861,5.305C19.685,9.117,6.891,7.943,7.128,5.297s0.636-5.168,0.636-5.18    C3.52-0.308,0.549,0.229,0.064,5.11C-0.683,12.541,5.148,19.194,13.085,19.993z"/>
		<path fill="#FFFFFF" d="M7.148,5.301c-0.237,2.646,12.558,3.82,13.119,1.485c0.388-1.75,0.676-3.522,0.862-5.305h-0.662    c-1.435-0.1-4.993-0.362-9.15-0.849c-1.135-0.137-2.3-0.287-3.47-0.461l0,0C7.847,0.171,7.368,2.656,7.148,5.301z"/>
	</g>
</g>
<g id="&#1057;&#1083;&#1086;&#1081;_2-i7">
</g>
<g id="&#1057;&#1083;&#1086;&#1081;_5-i7">
</g>
<g id="&#1057;&#1083;&#1086;&#1081;_12-i7">
</g>
<g id="&#1057;&#1083;&#1086;&#1081;_4-i7">
</g>
<g id="&#1057;&#1083;&#1086;&#1081;_6-i7">
</g>
</g></g></g><!--ITEM 8--><g><defs><clipPath id="clip-path-id-viewbox-item-8"><rect x="0.0" y="0.0" width="198.405" height="282.889"/></clipPath></defs><g transform="translate(135.0 332.0) rotate(-34.21105331705955 51.0 72.0) scale(0.5140999470779466 0.5090335785414066)"><g clip-path="url(#clip-path-id-viewbox-item-8)" transform="translate(-0.0 -0.0)"><title>decoration_15</title><g id="Layer_2-i8" data-name="Layer 2"><g id="decoration_15-i8"><path d="M118.427,167.24c-7.38-2.78-14.52-6-21.61-9.31s-14.06-6.85-21-10.51-13.74-7.44-20.41-11.53a194.2,194.2,0,0,1-19.4-13.38,1,1,0,0,1,.94-1.73,195.582,195.582,0,0,1,21.87,8.91c7.08,3.33,14,6.95,20.85,10.72s13.62,7.67,20.3,11.75,13.27,8.3,19.65,12.94a1.23,1.23,0,0,1-1.15,2.14Z" fill="#04294f"/><path d="M196.927,226.51a101.727,101.727,0,0,1-12.8-4.56c-4.15-1.76-8.2-3.69-12.17-5.76a118.348,118.348,0,0,1-11.61-6.79,66.314,66.314,0,0,1-10.62-8.61,1,1,0,0,1-.046-1.413c.015-.016.03-.032.046-.047a1,1,0,0,1,.91-.27,65.78,65.78,0,0,1,13,4.15,118.406,118.406,0,0,1,12,6c3.92,2.18,7.75,4.5,11.5,7a99.5,99.5,0,0,1,10.84,8.2,1.24,1.24,0,0,1-1.15,2.13Z" fill="#04294f"/><path d="M164.117,80.19a100.246,100.246,0,0,1-12.81-4.56c-4.14-1.76-8.19-3.69-12.16-5.76a120.362,120.362,0,0,1-11.61-6.78,67.352,67.352,0,0,1-10.63-8.58,1.05,1.05,0,0,1,0-1.47,1,1,0,0,1,.91-.27,66.51,66.51,0,0,1,13,4.15,120.362,120.362,0,0,1,12.05,6q5.871,3.27,11.49,7a98.605,98.605,0,0,1,10.85,8.2,1.24,1.24,0,0,1-1.15,2.13Z" fill="#04294f"/><path d="M100.817,199.71a100.157,100.157,0,0,1-12.8-4.57c-4.15-1.75-8.2-3.68-12.17-5.76a118.459,118.459,0,0,1-11.61-6.78,66.314,66.314,0,0,1-10.62-8.61,1,1,0,0,1-.046-1.413c.015-.016.03-.032.046-.047a1.083,1.083,0,0,1,.91-.28,67.209,67.209,0,0,1,13,4.15,120.362,120.362,0,0,1,12.05,6c3.92,2.18,7.75,4.5,11.5,7a99.417,99.417,0,0,1,10.84,8.19,1.25,1.25,0,0,1-1.1,2.12Z" fill="#04294f"/><path d="M157.157,269.11c-11.63-5.07-23-10.58-34.36-16.19-5.65-2.83-11.31-5.66-16.91-8.59l-8.43-4.35-8.36-4.47-8.37-4.46-8.32-4.54c-5.54-3.05-11-6.23-16.49-9.37s-10.88-6.45-16.25-9.82-10.72-6.76-15.93-10.42a1,1,0,0,1,.94-1.73c5.92,2.34,11.7,4.94,17.45,7.58s11.45,5.41,17.13,8.19,11.3,5.68,16.89,8.63l8.37,4.45,8.33,4.55,8.32,4.54,8.27,4.64c5.52,3.07,11,6.25,16.46,9.42,10.92,6.39,21.78,12.88,32.41,19.81a1.21,1.21,0,0,1,.354,1.674l0,.006A1.2,1.2,0,0,1,157.157,269.11Z" fill="#04294f"/><path d="M76.817,282.88a37.721,37.721,0,0,1-8-2,59.285,59.285,0,0,1-7.36-3.17,42.633,42.633,0,0,1-6.81-4.19,25.92,25.92,0,0,1-5.82-6,1.12,1.12,0,0,1,.31-1.55,1.105,1.105,0,0,1,.62-.19,25.845,25.845,0,0,1,8.23,1.56,42.739,42.739,0,0,1,7.25,3.38,59.46,59.46,0,0,1,6.69,4.42,37.383,37.383,0,0,1,6.05,5.6,1.3,1.3,0,0,1-.141,1.833l-.009.007A1.33,1.33,0,0,1,76.817,282.88Z" fill="#04294f"/><path d="M28.157,144.33a38.041,38.041,0,0,1-8-2,62.127,62.127,0,0,1-7.34-3.14,43.189,43.189,0,0,1-6.81-4.2,25.721,25.721,0,0,1-5.82-6,1.12,1.12,0,0,1,.93-1.74,25.96,25.96,0,0,1,8.24,1.56,43,43,0,0,1,7.24,3.39,60.951,60.951,0,0,1,6.7,4.41,36.994,36.994,0,0,1,6,5.61,1.289,1.289,0,0,1-.137,1.819l-.013.011A1.332,1.332,0,0,1,28.157,144.33Z" fill="#04294f"/><path d="M144.257,239.14a8.226,8.226,0,0,1-2,.35,8.883,8.883,0,0,1-1.8-.06,10.494,10.494,0,0,1-3.16-.9,7,7,0,0,1-2.62-1.94,7.521,7.521,0,0,1-1.63-3.76,1.641,1.641,0,0,1,.94-1.73,7.52,7.52,0,0,1,4-.71,7.11,7.11,0,0,1,3.06,1.13,10.244,10.244,0,0,1,2.49,2.15,8.159,8.159,0,0,1,1,1.47,8.946,8.946,0,0,1,.82,1.87A1.719,1.719,0,0,1,144.257,239.14Z" fill="#04294f"/><path d="M190.237,135.93a8.131,8.131,0,0,1-2,.35,8.883,8.883,0,0,1-1.8-.06,10.651,10.651,0,0,1-3.17-.9,7,7,0,0,1-2.61-1.94,7.521,7.521,0,0,1-1.63-3.76,1.642,1.642,0,0,1,.93-1.73,7.541,7.541,0,0,1,4-.71,7.082,7.082,0,0,1,3.05,1.13,10.291,10.291,0,0,1,2.5,2.15,8.107,8.107,0,0,1,1,1.47,7.85,7.85,0,0,1,.82,1.87A1.709,1.709,0,0,1,190.237,135.93Z" fill="#04294f"/><path d="M50.177,92.87a8.7,8.7,0,0,1-2,.34,8.212,8.212,0,0,1-1.8-.06,10.189,10.189,0,0,1-3.16-.9,7.121,7.121,0,0,1-2.62-1.94,7.514,7.514,0,0,1-1.63-3.75,1.652,1.652,0,0,1,.94-1.74,7.412,7.412,0,0,1,4-.7,7,7,0,0,1,3.06,1.12,10.244,10.244,0,0,1,2.49,2.15,8.522,8.522,0,0,1,1,1.47,8.946,8.946,0,0,1,.82,1.87A1.739,1.739,0,0,1,50.177,92.87Z" fill="#04294f"/><path d="M149.287,146.32a33.568,33.568,0,0,1-7.57-1.74,52.829,52.829,0,0,1-6.92-2.93,37.015,37.015,0,0,1-6.37-4,23.208,23.208,0,0,1-5.38-5.78,1.15,1.15,0,0,1,.93-1.74,23.1,23.1,0,0,1,7.84,1.38,36.912,36.912,0,0,1,6.81,3.14,51.582,51.582,0,0,1,6.25,4.18,33.26,33.26,0,0,1,5.61,5.36,1.31,1.31,0,0,1-.191,1.843l-.009.007A1.29,1.29,0,0,1,149.287,146.32Z" fill="#04294f"/><path d="M136.117,16.19a33.866,33.866,0,0,1-7.57-1.74,51.727,51.727,0,0,1-6.92-2.93,37.645,37.645,0,0,1-6.37-4,23.249,23.249,0,0,1-5.39-5.78,1.15,1.15,0,0,1,.37-1.57,1.187,1.187,0,0,1,.57-.17,23.2,23.2,0,0,1,7.79,1.32,37.647,37.647,0,0,1,6.81,3.15,54.342,54.342,0,0,1,6.25,4.17,34.112,34.112,0,0,1,5.61,5.37,1.329,1.329,0,0,1-.2,1.85A1.3,1.3,0,0,1,136.117,16.19Z" fill="#04294f"/></g></g></g></g></g><!--ITEM 9--><g><defs><clipPath id="clip-path-id-viewbox-item-9"><rect x="0.0" y="0.0" width="257.414" height="245.749"/></clipPath></defs><g transform="translate(443.0 140.0) rotate(-24.523856995107224 -54.0 52.0) scale(-0.41955759981974566 0.42319602521271704)"><g clip-path="url(#clip-path-id-viewbox-item-9)" transform="translate(-0.0 -0.0)"><g id="&#1057;&#1083;&#1086;&#1081;_1-i9">
</g>
<g id="&#1057;&#1083;&#1086;&#1081;_11-i9">
</g>
<g id="&#1057;&#1083;&#1086;&#1081;_9-i9">
</g>
<g id="&#1057;&#1083;&#1086;&#1081;_3-i9">
</g>
<g id="&#1057;&#1083;&#1086;&#1081;_8-i9">
</g>
<g id="&#1057;&#1083;&#1086;&#1081;_7-i9">
</g>
<g id="&#1057;&#1083;&#1086;&#1081;_10-i9">
</g>
<g id="&#1057;&#1083;&#1086;&#1081;_2-i9">
</g>
<g id="&#1057;&#1083;&#1086;&#1081;_5-i9">
</g>
<g id="&#1057;&#1083;&#1086;&#1081;_12-i9">
	<g>
		<path fill-rule="evenodd" clip-rule="evenodd" fill="#04294f" d="M248.197,63.322c-7.123-18.263-31.981-49.657-66.76-58.512    c-20.35-5.181-43.626-6.944-63.882-1.41C100.145,8.156,84.06,18.007,72.75,32.167c-1.978,2.477-3.809,6.452-7.131,7.301    c-3.249,0.83-7.798-1.575-11.091-2.037c-8.016-1.095-16.179-0.133-23.722,2.794c-8.528,3.258-15.794,9.154-20.738,16.828    c-21.815,34.413-4.249,58.898,15.504,68.643c13.396,6.609,29.492,4.76,43.669,0.056s27.393-12.047,41.686-16.385    s30.61-5.336,43.458,2.282c13.777,8.169,20.672,24.526,22.962,40.379c2.4,16.613,0.798,21.583,2.962,38.24    c0.187,1.682,1.102,3.197,2.504,4.145c4.098,2.627,8.216-2.715,9.015-7.236c1.536-8.694-0.716-17.747,0.991-26.408    c1.943-9.857,12.949-19.64,21.806-11.566c2.753,2.608,4.431,6.152,4.704,9.934c2.318,26.108-0.573,49.739-3.133,62.941    c-0.672,3.465-2.355,12.195-3.891,20.163c-0.626,3.246,3.759,4.894,5.418,2.035C235.939,212.892,275.242,132.665,248.197,63.322z"/>
		<path fill="#04294F" d="M202.797,166.82c0.151-1.264,0.533-2.489,1.129-3.614c0.447-0.988,1.448-1.606,2.532-1.565    c1.145,0.207,1.981,1.558,2.578,2.906c1.045,2.398,1.71,4.945,1.969,7.548c0.277,2.028,0.119,4.091-0.463,6.053    c-1.332,3.875-4.906,4.377-6.82,0.981C202.005,176.081,202.24,170.305,202.797,166.82z"/>
		<path fill="#0daddd" d="M149.699,17.896c-0.068,0.469-1.102,0.807-2.872,1.019c-0.877,0.086-1.949,0.191-3.194,0.312    c-1.236,0.124-2.63,0.162-4.167,0.351c-0.766,0.069-1.567,0.141-2.403,0.217c-0.833,0.073-1.697,0.215-2.59,0.315    c-1.789,0.173-3.679,0.521-5.668,0.816c-0.994,0.152-2,0.392-3.034,0.581c-0.516,0.098-1.038,0.198-1.565,0.298    c-0.522,0.126-1.048,0.253-1.579,0.381c-2.137,0.457-4.305,1.098-6.538,1.706c-2.2,0.721-4.363,1.378-6.399,2.172    c-0.514,0.185-1.024,0.369-1.529,0.551c-0.495,0.206-0.985,0.41-1.471,0.612c-0.967,0.412-1.939,0.765-2.853,1.184    c-1.823,0.848-3.593,1.597-5.182,2.437c-0.8,0.408-1.6,0.764-2.336,1.162c-0.739,0.397-1.448,0.777-2.126,1.141    c-1.388,0.687-2.572,1.422-3.673,1.999c-1.106,0.583-2.059,1.086-2.839,1.496c-1.595,0.797-2.644,1.084-2.959,0.729    c-0.315-0.355,0.138-1.322,1.259-2.794c0.28-0.368,0.602-0.766,0.964-1.195c0.37-0.418,0.799-0.84,1.258-1.301    c1.032-1.052,2.125-2.041,3.274-2.963l2.017-1.599c0.71-0.547,1.493-1.047,2.288-1.595c1.579-1.119,3.378-2.127,5.27-3.202    c0.948-0.533,1.964-0.992,2.984-1.5c0.513-0.247,1.032-0.497,1.556-0.749c0.537-0.222,1.079-0.447,1.626-0.673    c2.174-0.947,4.507-1.714,6.897-2.493c2.424-0.665,4.794-1.308,7.131-1.713c0.581-0.112,1.157-0.223,1.728-0.333    c0.576-0.078,1.147-0.154,1.712-0.23c1.131-0.137,2.232-0.313,3.317-0.389c2.172-0.143,4.229-0.292,6.162-0.225    c0.965,0.02,1.895,0.007,2.788,0.073c0.838,0.074,1.644,0.145,2.416,0.213c1.406,0.124,2.8,0.323,4.18,0.617    c0.763,0.163,1.466,0.293,2.097,0.463c0.538,0.159,1.025,0.315,1.463,0.468C148.856,16.868,149.767,17.427,149.699,17.896z"/>
		<path fill="#0daddd" d="M17.674,101.797c-0.226,0.167-0.517,0.22-0.787,0.141c-0.45-0.098-0.878-0.277-1.265-0.526    c-1.327-0.859-2.486-1.955-3.418-3.232c-1.423-1.878-2.527-3.979-3.267-6.217c-0.45-1.331-0.781-2.699-0.99-4.088    c-0.464-3.011-0.347-6.082,0.345-9.049c0.314-1.369,0.749-2.708,1.299-4.001c0.908-2.175,2.168-4.185,3.73-5.95    c1.027-1.202,2.265-2.206,3.654-2.962c0.405-0.219,0.845-0.364,1.301-0.428c0.275-0.058,0.561,0.016,0.774,0.2    c0.176,0.219,0.251,0.502,0.206,0.779c-0.051,0.428-0.153,0.848-0.304,1.251c-0.347,0.977-0.919,2.261-1.552,3.801    c-0.734,1.757-1.347,3.562-1.834,5.403c-0.278,1.059-0.501,2.132-0.67,3.213c-0.37,2.295-0.458,4.626-0.265,6.943    c0.086,1.092,0.227,2.178,0.423,3.255c0.345,1.873,0.819,3.719,1.417,5.527c0.514,1.584,0.987,2.907,1.258,3.908    c0.12,0.414,0.19,0.84,0.207,1.27C17.962,101.316,17.866,101.593,17.674,101.797z"/>
	</g>
</g>
<g id="&#1057;&#1083;&#1086;&#1081;_4-i9">
</g>
<g id="&#1057;&#1083;&#1086;&#1081;_6-i9">
</g>
</g></g></g><!--ITEM 10--><g><defs><clipPath id="clip-path-id-viewbox-item-10"><rect x="0.0" y="0.0" width="413.4" height="625.4"/></clipPath></defs><g transform="translate(955.0 993.0) rotate(151.77012545319505 142.0 215.0) scale(0.686985970004838 0.6875599616245603)"><g clip-path="url(#clip-path-id-viewbox-item-10)" transform="translate(-0.0 -0.0)"><path d="M408.4,206.7c0,139.1-201.7,413.7-201.7,413.7S5.1,340.9,5.1,206.7C5.1,95.3,95.4,5,206.8,5,318.1,5,408.4,95.3,408.4,206.7Z" fill="#04294f"/><path d="M206.7,625.4h0a5.212,5.212,0,0,1-4.1-2.1c-.5-.7-51.1-71.1-101.1-156.9C34.1,350.6,0,263.3,0,206.7,0,92.7,92.7,0,206.7,0S413.4,92.7,413.4,206.7c0,58.6-34.2,146.6-101.5,261.5-50,85.3-100.6,154.4-101.1,155.1A4.939,4.939,0,0,1,206.7,625.4Zm0-615.4C98.2,10,10,98.2,10,206.7c0,68.2,54.5,176.1,100.2,254.6,41.6,71.5,83.6,132.1,96.6,150.5,13-18.1,55-77.8,96.5-148.7C349,385.2,403.4,277.4,403.4,206.7,403.4,98.3,315.2,10,206.7,10Z" fill="#04294f"/><circle cx="206.8" cy="206.7" r="107.9" fill="#ffffff"/><path d="M206.7,319.6A112.9,112.9,0,1,1,319.6,206.7,113.032,113.032,0,0,1,206.7,319.6Zm0-215.7A102.9,102.9,0,1,0,309.6,206.8,103.067,103.067,0,0,0,206.7,103.9Z" fill="#04294f"/></g></g></g><!--ITEM 11--><g><defs><clipPath id="clip-path-id-viewbox-item-11"><rect x="0.0" y="0.0" width="95.1794" height="62.09179"/></clipPath></defs><g transform="translate(425.0 192.0) rotate(-18.014448258049438 -19.0 12.5) scale(-0.39924605534390845 0.40262971964570515)"><g clip-path="url(#clip-path-id-viewbox-item-11)" transform="translate(-0.0 -0.0)"><g>
    <g>
      <path d="M30.31757,16.75748a1.03887,1.03887,0,0,1-.7876-.104,5.52268,5.52268,0,0,1-.99268-.68457c-.3706-.30518-.77832-.67871-1.248-1.08887-.46534-.41162-.98145-.86523-1.56446-1.32666-.57275-.46972-1.22754-.93359-1.92334-1.40478a21.91674,21.91674,0,0,0-2.31006-1.29883A17.3653,17.3653,0,0,0,18.842,9.82536a16.9368,16.9368,0,0,0-2.90137-.57569,16.98443,16.98443,0,0,0-2.958.01563,17.43574,17.43574,0,0,0-2.79542.5039,21.89057,21.89057,0,0,0-2.51416.83789c-.77246.33057-1.50292.66211-2.15478,1.01465-.65967.34278-1.25244.69043-1.78711,1.00635-.53906.31348-1.00977.603-1.43213.833a5.55575,5.55575,0,0,1-1.104.48437,1.03963,1.03963,0,0,1-.79346-.04785.88722.88722,0,0,1-.38037-.687,3.37513,3.37513,0,0,1,.11719-1.3252,7.84609,7.84609,0,0,1,.75146-1.84228A12.00349,12.00349,0,0,1,2.4079,7.88981a15.49953,15.49953,0,0,1,2.36621-2.1875,17.27,17.27,0,0,1,7.2456-3.09863,17.72,17.72,0,0,1,4.57471-.19336A17.74693,17.74693,0,0,1,21.05,3.46647,17.28527,17.28527,0,0,1,27.57684,7.882,15.5118,15.5118,0,0,1,29.486,10.47819a11.9928,11.9928,0,0,1,1.08252,2.40137,7.8488,7.8488,0,0,1,.38916,1.95166,3.37906,3.37906,0,0,1-.13623,1.32324A.88881.88881,0,0,1,30.31757,16.75748Z" style="         fill: #04294f;       "/>
      <path d="M94.69891,15.318a.99478.99478,0,0,1-.82422-.11474,7.11,7.11,0,0,1-1.12792-.79883c-.4336-.35791-.92041-.79688-1.48975-1.27783-.564-.48291-1.19727-1.01514-1.918-1.55323-.71-.54883-1.52246-1.08593-2.39307-1.62793a25.01911,25.01911,0,0,0-2.89111-1.46875,20.50982,20.50982,0,0,0-3.32129-1.09716A17.6201,17.6201,0,0,0,73.446,7.131a20.42643,20.42643,0,0,0-3.38818.86865,24.98075,24.98075,0,0,0-2.98486,1.26807c-.90528.48144-1.75293.96191-2.49854,1.46094-.75537.48779-1.42383.97558-2.019,1.41894-.60108.44092-1.11621.8457-1.57324,1.17334a7.11615,7.11615,0,0,1-1.18018.72022.99434.99434,0,0,1-.82959.0581.86513.86513,0,0,1-.38281-.72705,4.12794,4.12794,0,0,1,.147-1.50391,9.796,9.796,0,0,1,.83643-2.1416A14.6801,14.6801,0,0,1,61.256,7.18034,18.72487,18.72487,0,0,1,63.8952,4.53922,20.65938,20.65938,0,0,1,67.53339,2.194,20.35873,20.35873,0,0,1,72.08612.53873,19.61748,19.61748,0,0,1,82.53925.89518a20.38071,20.38071,0,0,1,4.42919,1.96143A20.6763,20.6763,0,0,1,90.43866,5.4445a18.77647,18.77647,0,0,1,2.45312,2.81494,14.72658,14.72658,0,0,1,1.50586,2.65478,9.80751,9.80751,0,0,1,.688,2.19385,4.12954,4.12954,0,0,1,.04444,1.51074A.86568.86568,0,0,1,94.69891,15.318Z" style="         fill: #04294f;       "/>
    </g>
    <ellipse cx="15.35971" cy="43.54711" rx="8.94769" ry="18.54467" style="         fill: #04294f;       "/>
    <ellipse cx="76.83544" cy="43.54711" rx="8.94769" ry="18.54467" style="         fill: #04294f;       "/>
  </g>
</g></g></g></svg>