<svg xmlns="http://www.w3.org/2000/svg" version="1.1" viewBox="0 0 3000 2250" width="3000" height="2250">
<!--ITEM 1--><g><defs><clipPath id="clip-path-id-viewbox-item-1"><rect x="0.0" y="0.0" width="698.0" height="370.0"/></clipPath></defs><g transform="translate(150.0 401.25) rotate(0.0 1331.25 705.0) scale(3.8144699140401146 3.810810810810811)"><g clip-path="url(#clip-path-id-viewbox-item-1)" transform="translate(-0.0 -0.0)"><rect x="0" fill="#F3F4F6" width="698" height="370"/>
<rect x="0" fill="#DDDEE3" width="698" height="84"/>
<g>
	<g>
		<path fill="#FFFFFF" d="M151.232,203.767h-35.021c-8.086,0-14.871-6.095-15.736-14.135l-1.409-13.1    c-1.209-11.248-1.209-22.593,0-33.841l1.409-13.1c0.864-8.04,7.65-14.135,15.736-14.135h35.021    c8.086,0,14.871,6.095,15.736,14.135l1.409,13.1c1.209,11.248,1.209,22.593,0,33.841l-1.409,13.1    C166.104,197.672,159.318,203.767,151.232,203.767z"/>
		<path fill="#EFF0F2" d="M151.232,206.268h-35.021c-9.384,0-17.218-7.037-18.222-16.367L96.582,176.8    c-1.228-11.405-1.228-22.971,0-34.376l1.408-13.1c1.004-9.331,8.838-16.367,18.222-16.367h35.021    c9.385,0,17.219,7.036,18.222,16.367l1.409,13.1c1.227,11.405,1.227,22.971,0,34.376l-1.409,13.101    C168.451,199.231,160.617,206.268,151.232,206.268z M116.211,117.957c-6.824,0-12.521,5.117-13.251,11.902l-1.408,13.1    c-1.188,11.051-1.188,22.256,0,33.307l1.408,13.101c0.73,6.785,6.427,11.902,13.251,11.902h35.021    c6.824,0,12.521-5.117,13.251-11.902l1.409-13.101c1.188-11.05,1.188-22.256,0-33.307l-1.409-13.1    c-0.729-6.785-6.426-11.902-13.251-11.902H116.211z"/>
	</g>
	<g>
		<g>
			<polygon fill="#E8E9EC" points="177.042,301.3 130.362,369.98 114.672,369.98 113.822,369.4 165.472,293.43    "/>
		</g>
		<g>
			<path fill="#DDDEE3" d="M213.059,280.476l-87.405,10.351c-2.506,0.297-4.719,1.77-5.96,3.967l-6.86,12.147     c-1.711,3.029,0.478,6.779,3.957,6.779h97.198c4.37,0,7.913-3.543,7.913-7.913v-17.472     C221.903,283.595,217.765,279.919,213.059,280.476z"/>
		</g>
		<g>
			<path fill="#DDDEE3" d="M78.65,195.788l41.361,91.874c1.037,2.303,0.912,4.962-0.335,7.157l-2.305,4.058l10.037,14.791     l-13.356,0.037c-3.112,0.009-5.94-1.807-7.227-4.641L61.129,208.463c-0.704-1.55-0.079-3.381,1.427-4.176L78.65,195.788z"/>
		</g>
		<g>
			<path fill="#DDDEE3" d="M64.678,148.57l-11.305,2.504c-4.424,0.98-7.123,5.467-5.916,9.834l12.214,44.186     c0.115,0.417,0.265,0.824,0.446,1.216l3.321,7.173l15.524-16.786l0.153-36.49C79.147,152.598,72.109,146.924,64.678,148.57z"/>
		</g>
		<g>
			<path fill="#DDDEE3" d="M183.655,257.688h-63.834c-2.768,0-5.012-2.244-5.012-5.012v0c0-2.768,2.244-5.012,5.012-5.012h63.834     c2.768,0,5.012,2.244,5.012,5.012v0C188.667,255.445,186.423,257.688,183.655,257.688z"/>
		</g>
		<g>
			<rect x="94.235" y="253.688" fill="#DDDEE3" width="75.968" height="4"/>
		</g>
	</g>
</g>
<g>
	<g>
		<path fill="#FFFFFF" d="M317.412,203.767h-35.021c-8.086,0-14.871-6.095-15.736-14.135l-1.409-13.1    c-1.21-11.248-1.21-22.593,0-33.841l1.409-13.1c0.864-8.04,7.65-14.135,15.736-14.135h35.021c8.086,0,14.871,6.095,15.736,14.135    l1.409,13.1c1.209,11.248,1.209,22.593,0,33.841l-1.409,13.1C332.284,197.672,325.498,203.767,317.412,203.767z"/>
		<path fill="#EFF0F2" d="M317.413,206.268h-35.021c-9.385,0-17.218-7.037-18.221-16.368l-1.409-13.1    c-1.227-11.405-1.227-22.971,0-34.376l1.409-13.101c1.003-9.331,8.836-16.367,18.221-16.367h35.021    c9.385,0,17.218,7.036,18.221,16.367l1.409,13.1c1.227,11.405,1.227,22.971,0,34.376l-1.409,13.101    C334.63,199.231,326.797,206.268,317.413,206.268z M282.391,117.957c-6.824,0-12.521,5.117-13.25,11.901l-1.409,13.101    c-1.188,11.05-1.188,22.256,0,33.307l1.409,13.1c0.729,6.786,6.426,11.902,13.25,11.902h35.021c6.824,0,12.521-5.117,13.25-11.902    l1.409-13.101c1.188-11.05,1.188-22.256,0-33.307l-1.409-13.1c-0.729-6.785-6.426-11.902-13.25-11.902H282.391z"/>
	</g>
	<g>
		<g>
			<polygon fill="#E8E9EC" points="343.222,301.3 296.542,369.98 280.852,369.98 280.002,369.4 331.652,293.43    "/>
		</g>
		<g>
			<path fill="#DDDEE3" d="M379.239,280.476l-87.405,10.351c-2.505,0.297-4.719,1.77-5.96,3.967l-6.859,12.147     c-1.711,3.029,0.478,6.779,3.957,6.779h97.198c4.37,0,7.913-3.543,7.913-7.913v-17.472     C388.083,283.595,383.945,279.919,379.239,280.476z"/>
		</g>
		<g>
			<path fill="#DDDEE3" d="M244.83,195.788l41.361,91.874c1.037,2.303,0.912,4.962-0.335,7.157l-2.305,4.058l10.037,14.791     l-13.356,0.037c-3.112,0.009-5.94-1.807-7.227-4.641l-45.695-100.602c-0.704-1.55-0.079-3.381,1.427-4.176L244.83,195.788z"/>
		</g>
		<g>
			<path fill="#DDDEE3" d="M230.858,148.57l-11.305,2.504c-4.424,0.98-7.123,5.467-5.916,9.834l12.214,44.186     c0.115,0.417,0.265,0.824,0.446,1.216l3.321,7.173l15.524-16.786l0.153-36.49C245.327,152.598,238.289,146.924,230.858,148.57z"/>
		</g>
		<g>
			<path fill="#DDDEE3" d="M349.835,257.688h-63.834c-2.768,0-5.012-2.244-5.012-5.012v0c0-2.768,2.244-5.012,5.012-5.012h63.834     c2.768,0,5.012,2.244,5.012,5.012v0C354.847,255.445,352.603,257.688,349.835,257.688z"/>
		</g>
		<g>
			<rect x="260.415" y="253.688" fill="#DDDEE3" width="75.968" height="4"/>
		</g>
	</g>
</g>
<g>
	<path fill="#FFFFFF" d="M483.592,203.767h-35.021c-8.086,0-14.871-6.095-15.736-14.135l-1.409-13.1   c-1.209-11.248-1.209-22.593,0-33.841l1.409-13.1c0.864-8.04,7.65-14.135,15.736-14.135h35.021c8.086,0,14.871,6.095,15.736,14.135   l1.409,13.1c1.21,11.248,1.21,22.593,0,33.841l-1.409,13.1C498.463,197.672,491.678,203.767,483.592,203.767z"/>
	<path fill="#EFF0F2" d="M483.592,206.268h-35.021c-9.385,0-17.218-7.037-18.221-16.368l-1.409-13.1   c-1.227-11.405-1.227-22.971,0-34.376l1.409-13.101c1.003-9.331,8.836-16.367,18.221-16.367h35.021   c9.385,0,17.218,7.036,18.221,16.367l1.409,13.1c1.227,11.405,1.227,22.971,0,34.376l-1.409,13.101   C500.81,199.231,492.977,206.268,483.592,206.268z M448.571,117.957c-6.824,0-12.521,5.117-13.25,11.901l-1.409,13.101   c-1.188,11.05-1.188,22.256,0,33.307l1.409,13.1c0.729,6.786,6.426,11.902,13.25,11.902h35.021c6.824,0,12.521-5.117,13.25-11.902   l1.409-13.101c1.188-11.05,1.188-22.256,0-33.307l-1.409-13.1c-0.729-6.785-6.426-11.902-13.25-11.902H448.571z"/>
</g>
<g>
	<polygon fill="#E8E9EC" points="509.402,301.3 462.722,369.98 447.032,369.98 446.182,369.4 497.832,293.43  "/>
</g>
<g>
	<path fill="#DDDEE3" d="M545.418,280.476l-87.405,10.351c-2.506,0.297-4.719,1.77-5.96,3.967l-6.859,12.147   c-1.711,3.029,0.478,6.779,3.957,6.779h97.198c4.37,0,7.913-3.543,7.913-7.913v-17.472   C554.262,283.595,550.125,279.919,545.418,280.476z"/>
</g>
<g>
	<path fill="#DDDEE3" d="M411.009,195.788l41.361,91.874c1.037,2.303,0.912,4.962-0.335,7.157l-2.305,4.058l10.037,14.791   l-13.356,0.037c-3.112,0.009-5.94-1.807-7.227-4.641l-45.695-100.602c-0.704-1.55-0.079-3.381,1.427-4.176L411.009,195.788z"/>
</g>
<g>
	<path fill="#DDDEE3" d="M397.038,148.57l-11.305,2.504c-4.424,0.98-7.123,5.467-5.916,9.834l12.214,44.186   c0.115,0.417,0.265,0.824,0.446,1.216l3.321,7.173l15.524-16.786l0.153-36.49C411.507,152.598,404.469,146.924,397.038,148.57z"/>
</g>
<g>
	<path fill="#DDDEE3" d="M516.015,257.688H452.18c-2.768,0-5.012-2.244-5.012-5.012v0c0-2.768,2.244-5.012,5.012-5.012h63.834   c2.768,0,5.012,2.244,5.012,5.012v0C521.026,255.445,518.783,257.688,516.015,257.688z"/>
</g>
<g>
	<rect x="426.594" y="253.688" fill="#DDDEE3" width="75.968" height="4"/>
</g>
<g>
	<path fill="none" d="M478.294,297.365"/>
</g>
<path fill="#FFFFFF" d="M589.312,362.644H698V115.498h-83.369c-13.983,0-25.319,11.335-25.319,25.319V362.644z"/>
<g>
	<rect x="92.86" y="6" fill="#F3F4F6" width="264" height="72"/>
	<path fill="#DDDEE3" d="M247.151,71.206h-44.581c-2.229,0-4.053-1.824-4.053-4.053v0c0-2.229,1.824-4.053,4.053-4.053h44.581   c2.229,0,4.053,1.824,4.053,4.053v0C251.204,69.382,249.38,71.206,247.151,71.206z"/>
</g>
<rect x="623.783" y="6" fill="#F3F4F6" width="74.057" height="72"/>
</g></g></g><!--ITEM 2--><g><defs><clipPath id="clip-path-id-viewbox-item-2"><rect x="0.0" y="0.0" width="74.0" height="192.046"/></clipPath></defs><g transform="translate(352.5 1128.75) rotate(0.0 138.75 360.0) scale(3.75 3.749101777699093)"><g clip-path="url(#clip-path-id-viewbox-item-2)" transform="translate(-0.0 -0.0)"><g>
	<g>
		<path fill="#013B84" d="M10.511,181.712H9.844c-1.105,0-2,0.895-2,2v6.333c0,1.105,0.895,2,2,2h0.667c1.105,0,2-0.895,2-2v-6.333    C12.511,182.608,11.615,181.712,10.511,181.712z"/>
	</g>
	<g>
		<path fill="#013B84" d="M63.844,181.712h-0.667c-1.105,0-2,0.895-2,2v6.333c0,1.105,0.895,2,2,2h0.667c1.105,0,2-0.895,2-2v-6.333    C65.844,182.608,64.948,181.712,63.844,181.712z"/>
	</g>
	<g>
		<path fill="#53a0ff" d="M57.333,164.712H16.666V8.379c0-3.86,3.141-7,7-7h26.667c3.859,0,7,3.14,7,7V164.712z M20.666,160.712    h32.667V8.379c0-1.654-1.346-3-3-3H23.666c-1.654,0-3,1.346-3,3V160.712z"/>
	</g>
	<g>
		<path fill="#2888FF" d="M69,90.046H5c-2.761,0-5,2.239-5,5v87.333c0,2.761,2.239,5,5,5h64c2.761,0,5-2.239,5-5V95.046    C74,92.284,71.761,90.046,69,90.046z"/>
	</g>
	<g>
		<rect x="24.332" y="0" fill="#013B84" width="25.336" height="5.701"/>
	</g>
	<g>
		<path fill="#53A0FF" d="M62.02,112.658H11.98c-1.982,0-3.589-1.607-3.589-3.589v0c0-1.982,1.607-3.589,3.589-3.589H62.02    c1.982,0,3.589,1.607,3.589,3.589v0C65.609,111.051,64.002,112.658,62.02,112.658z"/>
	</g>
	<g>
		<path fill="#53A0FF" d="M62.02,142.006H11.98c-1.982,0-3.589-1.607-3.589-3.589v0c0-1.982,1.607-3.589,3.589-3.589H62.02    c1.982,0,3.589,1.607,3.589,3.589v0C65.609,140.399,64.002,142.006,62.02,142.006z"/>
	</g>
	<g>
		<path fill="#53A0FF" d="M62.02,171.354H11.98c-1.982,0-3.589-1.607-3.589-3.589l0,0c0-1.982,1.607-3.589,3.589-3.589H62.02    c1.982,0,3.589,1.607,3.589,3.589l0,0C65.609,169.747,64.002,171.354,62.02,171.354z"/>
	</g>
</g>
</g></g></g><!--ITEM 3--><g><defs><clipPath id="clip-path-id-viewbox-item-3"><rect x="0.0" y="0.0" width="218.638" height="346.357"/></clipPath></defs><g transform="translate(423.75 536.25) rotate(0.0 408.75 648.75) scale(3.739057254457139 3.7461347684614426)"><g clip-path="url(#clip-path-id-viewbox-item-3)" transform="translate(-0.0 -0.0)"><path fill="#99644C" d="M100.359,321.857l-3.134,6.991c-1.581,3.526,0.999,7.509,4.863,7.509h6.271c0,0,16.5,8.5,18,8s21.5,0,21.5,0  v-0.761c0-2.702-2.023-4.977-4.707-5.293l-12.293-1.446l-15-17L100.359,321.857z"/>
<g>
	<path fill="#99644C" d="M134.22,216.964l-2.046,38.041c-0.059,1.106-0.22,2.209-0.481,3.296l-16.341,68.215   c0,0-15.715-0.042-15.176-0.013l3.925-71.401c0.114-2.07,0.583-4.125,1.387-6.074l11.133-26.982L134.22,216.964z"/>
</g>
<polygon fill="#7EB8FF" points="109.568,334.091 97.687,334.091 99.145,344.136 109.568,344.136 "/>
<g>
	<path fill="#99644C" d="M146.797,122.974l5.386,21.061c0.282,1.102,0.291,2.27,0.027,3.405l-18.612,80.02   c0,0-18.435,1.565-18.407,1.053l3.106-57.75l1.914-46.707L146.797,122.974z"/>
</g>
<path fill="#7EB8FF" d="M100.359,321.857l-3.134,6.991c-1.581,3.526,0.999,7.509,4.863,7.509h6.271c0,0,16.5,8.5,18,8s21.5,0,21.5,0  v-0.761c0-2.702-2.023-4.977-4.707-5.293l-12.293-1.446l-18.835-3.387L100.359,321.857z"/>
<path opacity="0.1" fill="#1D2445" d="M132.176,255.004l1.498-27.864l18.537-79.701c0.264-1.135,0.255-2.303-0.027-3.405  l-5.386-21.061l-26.586,1.083l-1.914,46.707l-2.92,54.301l-9.888,23.965c-0.804,1.949-1.274,4.004-1.387,6.073l-3.669,66.745  l-0.074,0.01l-3.134,6.991c-0.822,1.834-0.512,3.786,0.512,5.243h-0.05l1.458,10.045h10.423v-7.162  c3.827,1.943,15.538,7.801,16.791,7.383c1.5-0.5,21.5,0,21.5,0v-0.761c0-2.702-2.023-4.977-4.707-5.293l-12.293-1.446  l-14.143-16.029l14.979-62.528C131.955,257.213,132.117,256.11,132.176,255.004z"/>
<polygon fill="#1D2445" points="115.189,161.99 103.325,160.527 89.915,153.267 115.027,139.562 "/>
<g>
	<path fill="#99644C" d="M184.644,102.233l4.619-3.737c2.051-2.326,4.173-2.604,5.784-3.479l1.595-0.865l7.12-3.429   c0.828-0.393,1.479-1.081,1.826-1.929l1.007-2.429l3.838-1.769c0.879-0.398,1.659-0.986,2.284-1.722l5.804-6.812   c0.176-0.204,0.153-0.512-0.051-0.688c-0.003-0.003-0.006-0.005-0.009-0.008l-0.02-0.015c-0.731-0.543-1.743-0.502-2.426,0.099   l-6.157,5.425l-9.12,2.92l-1.857,0.085c-0.235,0.009-0.449-0.134-0.531-0.355l0,0c-0.085-0.229-0.012-0.486,0.179-0.638   c1.157-0.925,4.92-3.808,5.556-4.286c0.634-0.466,0.772-1.358,0.307-1.993c-0.011-0.015-0.022-0.029-0.033-0.043l0,0   c-0.408-0.533-1.122-0.726-1.743-0.47c0,0-3.402,1.763-5.539,2.924c-0.748,0.42-1.553,0.729-2.389,0.921   c-1.358,0.319-2.606,1-3.61,1.97l-2.702,2.76c-1.538,1.572-3.148,3.061-3.29,5.099l-5.157,3.332L184.644,102.233z"/>
	<line fill="none" x1="210.347" y1="83.749" x2="209.039" y2="84.482"/>
	<path fill="#99644C" d="M190.752,97.168l-5.646-7.729l-79.748,49.272l7.186,11.849l29.452-20.051l17.887-8.394   c0.583-0.274,1.128-0.621,1.623-1.035L190.752,97.168z"/>
	<path fill="#99644C" d="M209.039,84.482l-1.963,1.1l1.08-8.114l0.093-0.694c0.202-0.927,0.911-1.565,1.68-1.584   c0,0,0,0,0.009-0.005c0.265,0.023,0.469,0.264,0.446,0.53l-0.036,8.034L209.039,84.482z"/>
	<path fill="#99644C" d="M206.16,86.096l0.916-0.513l1.963-1.1l-0.883-7.014l-0.085-0.663c-0.013-0.268-0.242-0.472-0.51-0.459   c-0.005-0.009-0.014-0.004-0.014-0.004c-0.755,0.125-1.379,0.853-1.451,1.788l-0.021,7.303l-0.002,0.712L206.16,86.096z"/>
	<path opacity="0.07" fill="#1D2445" d="M203.847,82.936l-4.991,2.979c-0.932,0.556-0.435,1.99,0.641,1.85l4.601-0.598   L203.847,82.936z"/>
	<path fill="#99644C" d="M206.16,86.096l-0.085-0.663l-0.773-6.124c-0.013-0.268-0.247-0.481-0.515-0.468l-0.009,0.005   c-0.755,0.125-1.384,0.845-1.451,1.788l-0.019,7.061l2.765-1.55L206.16,86.096z"/>
</g>
<polygon fill="#013B84" points="147.551,126.492 95.62,126.492 71.037,67.51 123.986,67.51 "/>
<path fill="#013B84" d="M137.863,76.758l-65.946-6.668l-0.055-17.286c-0.007-2.18,0.975-4.276,2.727-5.574  c2.512-1.862,5.745-2.631,8.929-1.984l50.405,10.243c3.883,0.789,7.064,3.565,8.37,7.307l1.991,5.916  C145.702,72.93,142.291,77.205,137.863,76.758z"/>
<g>
	<path fill="#99644C" d="M97.226,219.995l-16.877,34.381c-0.836,1.702-1.398,3.525-1.666,5.402l-9.581,67.123   c0,0,13.255,2.874,12.74,2.704l25.081-66.758l4.567-31.782L97.226,219.995z"/>
</g>
<g>
	<path fill="#99644C" d="M133.731,133.857l7.038,22.738l-31.707,85.328c0,0-14.616-8.512-14.616-9.023l12.757-97.96L133.731,133.857   z"/>
</g>
<path fill="#016EEA" d="M96.478,129.639h52.326l3.166,13.849c0.664,2.906,0.671,5.923,0.019,8.831l-13.848,61.784H96.478  l-0.571-66.202L96.478,129.639z"/>
<path fill="#013B84" d="M143.796,67.671l11.907,39.806l-11.105,18.577l-18.67-57.946L143.796,67.671z"/>
<g>
	<path fill="#99644C" d="M21.611,152.25l5.757,3.801c0.991,0.654,2.302,0.533,3.157-0.291l34.481-33.285   c0.924-0.892,1.042-2.331,0.275-3.361l-8.341-11.206L43.177,121.81L21.611,152.25z"/>
	<path fill="#99644C" d="M35.353,137.213l-6.855,7.563c-0.547,1.63-1.832,2.905-3.467,3.438l-1.617,0.528l-7.148,1.955   c-0.83,0.222-1.547,0.746-2.011,1.47l-1.339,2.07l-3.839,0.981c-0.878,0.218-1.698,0.628-2.398,1.201l-6.509,5.3   c-0.197,0.158-0.228,0.447-0.07,0.643c0.002,0.003,0.005,0.006,0.007,0.009l0.016,0.017c0.583,0.625,1.522,0.758,2.255,0.32   l6.598-3.959l8.907-1.148l1.727,0.236c0.218,0.032,0.391,0.2,0.43,0.417l0,0c0.039,0.225-0.071,0.45-0.273,0.558   c-1.224,0.657-5.184,2.678-5.851,3.011c-0.664,0.321-0.943,1.121-0.621,1.786c0.008,0.016,0.015,0.03,0.023,0.045l0,0   c0.286,0.561,0.912,0.86,1.528,0.729c0,0,3.436-1.049,5.605-1.759c0.761-0.26,1.555-0.409,2.36-0.444   c1.307-0.064,2.573-0.481,3.663-1.204l2.961-2.088c1.685-1.189,4.162-2.988,5.011-5.743c0.447-1.451,1.594-5.108,1.594-5.108   L35.353,137.213z"/>
</g>
<path fill="#013B84" d="M71.795,52.607l-15.013,49.557l-3.005,8.861l11.244,11.646l1.272-1.475c1.223-1.419,2.153-3.067,2.735-4.847  l20.631-63.093L71.795,52.607z"/>
<path opacity="0.15" fill="#1D2445" d="M143.796,67.671l11.907,39.806l-11.105,18.577l-18.397-55.315L143.796,67.671z"/>
<path fill="#013B84" d="M131.541,68.928l11.851,8.573c2.507,1.813,3.641,4.981,2.854,7.973l-3.823,14.548  c-0.324,1.234-0.328,2.531-0.011,3.767l6.632,25.831l-59.172,23.757l5.122-29.945l-5.403-58.623L131.541,68.928z"/>
<g>
	<circle fill="#002652" cx="120.342" cy="37.011" r="14.276"/>
	<circle fill="#002652" cx="108.363" cy="37.011" r="14.276"/>
	<path fill="#99644C" d="M101.07,49.184v-14.51h9.519h8.35v17.879l0.049,13.279c0.007,1.893-2.376,2.736-3.56,1.259L101.07,49.184z"/>
	<polygon opacity="0.1" enable-background="new    " points="110.76,42.072 110.76,50.308 114.503,42.446  " fill="#000000"/>
	<circle fill="#002652" cx="123.25" cy="19.704" r="11.842"/>
	<path fill="#002652" d="M94.267,37.436h31.82V13.851c0-7.65-6.201-13.851-13.851-13.851h-4.118c-7.65,0-13.851,6.201-13.851,13.851   V37.436z"/>
	<path fill="#99644C" d="M123.107,6.508h-13.102h-1.872c-6.203,0-11.231,5.028-11.231,11.231v6.738v6.002   c0,1.915,0.734,3.758,2.051,5.148l6.457,6.819h9.189l6.457-6.819c1.317-1.391,2.051-3.233,2.051-5.148v-6.002L123.107,6.508z"/>
	<rect x="104.147" y="13.964" fill="#99644C" width="9.888" height="12.57"/>
	<path fill="#99644C" d="M123.813,27.935h-7.394c-0.493,0-0.893-0.4-0.893-0.893V19.7c0-0.493,0.4-0.893,0.893-0.893h7.394   c2.521,0,4.564,2.043,4.564,4.564l0,0C128.376,25.892,126.333,27.935,123.813,27.935z"/>
	<path fill="#99644C" d="M97.355,30.092h7.394c0.493,0,0.893-0.4,0.893-0.893v-7.342c0-0.493-0.4-0.893-0.893-0.893h-7.394   c-2.521,0-4.564,2.043-4.564,4.564l0,0C92.791,28.049,94.834,30.092,97.355,30.092z"/>
	<path fill="#002652" d="M117.18,3.931h-8.766l1.958,7.378c1.164,4.386,5.133,7.439,9.671,7.439h6.341v-5.615   C126.382,8.051,122.262,3.931,117.18,3.931z"/>
	<polygon fill="#FFFFFF" enable-background="new    " points="110.417,32.316 106.33,32.356 107.052,34.122 110.417,34.782    113.781,34.122 114.503,32.356  "/>
	<path fill="#002652" d="M118.835,18.718L118.835,18.718c1.067,0,1.932,0.865,1.932,1.932v6.647c0,2.836,1.361,5.5,3.66,7.162   c2.14,1.546,4.447,3.222,4.576,3.351v-9.733l0,0c-1.861,0-3.369-1.508-3.369-3.369V13.851h-6.799L118.835,18.718z"/>
	<rect x="123.388" y="16.472" fill="#002652" width="6.364" height="11.605"/>
</g>
<path fill="#99644C" d="M70.491,322.485l-5.224,15.638l0.07,0.095c-3.446,0-6.239,2.793-6.239,6.239v1.085H78.9l4.554-4.212  l0.832-18.785L70.491,322.485z"/>
<path fill="#93C3FF" d="M68.438,328.665l-1.407,4.104c-0.596,1.738,0.696,3.546,2.533,3.546h10.093c1.188,0,2.235-0.783,2.569-1.924  l1.84-6.273l1.202,15.847l-3.825,0.096l0,0c-0.457,1.371-1.74,2.295-3.184,2.295H60.473c-1.693,0-2.907-1.634-2.417-3.255  l0.145-0.478c0.612-2.025,1.929-3.764,3.712-4.903l2.373-1.514L68.438,328.665z"/>
<path opacity="0.1" enable-background="new    " d="M122.58,22.32l-1.363-1.363c-0.732-0.732-1.72-1.152-2.755-1.171l-4.859-0.09  c-1.113-0.021-2.029,0.872-2.037,1.986l-0.058,8.267h0.831c1.404,0,2.37-1.408,1.867-2.718l-1.889-4.912H122.58z" fill="#000000"/>
</g></g></g><!--ITEM 4--><g><defs><clipPath id="clip-path-id-crop-item-4"><rect transform="scale(0.12605176470588236 0.12721666666666667)" x="0.0" y="0.0" width="202.5" height="120.0"/></clipPath><clipPath id="clip-path-id-viewbox-item-4"><rect x="0.0" y="0.0" width="40.179" height="15.266"/></clipPath></defs><g clip-path="url(#clip-path-id-crop-item-4)" transform="translate(2328.75 577.5) rotate(0.0 159.375 60.0) scale(7.9332487120137385 7.860605266605528)"><g clip-path="url(#clip-path-id-viewbox-item-4)" transform="translate(-0.0 -0.0)"><g>
	<path fill="#A9CFFF" d="M37.372,15.266L7.166,15.182c-1.532-0.004-2.77-1.249-2.765-2.781l0.027-9.636   C4.432,1.234,5.677-0.004,7.208,0l30.205,0.084c1.532,0.004,2.77,1.249,2.765,2.781L40.152,12.5   C40.148,14.032,38.903,15.27,37.372,15.266z"/>
	<rect x="6.373" y="2.706" transform="matrix(1 0.0028 -0.0028 1 0.0211 -0.0325)" fill="#93C3FF" width="10.774" height="9.795"/>
	<path fill="#4C6786" d="M8.567,11.268l-7.346-0.02C0.545,11.246-0.002,10.696,0,10.02l0,0c0.002-0.676,0.552-1.223,1.228-1.221   l7.346,0.02c0.676,0.002,1.223,0.552,1.221,1.228v0C9.793,10.723,9.243,11.27,8.567,11.268z"/>
	<path fill="#4C6786" d="M8.581,6.37L1.235,6.35C0.558,6.348,0.012,5.799,0.014,5.122l0,0C0.015,4.446,0.565,3.9,1.241,3.901   l7.346,0.02C9.264,3.924,9.81,4.473,9.808,5.15v0C9.807,5.826,9.257,6.372,8.581,6.37z"/>
</g>
</g></g></g><!--ITEM 5--><g><defs><clipPath id="clip-path-id-crop-item-5"><rect transform="scale(0.12199024390243902 0.12158730158730158)" x="0.0" y="0.0" width="206.25" height="157.5"/></clipPath><clipPath id="clip-path-id-viewbox-item-5"><rect x="0.0" y="0.0" width="37.512" height="19.15"/></clipPath></defs><g clip-path="url(#clip-path-id-crop-item-5)" transform="translate(1717.5 536.25) rotate(0.0 -153.75 78.75) scale(-8.197376839411389 8.224543080939949)"><g clip-path="url(#clip-path-id-viewbox-item-5)" transform="translate(-0.0 -0.0)"><rect x="0.006" y="14.899" transform="matrix(1 0.0028 -0.0028 1 0.0471 -0.0518)" fill="#2888FF" width="37.471" height="4.199"/>
<path fill="#68ABFF" d="M37.479,15.92l-37.47-0.104L0.041,4.188C0.048,1.868,1.933-0.006,4.252,0l29.072,0.08  c2.319,0.006,4.194,1.892,4.188,4.211L37.479,15.92z"/>
<rect x="7.473" y="0.04" transform="matrix(1 0.0028 -0.0028 1 0.0091 -0.0519)" fill="#2888FF" width="22.612" height="6.46"/>
<rect x="10.379" y="1.978" transform="matrix(1 0.0028 -0.0028 1 0.01 -0.0519)" fill="#D4E7FF" width="16.797" height="3.23"/>
</g></g></g><!--ITEM 6--><g><defs><clipPath id="clip-path-id-crop-item-6"><rect transform="scale(0.2806311111111111 0.28655757575757573)" x="0.0" y="0.0" width="112.5" height="82.5"/></clipPath><clipPath id="clip-path-id-viewbox-item-6"><rect x="0.0" y="0.0" width="31.571" height="23.641"/></clipPath></defs><g clip-path="url(#clip-path-id-crop-item-6)" transform="translate(776.25 513.75) rotate(0.0 56.25 41.25) scale(3.5633967881916946 3.489700097288609)"><g clip-path="url(#clip-path-id-viewbox-item-6)" transform="translate(-0.0 -0.0)"><path fill="#2888FF" d="M14.819,8.111h1.792c0.552,0,1,0.448,1,1v13.53c0,0.552-0.448,1-1,1h-1.792c-0.552,0-1-0.448-1-1V9.111  C13.819,8.559,14.266,8.111,14.819,8.111z"/>
<g>
	<path fill="#016EEA" d="M15.786,1.993L12.355,0c-2.344,4.1,0.135,7.581,3.43,10.956C18.613,7.511,20.501,3.95,19.216,0   L15.786,1.993z"/>
	<path fill="#1A7CEC" d="M29.033,10.43C26.536,6.155,25.422,3.617,19.216,0c0.085,1.612,0.08,4.341-3.43,9.514l0,12.673   l12.251-7.705C29.406,13.622,29.848,11.826,29.033,10.43z"/>
	<path fill="#3D94FF" d="M30.642,18.605c-7.26,4.66-11.16,5.123-14.856,5.026V15.66c1.955-1.114,12.695-5.798,9.945-10.548   c2.914,2.758,4.654,7.835,5.743,11.184C31.756,17.164,31.41,18.112,30.642,18.605z"/>
	<path fill="#2888FF" d="M2.539,10.43C5.035,6.155,6.15,3.617,12.355,0c-0.085,1.612-0.08,4.341,3.43,9.514l0,12.673L3.534,14.483   C2.165,13.622,1.723,11.826,2.539,10.43z"/>
	<path fill="#53A0FF" d="M0.929,18.605c7.26,4.66,11.16,5.123,14.856,5.026V15.66C13.999,14.372,3.091,9.862,5.841,5.112   C2.927,7.87,1.186,12.946,0.098,16.296C-0.185,17.164,0.161,18.112,0.929,18.605z"/>
</g>
</g></g></g><!--ITEM 7--><g><defs><clipPath id="clip-path-id-viewbox-item-7"><rect x="0.0" y="0.0" width="30.825" height="17.389"/></clipPath></defs><g transform="translate(765.0 690.0) rotate(0.0 50.625 28.125) scale(3.2846715328467155 3.234803611478521)"><g clip-path="url(#clip-path-id-viewbox-item-7)" transform="translate(-0.0 -0.0)"><g>
	<polygon fill="#2888FF" points="30.825,17.389 9.95,11.389 9.95,7.264 30.825,4.264  "/>
	<path fill="#2888FF" d="M7.283,2.869C8.751,4.482,9.175,6.486,8.23,7.346c-0.945,0.86-2.9,0.249-4.368-1.364S1.545,0,1.545,0   S5.815,1.256,7.283,2.869z"/>
	<path fill="#2888FF" d="M4.76,10.15c2.037-0.78,4.058-0.446,4.515,0.747s-0.824,2.792-2.861,3.572C4.378,15.249,0,14.449,0,14.449   S2.724,10.93,4.76,10.15z"/>
	<path fill="#3D94FF" d="M11.325,12.389h-2.5c-0.791,0-1.438-0.647-1.438-1.437V7.827c0-0.791,0.647-1.438,1.438-1.438h2.5   c0.791,0,1.438,0.647,1.438,1.438v3.125C12.763,11.742,12.116,12.389,11.325,12.389z"/>
</g>
</g></g></g><!--ITEM 8--><g><defs><clipPath id="clip-path-id-viewbox-item-8"><rect x="0.0" y="0.0" width="18.981" height="11.502"/></clipPath></defs><g transform="translate(742.5 791.25) rotate(0.0 33.75 20.625) scale(3.556187766714082 3.5863328116849242)"><g clip-path="url(#clip-path-id-viewbox-item-8)" transform="translate(-0.0 -0.0)"><g>
	<path fill="#93C3FF" d="M2,11.502h14.981c1.105,0,2-0.895,2-2v-3.03c0-1.105-0.895-2-2-2H2c-1.105,0-2,0.895-2,2v3.03   C0,10.607,0.895,11.502,2,11.502z"/>
	<rect x="7.992" y="0" fill="#2888FF" width="2.996" height="5.802"/>
</g>
</g></g></g><!--ITEM 9--><g><defs><clipPath id="clip-path-id-viewbox-item-9"><rect x="0.0" y="0.0" width="106.949" height="59.447"/></clipPath></defs><g transform="translate(1916.25 1627.5) rotate(0.0 202.5 112.5) scale(3.7868516769675264 3.784884014332094)"><g clip-path="url(#clip-path-id-viewbox-item-9)" transform="translate(-0.0 -0.0)"><g>
	<g>
		<path fill="#2888FF" d="M101.758,59.447c-0.188,0-0.375-0.01-0.563-0.031c-37.723,0.202-57.215-1.852-69.512-7.279    c-0.758-0.334-1.101-1.22-0.767-1.978c0.334-0.759,1.22-1.102,1.978-0.767c11.886,5.246,31.063,7.222,68.378,7.023l0.102-0.001    l0.101,0.014c0.634,0.084,1.249-0.104,1.729-0.525c0.481-0.423,0.746-1.008,0.746-1.647c0-1.151-0.9-2.111-2.049-2.186    l-5.882-0.382c-14.123-0.918-24.337-10.637-24.839-23.636L70.336,6.242c-0.052-1.354-1.154-2.414-2.51-2.414    c-1.385,0-2.511,1.127-2.511,2.512v6.138c0,0.828-0.671,1.5-1.5,1.5s-1.5-0.672-1.5-1.5V6.34c0-3.039,2.472-5.512,5.511-5.512    c2.974,0,5.393,2.327,5.508,5.299l0.842,21.811c0.448,11.588,9.303,19.93,22.036,20.757l5.882,0.382    c2.722,0.177,4.855,2.452,4.855,5.18c0,1.494-0.644,2.916-1.767,3.901C104.23,58.993,103.01,59.447,101.758,59.447z"/>
	</g>
	<g>
		<path fill="#93C3FF" d="M17.892,58.752h22.943c8.041,0,14.56-6.519,14.56-14.56V0.512H6.439c-1.716,0-3.107,1.391-3.107,3.107    v40.573C3.332,52.233,9.851,58.752,17.892,58.752z"/>
	</g>
	<g>
		<path fill="#2888FF" d="M38.09,52.265c-0.065,0-0.13-0.004-0.196-0.013C16.516,49.458,0.243,31.095,0.043,9.535L0,4.975    C-0.012,3.649,0.495,2.401,1.428,1.46C2.361,0.519,3.604,0,4.929,0C6.287,0,7.551,0.54,8.49,1.521    c0.938,0.98,1.422,2.267,1.363,3.622l-0.259,5.95c-0.036,0.827-0.739,1.495-1.563,1.434c-0.828-0.036-1.47-0.736-1.434-1.564    l0.259-5.95C6.88,4.481,6.69,3.979,6.323,3.595c-0.727-0.759-2.025-0.77-2.765-0.023C3.194,3.939,2.995,4.429,3,4.947l0.042,4.561    c0.187,20.071,15.336,37.169,35.24,39.77c0.821,0.107,1.4,0.86,1.293,1.682C39.477,51.715,38.832,52.265,38.09,52.265z"/>
	</g>
	<g>
		<rect x="3.332" y="13.685" fill="#93C3FF" width="10.564" height="27.859"/>
	</g>
	<g>
		<path fill="#2888FF" d="M25.585,58.752h22.943c8.041,0,14.56-6.519,14.56-14.56V3.619c0-1.716-1.391-3.107-3.107-3.107H14.132    c-1.716,0-3.107,1.391-3.107,3.107v40.573C11.025,52.233,17.544,58.752,25.585,58.752z"/>
	</g>
	<g>
		<path fill="#93C3FF" d="M39.307,46.383h-4.501c-1.21,0-2.191-0.981-2.191-2.191v0c0-1.21,0.981-2.191,2.191-2.191h4.501    c1.21,0,2.191,0.981,2.191,2.191v0C41.498,45.402,40.517,46.383,39.307,46.383z"/>
	</g>
</g>
</g></g></g></svg>